G04 PROTEUS GERBER X2 FILE*
%TF.GenerationSoftware,Labcenter,Proteus,8.17-SP2-Build37159*%
%TF.CreationDate,2024-06-19T13:44:36+00:00*%
%TF.FileFunction,Copper,L2,Bot*%
%TF.FilePolarity,Positive*%
%TF.Part,Single*%
%TF.SameCoordinates,{1d89ed81-d2fc-43df-ac84-501309ecc539}*%
%FSLAX45Y45*%
%MOMM*%
G01*
%TA.AperFunction,Conductor*%
%ADD10C,0.762000*%
%ADD11C,1.016000*%
%TA.AperFunction,ViaPad*%
%ADD12C,0.762000*%
%TA.AperFunction,Conductor*%
%ADD20C,0.254000*%
%TA.AperFunction,ComponentPad*%
%ADD13R,1.059670X1.059670*%
%ADD14C,1.498600*%
%TA.AperFunction,ComponentPad*%
%ADD15R,0.848520X0.848520*%
%ADD16C,1.200000*%
%TA.AperFunction,ComponentPad*%
%ADD17R,2.032000X2.032000*%
%TA.AperFunction,WasherPad*%
%ADD18C,1.397000*%
%TA.AperFunction,ComponentPad*%
%ADD19C,1.524000*%
%TA.AperFunction,ComponentPad*%
%ADD70C,1.778000*%
%TA.AperFunction,Profile*%
%ADD71C,0.101600*%
%TD.AperFunction*%
%TA.AperFunction,Conductor*%
G36*
X-2811321Y+2684321D02*
X-2844799Y+2650843D01*
X-2844799Y+2048157D01*
X-2650843Y+1854201D01*
X-2115843Y+1854201D01*
X-782771Y+521129D01*
X-786600Y+521129D01*
X-875129Y+432600D01*
X-875129Y+307400D01*
X-872528Y+304799D01*
X-1159157Y+304799D01*
X-1223991Y+369633D01*
X-2081272Y+369633D01*
X-2081272Y+396265D01*
X-2119075Y+434068D01*
X-2172535Y+434068D01*
X-2210338Y+396265D01*
X-2210338Y+364304D01*
X-2235201Y+339441D01*
X-2235201Y+477193D01*
X-2429157Y+671149D01*
X-2988901Y+671149D01*
X-2988901Y+788386D01*
X-3039701Y+839186D01*
X-3039701Y+2640657D01*
X-2937157Y+2743201D01*
X-2752441Y+2743201D01*
X-2811321Y+2684321D01*
G37*
%TD.AperFunction*%
%TA.AperFunction,Conductor*%
G36*
X-1726299Y-2458500D02*
X-1726299Y-2505843D01*
X-1552441Y-2679701D01*
X-2523843Y-2679701D01*
X-2717799Y-2873657D01*
X-2717799Y-3349343D01*
X-2479318Y-3587824D01*
X-1457818Y-3587824D01*
X-1109099Y-3936543D01*
X-1109099Y-4008386D01*
X-1012386Y-4105099D01*
X-875614Y-4105099D01*
X-824814Y-4054299D01*
X+209657Y-4054299D01*
X+330201Y-4174843D01*
X+330201Y-4365343D01*
X+524157Y-4559299D01*
X+1253843Y-4559299D01*
X+1447799Y-4365343D01*
X+1447799Y-4143657D01*
X+1253843Y-3949701D01*
X+872843Y-3949701D01*
X+812799Y-3889657D01*
X+812799Y-2111657D01*
X+226241Y-1525099D01*
X+228386Y-1525099D01*
X+325099Y-1428386D01*
X+325099Y-1320799D01*
X+778157Y-1320799D01*
X+838201Y-1380843D01*
X+838201Y-3476343D01*
X+1032157Y-3670299D01*
X+1825343Y-3670299D01*
X+2019299Y-3476343D01*
X+2019299Y-2484157D01*
X+1964299Y-2429157D01*
X+1964299Y-1760843D01*
X+1989505Y-1786049D01*
X+2110495Y-1786049D01*
X+2196049Y-1700495D01*
X+2196049Y-1579505D01*
X+2110495Y-1493951D01*
X+1989505Y-1493951D01*
X+1964299Y-1519157D01*
X+1964299Y-1380843D01*
X+1980299Y-1364843D01*
X+1980299Y-949186D01*
X+1993000Y-936485D01*
X+2051614Y-995099D01*
X+2188386Y-995099D01*
X+2285099Y-898386D01*
X+2285099Y-761614D01*
X+2272784Y-749299D01*
X+3413657Y-749299D01*
X+4130901Y-1466543D01*
X+4130901Y-1538386D01*
X+4227614Y-1635099D01*
X+4362759Y-1635099D01*
X+4334157Y-1663701D01*
X+4047843Y-1663701D01*
X+3920843Y-1536701D01*
X+3508343Y-1536701D01*
X+3445099Y-1473457D01*
X+3445099Y-1401614D01*
X+3348386Y-1304901D01*
X+3211614Y-1304901D01*
X+3114901Y-1401614D01*
X+3114901Y-1538386D01*
X+3211614Y-1635099D01*
X+3283457Y-1635099D01*
X+3413657Y-1765299D01*
X+3826157Y-1765299D01*
X+3886201Y-1825344D01*
X+3886201Y-2424657D01*
X+3881701Y-2429157D01*
X+3881701Y-3112201D01*
X+3818201Y-3112201D01*
X+3818201Y-3467799D01*
X+3881701Y-3467799D01*
X+3881701Y-3546657D01*
X+3446157Y-3982201D01*
X+3290299Y-3982201D01*
X+3290299Y-3762657D01*
X+3223343Y-3695701D01*
X+2937157Y-3695701D01*
X+2860299Y-3772559D01*
X+2860299Y-3459186D01*
X+2911099Y-3408386D01*
X+2911099Y-3271614D01*
X+2814386Y-3174901D01*
X+2677614Y-3174901D01*
X+2580901Y-3271614D01*
X+2580901Y-3408386D01*
X+2631701Y-3459186D01*
X+2631701Y-4095843D01*
X+2739559Y-4203701D01*
X+2556157Y-4203701D01*
X+2335701Y-4424157D01*
X+2335701Y-4542201D01*
X+2272201Y-4542201D01*
X+2272201Y-4605701D01*
X+2176657Y-4605701D01*
X+1720157Y-5062201D01*
X+1272201Y-5062201D01*
X+1272201Y-5125700D01*
X+1222657Y-5125700D01*
X+1032656Y-5315701D01*
X+881799Y-5315701D01*
X+881799Y-5252201D01*
X+818299Y-5252201D01*
X+818299Y-5192657D01*
X+751343Y-5125701D01*
X+337343Y-5125701D01*
X+244299Y-5032657D01*
X+244299Y-4379186D01*
X+295099Y-4328386D01*
X+295099Y-4191614D01*
X+198386Y-4094901D01*
X+61614Y-4094901D01*
X-35099Y-4191614D01*
X-35099Y-4328386D01*
X+15701Y-4379186D01*
X+15701Y-5127343D01*
X+204059Y-5315701D01*
X+32657Y-5315701D01*
X-47343Y-5395701D01*
X-208201Y-5395701D01*
X-208201Y-5332201D01*
X-271701Y-5332201D01*
X-271701Y-4583157D01*
X-524157Y-4330701D01*
X-3063657Y-4330701D01*
X-3158201Y-4236157D01*
X-3158201Y-4203843D01*
X-2997201Y-4042843D01*
X-2997201Y-2873657D01*
X-3124201Y-2746656D01*
X-3124201Y-2425843D01*
X-2664557Y-1966199D01*
X-2633585Y-1966199D01*
X-2563000Y-1895614D01*
X-2492415Y-1966199D01*
X-2379585Y-1966199D01*
X-2299801Y-1886415D01*
X-2299801Y-1773585D01*
X-2379585Y-1693801D01*
X-2492415Y-1693801D01*
X-2563000Y-1764386D01*
X-2575701Y-1751685D01*
X-2575701Y-1173761D01*
X-2488139Y-1086199D01*
X-2379585Y-1086199D01*
X-2299801Y-1006415D01*
X-2299801Y-893585D01*
X-2348523Y-844864D01*
X-1748700Y-245041D01*
X-1748700Y-87799D01*
X-1726299Y-87799D01*
X-1726299Y-2458500D01*
G37*
%TD.AperFunction*%
%LPC*%
G36*
X-1845725Y-3677352D02*
X-1845725Y-3677353D01*
X-1845701Y-3677377D01*
X-1845701Y-3820814D01*
X-1794901Y-3871614D01*
X-1794901Y-4008386D01*
X-1891614Y-4105099D01*
X-2028386Y-4105099D01*
X-2125099Y-4008386D01*
X-2125099Y-3871614D01*
X-2074299Y-3820814D01*
X-2074299Y-3772064D01*
X-2074323Y-3772040D01*
X-2074323Y-3677352D01*
X-2007368Y-3610397D01*
X-1912680Y-3610397D01*
X-1845725Y-3677352D01*
G37*
G36*
X-1978189Y-821361D02*
X-1978189Y-767901D01*
X-1940386Y-730098D01*
X-1886926Y-730098D01*
X-1849123Y-767901D01*
X-1849123Y-821361D01*
X-1886926Y-859164D01*
X-1940386Y-859164D01*
X-1978189Y-821361D01*
G37*
%LPD*%
D10*
X-470000Y+370000D02*
X-2068500Y+1968500D01*
X-2603500Y+1968500D01*
X-2730500Y+2095500D01*
X-2730500Y+2603500D01*
X-2603500Y+2730500D01*
X+889000Y+2730500D01*
X+1050000Y+2891500D01*
X+1050000Y+3850000D01*
X-216000Y+370000D02*
X-216000Y+2095500D01*
X-41500Y+2270000D01*
X+2660000Y+2270000D01*
X+38000Y+370000D02*
X+38000Y+825500D01*
X+165000Y+952500D01*
X+3247500Y+952500D01*
X+3660000Y+540000D01*
X+38000Y-392000D02*
X-163500Y-190500D01*
X-825500Y-190500D01*
X-952500Y-317500D01*
X-952500Y-919500D01*
X+160000Y-2032000D01*
X+160000Y-2376000D01*
X-216000Y-392000D02*
X+27000Y-635000D01*
X+3461000Y-635000D01*
X+4296000Y-1470000D01*
X+1730000Y-3340000D02*
X+1343709Y-2953709D01*
X+1343709Y-1206500D01*
X+1216709Y-1079500D01*
X+217500Y-1079500D01*
X-470000Y-392000D01*
X+292000Y+370000D02*
X+292000Y+571500D01*
X+419000Y+698500D01*
X+1079500Y+698500D01*
X+1206500Y+571500D01*
X+1206500Y+63500D01*
X+1079500Y-63500D01*
X-1016000Y-63500D01*
X-1143000Y-190500D01*
X-1143000Y-1143000D01*
X-127000Y-2159000D01*
X-127000Y-2866359D01*
X+571500Y-3564859D01*
X+571500Y-4127500D01*
X+704000Y-4260000D01*
X+1146000Y-4260000D01*
X+546000Y+370000D02*
X+546000Y+571500D01*
X+825500Y+571500D01*
X+952500Y+444500D01*
X+952500Y+190500D01*
X+825500Y+63500D01*
X-1143000Y+63500D01*
X-1270000Y-63500D01*
X-1270000Y-1968500D01*
X-635000Y-2603500D01*
X-635000Y-2857500D01*
X-777500Y-3000000D01*
X-2354000Y-3000000D01*
X+800000Y-392000D02*
X+3873500Y-392000D01*
X+4000500Y-265000D01*
X+4000500Y+1524000D01*
X+3873500Y+1651000D01*
X+3238500Y+1651000D01*
X+3111500Y+1778000D01*
X+3111500Y+3048000D01*
X+2984500Y+3175000D01*
X+1460500Y+3175000D01*
X+1333500Y+3302000D01*
X+1333500Y+3937000D01*
X+1206500Y+4064000D01*
X+762000Y+4064000D01*
X-444500Y+2857500D01*
X-2984500Y+2857500D01*
X-3154000Y+2688000D01*
X-3154000Y+720000D01*
X-2574000Y+2290000D02*
X-2387500Y+2476500D01*
X+2857500Y+2476500D01*
X+2984500Y+2349500D01*
X+2984500Y+1587500D01*
X+3158534Y+1413466D01*
X+3746500Y+1413466D01*
X+3873500Y+1286466D01*
X+3873500Y-63500D01*
X+3746500Y-190500D01*
X+747500Y-190500D01*
X+546000Y-392000D01*
X-2590000Y+3890000D02*
X-2416000Y+4064000D01*
X-1270000Y+4064000D01*
X-825500Y+4508500D01*
X+1333500Y+4508500D01*
X+1460500Y+4381500D01*
X+1460500Y+3556000D01*
X+1587500Y+3429000D01*
X+3238500Y+3429000D01*
X+3365500Y+3302000D01*
X+3365500Y+2095500D01*
X+3492500Y+1968500D01*
X+4000500Y+1968500D01*
X+4127500Y+1841500D01*
X+4127500Y-381000D01*
X+3976585Y-531915D01*
X+431915Y-531915D01*
X+292000Y-392000D01*
X-944000Y-3940000D02*
X-1410475Y-3473525D01*
X-2431975Y-3473525D01*
X-2603500Y-3302000D01*
X-2603500Y-2921000D01*
X-2476500Y-2794000D01*
X-1127000Y-2794000D01*
X-943000Y-2610000D01*
X+1850000Y-1640000D02*
X+1850000Y-1333500D01*
X+1866000Y-1317500D01*
X+1866000Y-830000D01*
X-944000Y-3940000D02*
X+257000Y-3940000D01*
X+444500Y-4127500D01*
X+444500Y-4318000D01*
X+571500Y-4445000D01*
X+1206500Y-4445000D01*
X+1333500Y-4318000D01*
X+1333500Y-4191000D01*
X+1206500Y-4064000D01*
X+825500Y-4064000D01*
X+698500Y-3937000D01*
X+698500Y-2159000D01*
X+0Y-1460500D01*
X+0Y-1333500D01*
X+1850000Y-1640000D02*
X+1850000Y-2476500D01*
X+1905000Y-2531500D01*
X+1905000Y-3429000D01*
X+1778000Y-3556000D01*
X+1079500Y-3556000D01*
X+952500Y-3429000D01*
X+952500Y-1333500D01*
X+825500Y-1206500D01*
X+0Y-1206500D01*
X+0Y-1333500D01*
X-724000Y-609500D01*
X-724000Y-392000D01*
X+4880000Y+2620000D02*
X+5190000Y+2310000D01*
X+5190000Y+1714500D01*
X+5400000Y+680000D02*
X+5400000Y+889000D01*
X+5651500Y+1140500D01*
X+5651500Y+1714500D01*
X+5190000Y+1714500D01*
X-5790000Y-90000D02*
X-5790000Y+127000D01*
X-5536000Y+127000D01*
X-5663000Y+317500D02*
X-5536000Y+190500D01*
X-5536000Y+127000D01*
X-5530000Y+1587500D02*
X-5276000Y+1587500D01*
X-5276000Y+1400000D01*
X-5651500Y+1841500D02*
X-5530000Y+1720000D01*
X-5530000Y+1587500D01*
X-2690000Y-1830000D02*
X-3238500Y-2378500D01*
X-3238500Y-2794000D01*
X-386000Y-5510000D02*
X-386000Y-4630500D01*
X-571500Y-4445000D01*
X-3111000Y-4445000D01*
X-3336000Y-4220000D01*
X-3500000Y+4290000D02*
X-3500000Y+4762500D01*
X-2738000Y+5524500D01*
X-2413000Y+5524500D01*
X-2222500Y+5715000D01*
X-952500Y+5715000D01*
X-687500Y+5450000D01*
X-390000Y+5450000D01*
X+5397500Y-63500D02*
X+4508500Y-952500D01*
X+4508500Y-1651000D01*
X+4381500Y-1778000D01*
X+4000500Y-1778000D01*
X-4290000Y+3230000D02*
X-3818500Y+3230000D01*
X-3683000Y+3365500D01*
X-3683000Y+4107000D01*
X-3500000Y+4290000D01*
X+4270000Y+3450000D02*
X+4270000Y+4127500D01*
X+3571500Y+4826000D01*
X+3429000Y+4826000D01*
X+3470000Y+4381500D02*
X+3470000Y+4785000D01*
X+3429000Y+4826000D01*
X-4586000Y-2740000D02*
X-4586000Y-1700500D01*
X-4762500Y-1524000D01*
X-5058501Y-1524000D01*
X-5376001Y-1206500D01*
X+4270000Y+3450000D02*
X+4880000Y+2840000D01*
X+4880000Y+2620000D01*
X-4699000Y+1968500D02*
X-4572000Y+1841500D01*
X-4038500Y+1841500D01*
X-3590000Y+2290000D01*
X+3996000Y-3290000D02*
X+3996000Y-3594000D01*
X+3430000Y-4160000D01*
X+2921000Y+4826000D02*
X+3429000Y+4826000D01*
X+2794000Y+5080000D02*
X+2794000Y+4953000D01*
X+2921000Y+4826000D01*
X-3336000Y-4220000D02*
X-3111500Y-3995500D01*
X-3111500Y-2921000D01*
X-3238500Y-2794000D01*
X+3996000Y-3290000D02*
X+3996000Y-2476500D01*
X+4000500Y-2472000D01*
X+4000500Y-1778000D01*
X+3810000Y-1651000D02*
X+3873500Y-1651000D01*
X+4000500Y-1778000D01*
X-3500000Y+4290000D02*
X-3947500Y+4290000D01*
X-4110000Y+4127500D01*
X-4110000Y+3800000D01*
X+5190000Y+1714500D02*
X+5190000Y+1540000D01*
X+2290000Y+5080000D02*
X+2290000Y+4074000D01*
X+2066000Y+3850000D01*
X-4686000Y+2610000D02*
X-4290000Y+3006000D01*
X-4290000Y+3230000D01*
X-5376000Y-950000D02*
X-5376000Y-317500D01*
X-5588000Y-317500D01*
X-5588000Y-444500D01*
X+1484000Y+5320000D02*
X+2290000Y+5320000D01*
X+2290000Y+5080000D01*
X-5376000Y-950000D02*
X-5376001Y-950001D01*
X-5376001Y-1206500D01*
X+310000Y+5420000D02*
X+310000Y+5588000D01*
X+1484000Y+5588000D01*
X+1484000Y+5320000D01*
X+3810000Y-1651000D02*
X+3461000Y-1651000D01*
X+3280000Y-1470000D01*
X-386000Y-5510000D02*
X+0Y-5510000D01*
X+80000Y-5430000D01*
X+450000Y-5430000D01*
X-5530000Y+1400000D02*
X-5530000Y+1587500D01*
X-5470000Y+690000D02*
X-5288000Y+508000D01*
X-4382000Y+508000D01*
X-4170000Y+720000D01*
X+310000Y+5420000D02*
X+63500Y+5420000D01*
X+63500Y+5651500D01*
X-390000Y+5651500D01*
X-390000Y+5450000D01*
X-4586000Y-2740000D02*
X-4264000Y-2740000D01*
X-4264000Y-2921000D01*
X+2921000Y+4826000D02*
X+2794000Y+4826000D01*
X+2794000Y+4610000D01*
X+2826000Y+4610000D01*
X-5536000Y+127000D02*
X-5536000Y-90000D01*
X-4686000Y+2610000D02*
X-4686000Y+2222500D01*
X-4699000Y+2209500D01*
X-4699000Y+1968500D01*
X+5400000Y+680000D02*
X+5400000Y+317500D01*
X+5397500Y+315000D01*
X+5397500Y-63500D01*
X-4264000Y-2921000D02*
X-4137000Y-2794000D01*
X-3238500Y-2794000D01*
X-4264000Y-2921000D02*
X-4264000Y-3530000D01*
X-5360000Y+2040000D02*
X-5360000Y+1841500D01*
X-4826000Y+1841500D01*
X-4699000Y+1968500D01*
X-5376001Y-1206500D02*
X-4806500Y-1206500D01*
X-4560000Y-960000D01*
X-5588000Y-444500D02*
X-5588000Y-529500D01*
X-5630000Y-571500D01*
X-5630000Y-950000D01*
X+2290000Y+5080000D02*
X+2794000Y+5080000D01*
X+3470000Y+4381500D02*
X+3470000Y+4110000D01*
X-5376001Y-1206500D02*
X-5630000Y-1206500D01*
X-5630000Y-1440000D01*
X-5330000Y-1740000D01*
X-5724000Y+690000D02*
X-5724000Y+378500D01*
X-5663000Y+317500D01*
X-3500000Y+4290000D02*
X-3500000Y+4000500D01*
X-3238500Y+4000500D01*
X-2794000Y+4445000D01*
X-2653000Y+4445000D01*
X-2526000Y+4572000D01*
X-2526000Y+4760000D01*
X+5397500Y-63500D02*
X+5531000Y-63500D01*
X+5658000Y-190500D01*
X+5658000Y-410000D01*
X-5790000Y-90000D02*
X-5790000Y-306000D01*
X-5651500Y-444500D01*
X-5588000Y-444500D01*
X-5724000Y+690000D02*
X-5724000Y+1206000D01*
X-5530000Y+1400000D01*
X-5360000Y+2040000D02*
X-5651500Y+2040000D01*
X-5651500Y+1841500D01*
X-5470000Y+690000D02*
X-5470000Y+444500D01*
X-5536000Y+378500D01*
X-5536000Y+317500D01*
X-5663000Y+317500D01*
X+1230000Y+5320000D02*
X+1230000Y+5080000D01*
X+2036000Y+5080000D01*
X+1230000Y+5320000D02*
X+862000Y+5320000D01*
X+762000Y+5420000D01*
X+564000Y+5420000D01*
X+3080000Y+3810000D02*
X+3080000Y+4610000D01*
X+2036000Y+5080000D02*
X+2036000Y+4699000D01*
X+1905000Y+4568000D01*
X+1905000Y+3683000D01*
X+2953000Y+3683000D01*
X+3080000Y+3810000D01*
X+3549000Y+3810000D01*
X+3676000Y+3683000D01*
X+3676000Y+2270000D01*
X+5080000Y+889000D02*
X+5444000Y+1253000D01*
X+5444000Y+1540000D01*
X+4016000Y+3450000D02*
X+4016000Y+3230000D01*
X+4626000Y+2620000D01*
X+4016000Y+3450000D02*
X+4016000Y+3818000D01*
X+3724000Y+4110000D01*
X+4626000Y+2620000D02*
X+4626000Y+1343000D01*
X+5080000Y+889000D01*
X+5080000Y+667000D01*
X+4953000Y+540000D01*
X+4676000Y+540000D01*
X+5404000Y-410000D02*
X+5404000Y-635000D01*
X+5842000Y-635000D01*
X+5842000Y+492000D01*
X+5654000Y+680000D01*
X+5200000Y-1280000D02*
X+5200000Y-2024000D01*
X+4954000Y-2270000D01*
X+5404000Y-410000D02*
X+5200000Y-614000D01*
X+5200000Y-1280000D01*
X+4762500Y-2476500D02*
X+5327000Y-2476500D01*
X+5454000Y-2349500D01*
X+5454000Y-1280000D01*
X+4250000Y-3290000D02*
X+4762500Y-2777500D01*
X+4762500Y-2476500D01*
X+4250000Y-3290000D02*
X+4250000Y-4195500D01*
X+4064000Y-4381500D01*
X+3176000Y-4381500D01*
X+3176000Y-4160000D01*
X+4762500Y-2349500D02*
X+4762500Y-2476500D01*
X+2450000Y-4720000D02*
X+2224000Y-4720000D01*
X+1704000Y-5240000D01*
X+2857500Y-4160000D02*
X+2746000Y-4048500D01*
X+2746000Y-3340000D01*
X+4762500Y-2349500D02*
X+4762500Y-2270000D01*
X+4700000Y-2270000D01*
X+2450000Y-4720000D02*
X+2450000Y-4471500D01*
X+2603500Y-4318000D01*
X+2984500Y-4318000D01*
X+2984500Y-4160000D01*
X+2857500Y-4160000D01*
X+3176000Y-4160000D02*
X+3176000Y-3810000D01*
X+2984500Y-3810000D01*
X+2857500Y-3937000D01*
X+2857500Y-4160000D01*
X+1450000Y-5240000D02*
X+1450000Y-5461000D01*
X+2577000Y-5461000D01*
X+2704000Y-5334000D01*
X+2704000Y-4720000D01*
X+704000Y-5430000D02*
X+704000Y-5240000D01*
X+290000Y-5240000D01*
X+130000Y-5080000D01*
X+130000Y-4260000D01*
X-1720000Y-5250000D02*
X-2026000Y-5250000D01*
X-2506000Y-4770000D01*
X-640000Y-5510000D02*
X-1720000Y-5510000D01*
X-1720000Y-5250000D01*
X+704000Y-5430000D02*
X+704000Y-5709500D01*
X+571500Y-5842000D01*
X-513000Y-5842000D01*
X-640000Y-5715000D01*
X-640000Y-5510000D01*
X+1450000Y-5240000D02*
X+1449999Y-5239999D01*
X+1270000Y-5239999D01*
X+1079999Y-5430000D01*
X+704000Y-5430000D01*
X-2760000Y-4770000D02*
X-2760000Y-4572000D01*
X-1593000Y-4572000D01*
X-1466000Y-4699000D01*
X-1466000Y-5250000D01*
X-4010000Y-3530000D02*
X-4010000Y-3136500D01*
X-3873500Y-3000000D01*
X-3370000Y-3000000D01*
X-4840000Y-2740000D02*
X-4840000Y-1976000D01*
X-5076000Y-1740000D01*
X-2760000Y-4770000D02*
X-3455500Y-4770000D01*
X-3590000Y-4635500D01*
X-3590000Y-4220000D01*
X-3590000Y-3950000D01*
X-4010000Y-3530000D01*
X-4010000Y-3810000D01*
X-4713000Y-3810000D01*
X-4840000Y-3683000D01*
X-4840000Y-2740000D01*
X-4544000Y+3230000D02*
X-4544000Y+3429000D01*
X-3983000Y+3429000D01*
X-3856000Y+3556000D01*
X-3856000Y+3800000D01*
X-4940000Y+2610000D02*
X-4940000Y+2834000D01*
X-4544000Y+3230000D01*
X-4940000Y+2610000D02*
X-5106000Y+2444000D01*
X-5106000Y+2040000D01*
X-2780000Y+4760000D02*
X-2780000Y+4983500D01*
X-2603500Y+5160000D01*
X-2100000Y+5160000D01*
X-2100000Y+5456500D01*
X-1968500Y+5588000D01*
X-986000Y+5588000D01*
X-986000Y+5400000D01*
X-2780000Y+4760000D02*
X-3058000Y+4760000D01*
X-3246000Y+4572000D01*
X-3246000Y+4290000D01*
X-2857500Y+3810000D02*
X-3302000Y+3810000D01*
X-3429000Y+3683000D01*
X-3429000Y+444500D01*
X-2566000Y+444500D01*
X-2566000Y+260000D01*
X-1846000Y+5160000D02*
X-1846000Y+4377000D01*
X-2032000Y+4191000D01*
X-2730500Y+4191000D01*
X-2857500Y+4064000D01*
X-2857500Y+3810000D01*
X-2730500Y+3683000D01*
X-1781000Y+3683000D01*
X-1574000Y+3890000D01*
X-1846000Y+5160000D02*
X-1606000Y+5400000D01*
X-1240000Y+5400000D01*
X-1240000Y+5080000D01*
X-263000Y+5080000D01*
X-136000Y+5207000D01*
X-136000Y+5450000D01*
X-2820000Y+260000D02*
X-3873500Y+260000D01*
X-4000500Y+133000D01*
X-4000500Y-1651000D01*
X-3821500Y-1830000D01*
X-2944000Y-1830000D01*
X-640000Y+4300000D02*
X-1574500Y+3365500D01*
X-3175000Y+3365500D01*
X-3316900Y+3223600D01*
X-3316900Y+556850D01*
X-2476500Y+556850D01*
X-2349500Y+429850D01*
X-2349500Y+0D01*
X-2476500Y-127000D01*
X-3619500Y-127000D01*
X-3746500Y-254000D01*
X-3746500Y-1016000D01*
X-3619500Y-1143000D01*
X-2883000Y-1143000D01*
X-2690000Y-950000D01*
X-1197000Y-2610000D02*
X-1460500Y-2610000D01*
X-1612000Y-2458500D01*
X-1612000Y+90000D01*
D11*
X-2436000Y-950000D02*
X-2286000Y-1100000D01*
X-2286000Y-2095500D01*
X-2794000Y-2603500D01*
X-2794000Y-4000500D01*
X-2667000Y-4127500D01*
X-698500Y-4127500D01*
X-635000Y-4064000D01*
X+190500Y-4064000D01*
X+317500Y-4191000D01*
X+317500Y-4572000D01*
X+444500Y-4699000D01*
X+1460500Y-4699000D01*
X+1587500Y-4572000D01*
X+1587500Y-3810000D01*
X+2050000Y-1640000D02*
X+2050000Y-3665000D01*
X+1905000Y-3810000D01*
X+1587500Y-3810000D01*
X+952500Y-3810000D01*
X+825500Y-3683000D01*
X+825500Y-1487000D01*
X+698500Y-1360000D01*
X+160000Y-1360000D01*
X+2050000Y-1640000D02*
X+2050000Y-1333500D01*
X+2120000Y-1263500D01*
X+2120000Y-830000D01*
D10*
X-2690000Y-1830000D02*
X-2690000Y-1126418D01*
X-2559450Y-995868D01*
X-2559450Y-894149D01*
X-1862998Y-197697D01*
X-1862998Y+86998D01*
X-1866000Y+90000D01*
X-1960000Y-3940000D02*
X-1960000Y-3724720D01*
X-1960024Y-3724696D01*
X-1953444Y-3296976D02*
X-766976Y-3296976D01*
X-360000Y-2890000D01*
X-360000Y-2633375D01*
X-844662Y-2148713D01*
X-884145Y-2148713D01*
X-1367796Y-2145423D02*
X-1070000Y-2443219D01*
X-1070000Y-2483000D01*
X-880623Y+3594622D02*
X-329378Y+3594622D01*
X+376000Y+4300000D01*
X+800000Y+370000D02*
X+620500Y+190500D01*
X-1206500Y+190500D01*
X-1271334Y+255334D01*
X-2157666Y+255334D01*
X-2222500Y+190500D01*
X-2222500Y-254000D01*
X-2349500Y-381000D01*
X-2965000Y-381000D01*
X-3544000Y-960000D01*
D11*
X-724000Y+370000D02*
X-2136029Y+370000D01*
X-2145340Y+370000D01*
X-2145805Y+369535D01*
X-1913656Y-794631D02*
X-2069025Y-950000D01*
X-2436000Y-950000D01*
D12*
X-1960024Y-3724696D03*
X-1953444Y-3296976D03*
X-884145Y-2148713D03*
X-1367796Y-2145423D03*
X-880623Y+3594622D03*
X-2145805Y+369535D03*
X-1913656Y-794631D03*
D11*
X-2811321Y+2684321D02*
X-2844799Y+2650843D01*
X-2844799Y+2048157D01*
X-2650843Y+1854201D01*
X-2115843Y+1854201D01*
X-782771Y+521129D01*
X-786600Y+521129D01*
X-875129Y+432600D01*
X-875129Y+307400D01*
X-872528Y+304799D01*
X-1159157Y+304799D01*
X-1223991Y+369633D01*
X-2081272Y+369633D01*
X-2081272Y+396265D01*
X-2119075Y+434068D01*
X-2172535Y+434068D01*
X-2210338Y+396265D01*
X-2210338Y+364304D01*
X-2235201Y+339441D01*
X-2235201Y+477193D01*
X-2429157Y+671149D01*
X-2988901Y+671149D01*
X-2988901Y+788386D01*
X-3039701Y+839186D01*
X-3039701Y+2640657D01*
X-2937157Y+2743201D01*
X-2752441Y+2743201D01*
X-2811321Y+2684321D01*
X-1726299Y-2458500D02*
X-1726299Y-2505843D01*
X-1552441Y-2679701D01*
X-2523843Y-2679701D01*
X-2717799Y-2873657D01*
X-2717799Y-3349343D01*
X-2479318Y-3587824D01*
X-1457818Y-3587824D01*
X-1109099Y-3936543D01*
X-1109099Y-4008386D01*
X-1012386Y-4105099D01*
X-875614Y-4105099D01*
X-824814Y-4054299D01*
X+209657Y-4054299D01*
X+330201Y-4174843D01*
X+330201Y-4365343D01*
X+524157Y-4559299D01*
X+1253843Y-4559299D01*
X+1447799Y-4365343D01*
X+1447799Y-4143657D01*
X+1253843Y-3949701D01*
X+872843Y-3949701D01*
X+812799Y-3889657D01*
X+812799Y-2111657D01*
X+226241Y-1525099D01*
X+228386Y-1525099D01*
X+325099Y-1428386D01*
X+325099Y-1320799D01*
X+778157Y-1320799D01*
X+838201Y-1380843D01*
X+838201Y-3476343D01*
X+1032157Y-3670299D01*
X+1825343Y-3670299D01*
X+2019299Y-3476343D01*
X+2019299Y-2484157D01*
X+1964299Y-2429157D01*
X+1964299Y-1760843D01*
X+1989505Y-1786049D01*
X+2110495Y-1786049D01*
X+2196049Y-1700495D01*
X+2196049Y-1579505D01*
X+2110495Y-1493951D01*
X+1989505Y-1493951D01*
X+1964299Y-1519157D01*
X+1964299Y-1380843D01*
X+1980299Y-1364843D01*
X+1980299Y-949186D01*
X+1993000Y-936485D01*
X+2051614Y-995099D01*
X+2188386Y-995099D01*
X+2285099Y-898386D01*
X+2285099Y-761614D01*
X+2272784Y-749299D01*
X+3413657Y-749299D01*
X+4130901Y-1466543D01*
X+4130901Y-1538386D01*
X+4227614Y-1635099D01*
X+4362759Y-1635099D01*
X+4334157Y-1663701D01*
X+4047843Y-1663701D01*
X+3920843Y-1536701D01*
X+3508343Y-1536701D01*
X+3445099Y-1473457D01*
X+3445099Y-1401614D01*
X+3348386Y-1304901D01*
X+3211614Y-1304901D01*
X+3114901Y-1401614D01*
X+3114901Y-1538386D01*
X+3211614Y-1635099D01*
X+3283457Y-1635099D01*
X+3413657Y-1765299D01*
X+3826157Y-1765299D01*
X+3886201Y-1825344D01*
X+3886201Y-2424657D01*
X+3881701Y-2429157D01*
X+3881701Y-3112201D01*
X+3818201Y-3112201D01*
X+3818201Y-3467799D01*
X+3881701Y-3467799D01*
X+3881701Y-3546657D01*
X+3446157Y-3982201D01*
X+3290299Y-3982201D01*
X+3290299Y-3762657D01*
X+3223343Y-3695701D01*
X+2937157Y-3695701D01*
X+2860299Y-3772559D01*
X+2860299Y-3459186D01*
X+2911099Y-3408386D01*
X+2911099Y-3271614D01*
X+2814386Y-3174901D01*
X+2677614Y-3174901D01*
X+2580901Y-3271614D01*
X+2580901Y-3408386D01*
X+2631701Y-3459186D01*
X+2631701Y-4095843D01*
X+2739559Y-4203701D01*
X+2556157Y-4203701D01*
X+2335701Y-4424157D01*
X+2335701Y-4542201D01*
X+2272201Y-4542201D01*
X+2272201Y-4605701D01*
X+2176657Y-4605701D01*
X+1720157Y-5062201D01*
X+1272201Y-5062201D01*
X+1272201Y-5125700D01*
X+1222657Y-5125700D01*
X+1032656Y-5315701D01*
X+881799Y-5315701D01*
X+881799Y-5252201D01*
X+818299Y-5252201D01*
X+818299Y-5192657D01*
X+751343Y-5125701D01*
X+337343Y-5125701D01*
X+244299Y-5032657D01*
X+244299Y-4379186D01*
X+295099Y-4328386D01*
X+295099Y-4191614D01*
X+198386Y-4094901D01*
X+61614Y-4094901D01*
X-35099Y-4191614D01*
X-35099Y-4328386D01*
X+15701Y-4379186D01*
X+15701Y-5127343D01*
X+204059Y-5315701D01*
X+32657Y-5315701D01*
X-47343Y-5395701D01*
X-208201Y-5395701D01*
X-208201Y-5332201D01*
X-271701Y-5332201D01*
X-271701Y-4583157D01*
X-524157Y-4330701D01*
X-3063657Y-4330701D01*
X-3158201Y-4236157D01*
X-3158201Y-4203843D01*
X-2997201Y-4042843D01*
X-2997201Y-2873657D01*
X-3124201Y-2746656D01*
X-3124201Y-2425843D01*
X-2664557Y-1966199D01*
X-2633585Y-1966199D01*
X-2563000Y-1895614D01*
X-2492415Y-1966199D01*
X-2379585Y-1966199D01*
X-2299801Y-1886415D01*
X-2299801Y-1773585D01*
X-2379585Y-1693801D01*
X-2492415Y-1693801D01*
X-2563000Y-1764386D01*
X-2575701Y-1751685D01*
X-2575701Y-1173761D01*
X-2488139Y-1086199D01*
X-2379585Y-1086199D01*
X-2299801Y-1006415D01*
X-2299801Y-893585D01*
X-2348523Y-844864D01*
X-1748700Y-245041D01*
X-1748700Y-87799D01*
X-1726299Y-87799D01*
X-1726299Y-2458500D01*
X-1845725Y-3677352D02*
X-1845725Y-3677353D01*
X-1845701Y-3677377D01*
X-1845701Y-3820814D01*
X-1794901Y-3871614D01*
X-1794901Y-4008386D01*
X-1891614Y-4105099D01*
X-2028386Y-4105099D01*
X-2125099Y-4008386D01*
X-2125099Y-3871614D01*
X-2074299Y-3820814D01*
X-2074299Y-3772064D01*
X-2074323Y-3772040D01*
X-2074323Y-3677352D01*
X-2007368Y-3610397D01*
X-1912680Y-3610397D01*
X-1845725Y-3677352D01*
X-1978189Y-821361D02*
X-1978189Y-767901D01*
X-1940386Y-730098D01*
X-1886926Y-730098D01*
X-1849123Y-767901D01*
X-1849123Y-821361D01*
X-1886926Y-859164D01*
X-1940386Y-859164D01*
X-1978189Y-821361D01*
D20*
X-824329Y+370000D02*
X-724000Y+370000D01*
X-2436000Y-1035399D02*
X-2436000Y-950000D01*
X-2350601Y-950000D02*
X-2436000Y-950000D01*
X+2145249Y-1640000D02*
X+2050000Y-1640000D01*
X+2050000Y-1735249D02*
X+2050000Y-1640000D01*
X+2050000Y-1544751D02*
X+2050000Y-1640000D01*
X+2234299Y-830000D02*
X+2120000Y-830000D01*
X+2120000Y-944299D02*
X+2120000Y-830000D01*
X+274299Y-1360000D02*
X+160000Y-1360000D01*
D13*
X-724000Y-392000D03*
D14*
X-470000Y-392000D03*
X-216000Y-392000D03*
X+38000Y-392000D03*
X+292000Y-392000D03*
X+546000Y-392000D03*
X+800000Y-392000D03*
X+800000Y+370000D03*
X+546000Y+370000D03*
X+292000Y+370000D03*
X+38000Y+370000D03*
X-216000Y+370000D03*
X-470000Y+370000D03*
X-724000Y+370000D03*
D15*
X-2944000Y-1830000D03*
D16*
X-2690000Y-1830000D03*
X-2436000Y-1830000D03*
X-2436000Y-950000D03*
X-2690000Y-950000D03*
X-2944000Y-950000D03*
D17*
X-1612000Y+90000D03*
X-1866000Y+90000D03*
X-2820000Y+260000D03*
X-2566000Y+260000D03*
X+310000Y+5420000D03*
X+564000Y+5420000D03*
X+1230000Y+5320000D03*
X+1484000Y+5320000D03*
X+2036000Y+5080000D03*
X+2290000Y+5080000D03*
X+2826000Y+4610000D03*
X+3080000Y+4610000D03*
X+3470000Y+4110000D03*
X+3724000Y+4110000D03*
X+4016000Y+3450000D03*
X+4270000Y+3450000D03*
X+4626000Y+2620000D03*
X+4880000Y+2620000D03*
X+5190000Y+1540000D03*
X+5444000Y+1540000D03*
X+5400000Y+680000D03*
X+5654000Y+680000D03*
X+5404000Y-410000D03*
X+5658000Y-410000D03*
X+5200000Y-1280000D03*
X+5454000Y-1280000D03*
X+4700000Y-2270000D03*
X+4954000Y-2270000D03*
X+3996000Y-3290000D03*
X+4250000Y-3290000D03*
X+3176000Y-4160000D03*
X+3430000Y-4160000D03*
X+2450000Y-4720000D03*
X+2704000Y-4720000D03*
X+1450000Y-5240000D03*
X+1704000Y-5240000D03*
X+450000Y-5430000D03*
X+704000Y-5430000D03*
X-640000Y-5510000D03*
X-386000Y-5510000D03*
X-1720000Y-5250000D03*
X-1466000Y-5250000D03*
X-2760000Y-4770000D03*
X-2506000Y-4770000D03*
X-3590000Y-4220000D03*
X-3336000Y-4220000D03*
X-4264000Y-3530000D03*
X-4010000Y-3530000D03*
X-4840000Y-2740000D03*
X-4586000Y-2740000D03*
X-5330000Y-1740000D03*
X-5076000Y-1740000D03*
X-5630000Y-950000D03*
X-5376000Y-950000D03*
X-5790000Y-90000D03*
X-5536000Y-90000D03*
X-5724000Y+690000D03*
X-5470000Y+690000D03*
X-5530000Y+1400000D03*
X-5276000Y+1400000D03*
X-5360000Y+2040000D03*
X-5106000Y+2040000D03*
X-4940000Y+2610000D03*
X-4686000Y+2610000D03*
X-4544000Y+3230000D03*
X-4290000Y+3230000D03*
X-4110000Y+3800000D03*
X-3856000Y+3800000D03*
X-3500000Y+4290000D03*
X-3246000Y+4290000D03*
X-2780000Y+4760000D03*
X-2526000Y+4760000D03*
X-2100000Y+5160000D03*
X-1846000Y+5160000D03*
X-1240000Y+5400000D03*
X-986000Y+5400000D03*
X-390000Y+5450000D03*
X-136000Y+5450000D03*
D18*
X+1850000Y-1640000D03*
X+2050000Y-1640000D03*
D19*
X-1197000Y-2610000D03*
X-1070000Y-2483000D03*
X-943000Y-2610000D03*
D70*
X+2120000Y-830000D03*
X+1866000Y-830000D03*
X+160000Y-1360000D03*
X+160000Y-2376000D03*
X+1050000Y+3850000D03*
X+2066000Y+3850000D03*
X+2660000Y+2270000D03*
X+3676000Y+2270000D03*
X+3660000Y+540000D03*
X+4676000Y+540000D03*
X+3280000Y-1470000D03*
X+4296000Y-1470000D03*
X+1730000Y-3340000D03*
X+2746000Y-3340000D03*
X+130000Y-4260000D03*
X+1146000Y-4260000D03*
X-3370000Y-3000000D03*
X-2354000Y-3000000D03*
X-4560000Y-960000D03*
X-3544000Y-960000D03*
X-4170000Y+720000D03*
X-3154000Y+720000D03*
X-3590000Y+2290000D03*
X-2574000Y+2290000D03*
X-2590000Y+3890000D03*
X-1574000Y+3890000D03*
X-640000Y+4300000D03*
X+376000Y+4300000D03*
X-1960000Y-3940000D03*
X-944000Y-3940000D03*
D71*
X+6517204Y-40000D02*
X+6510628Y+252247D01*
X+6457778Y+836742D01*
X+6350754Y+1421237D01*
X+6186737Y+2005732D01*
X+5961007Y+2590227D01*
X+5666169Y+3174722D01*
X+5290637Y+3759217D01*
X+4815490Y+4343712D01*
X+4240227Y+4899974D01*
X+3655732Y+5344711D01*
X+3071237Y+5696167D01*
X+2486742Y+5970727D01*
X+1902247Y+6178586D01*
X+1317752Y+6326278D01*
X+733257Y+6417935D01*
X+148762Y+6455928D01*
X+20000Y+6457204D01*
X-6477204Y-40000D02*
X-6470628Y+252247D01*
X-6417778Y+836742D01*
X-6310754Y+1421237D01*
X-6146737Y+2005732D01*
X-5921007Y+2590227D01*
X-5626169Y+3174722D01*
X-5250637Y+3759217D01*
X-4775490Y+4343712D01*
X-4200227Y+4899974D01*
X-3615732Y+5344711D01*
X-3031237Y+5696167D01*
X-2446742Y+5970727D01*
X-1862247Y+6178586D01*
X-1277752Y+6326278D01*
X-693257Y+6417935D01*
X-108762Y+6455928D01*
X+20000Y+6457204D01*
X-6477204Y-40000D02*
X-6470628Y-332247D01*
X-6417778Y-916742D01*
X-6310754Y-1501237D01*
X-6146737Y-2085732D01*
X-5921007Y-2670227D01*
X-5626169Y-3254722D01*
X-5250637Y-3839217D01*
X-4775490Y-4423712D01*
X-4200227Y-4979974D01*
X-3615732Y-5424711D01*
X-3031237Y-5776167D01*
X-2446742Y-6050727D01*
X-1862247Y-6258586D01*
X-1277752Y-6406278D01*
X-693257Y-6497935D01*
X-108762Y-6535928D01*
X+20000Y-6537204D01*
X+6517204Y-40000D02*
X+6510628Y-332247D01*
X+6457778Y-916742D01*
X+6350754Y-1501237D01*
X+6186737Y-2085732D01*
X+5961007Y-2670227D01*
X+5666169Y-3254722D01*
X+5290637Y-3839217D01*
X+4815490Y-4423712D01*
X+4240227Y-4979974D01*
X+3655732Y-5424711D01*
X+3071237Y-5776167D01*
X+2486742Y-6050727D01*
X+1902247Y-6258586D01*
X+1317752Y-6406278D01*
X+733257Y-6497935D01*
X+148762Y-6535928D01*
X+20000Y-6537204D01*
M02*
