G04 PROTEUS GERBER X2 FILE*
%TF.GenerationSoftware,Labcenter,Proteus,8.17-SP2-Build37159*%
%TF.CreationDate,2024-06-19T13:44:36+00:00*%
%TF.FileFunction,Legend,Top*%
%TF.FilePolarity,Positive*%
%TF.Part,Single*%
%TF.SameCoordinates,{1d89ed81-d2fc-43df-ac84-501309ecc539}*%
%FSLAX45Y45*%
%MOMM*%
G01*
%TA.AperFunction,Profile*%
%ADD71C,0.101600*%
%TA.AperFunction,Material*%
%ADD21C,0.152400*%
%ADD22C,0.101600*%
%ADD23C,0.127000*%
%ADD24C,0.300000*%
%ADD25C,0.508000*%
%TD.AperFunction*%
D71*
X+6517204Y-40000D02*
X+6510628Y+252247D01*
X+6457778Y+836742D01*
X+6350754Y+1421237D01*
X+6186737Y+2005732D01*
X+5961007Y+2590227D01*
X+5666169Y+3174722D01*
X+5290637Y+3759217D01*
X+4815490Y+4343712D01*
X+4240227Y+4899974D01*
X+3655732Y+5344711D01*
X+3071237Y+5696167D01*
X+2486742Y+5970727D01*
X+1902247Y+6178586D01*
X+1317752Y+6326278D01*
X+733257Y+6417935D01*
X+148762Y+6455928D01*
X+20000Y+6457204D01*
X-6477204Y-40000D02*
X-6470628Y+252247D01*
X-6417778Y+836742D01*
X-6310754Y+1421237D01*
X-6146737Y+2005732D01*
X-5921007Y+2590227D01*
X-5626169Y+3174722D01*
X-5250637Y+3759217D01*
X-4775490Y+4343712D01*
X-4200227Y+4899974D01*
X-3615732Y+5344711D01*
X-3031237Y+5696167D01*
X-2446742Y+5970727D01*
X-1862247Y+6178586D01*
X-1277752Y+6326278D01*
X-693257Y+6417935D01*
X-108762Y+6455928D01*
X+20000Y+6457204D01*
X-6477204Y-40000D02*
X-6470628Y-332247D01*
X-6417778Y-916742D01*
X-6310754Y-1501237D01*
X-6146737Y-2085732D01*
X-5921007Y-2670227D01*
X-5626169Y-3254722D01*
X-5250637Y-3839217D01*
X-4775490Y-4423712D01*
X-4200227Y-4979974D01*
X-3615732Y-5424711D01*
X-3031237Y-5776167D01*
X-2446742Y-6050727D01*
X-1862247Y-6258586D01*
X-1277752Y-6406278D01*
X-693257Y-6497935D01*
X-108762Y-6535928D01*
X+20000Y-6537204D01*
X+6517204Y-40000D02*
X+6510628Y-332247D01*
X+6457778Y-916742D01*
X+6350754Y-1501237D01*
X+6186737Y-2085732D01*
X+5961007Y-2670227D01*
X+5666169Y-3254722D01*
X+5290637Y-3839217D01*
X+4815490Y-4423712D01*
X+4240227Y-4979974D01*
X+3655732Y-5424711D01*
X+3071237Y-5776167D01*
X+2486742Y-6050727D01*
X+1902247Y-6258586D01*
X+1317752Y-6406278D01*
X+733257Y-6497935D01*
X+148762Y-6535928D01*
X+20000Y-6537204D01*
D21*
X-820520Y+319200D02*
X-927200Y+319200D01*
X-566520Y+319200D02*
X-627480Y+319200D01*
X-312520Y+319200D02*
X-373480Y+319200D01*
X-58520Y+319200D02*
X-119480Y+319200D01*
X+195480Y+319200D02*
X+134520Y+319200D01*
X+1003200Y-341200D02*
X+1003200Y+319200D01*
X+896520Y+319200D01*
X-927200Y+319200D02*
X-927200Y+19480D01*
X-927200Y-41480D01*
X-927200Y-341200D01*
X-833220Y-341200D01*
X-614780Y-341200D02*
X-566520Y-341200D01*
X-373480Y-341200D02*
X-312520Y-341200D01*
X-119480Y-341200D02*
X-58520Y-341200D01*
X+134520Y-341200D02*
X+195480Y-341200D01*
X+388520Y-341200D02*
X+449480Y-341200D01*
X+642520Y-341200D02*
X+703480Y-341200D01*
X+896520Y-341200D02*
X+1003200Y-341200D01*
X+703480Y+319200D02*
X+642520Y+319200D01*
X+449480Y+319200D02*
X+388520Y+319200D01*
X-927200Y+19480D02*
X-915336Y+17084D01*
X-905648Y+10552D01*
X-899116Y+864D01*
X-896720Y-11000D01*
X-899116Y-22863D01*
X-905648Y-32552D01*
X-915336Y-39084D01*
X-927200Y-41480D01*
D22*
X-1036420Y-117680D02*
X-972920Y-117680D01*
X-960220Y-104345D01*
X-960220Y-51005D01*
X-972920Y-37670D01*
X-1036420Y-37670D01*
X-1011020Y+15670D02*
X-1036420Y+42340D01*
X-960220Y+42340D01*
D23*
X-3080000Y-1740012D02*
X-3080000Y-1039988D01*
X-2300000Y-1039988D01*
X-2300000Y-1740012D01*
X-3080000Y-1740012D01*
D24*
X-2929000Y-2025000D02*
X-2929052Y-2023753D01*
X-2929474Y-2021258D01*
X-2930358Y-2018763D01*
X-2931804Y-2016268D01*
X-2934014Y-2013807D01*
X-2936509Y-2012004D01*
X-2939004Y-2010856D01*
X-2941499Y-2010210D01*
X-2943994Y-2010000D01*
X-2944000Y-2010000D01*
X-2959000Y-2025000D02*
X-2958948Y-2023753D01*
X-2958526Y-2021258D01*
X-2957642Y-2018763D01*
X-2956196Y-2016268D01*
X-2953986Y-2013807D01*
X-2951491Y-2012004D01*
X-2948996Y-2010856D01*
X-2946501Y-2010210D01*
X-2944006Y-2010000D01*
X-2944000Y-2010000D01*
X-2959000Y-2025000D02*
X-2958948Y-2026247D01*
X-2958526Y-2028742D01*
X-2957642Y-2031237D01*
X-2956196Y-2033732D01*
X-2953986Y-2036193D01*
X-2951491Y-2037996D01*
X-2948996Y-2039144D01*
X-2946501Y-2039790D01*
X-2944006Y-2040000D01*
X-2944000Y-2040000D01*
X-2929000Y-2025000D02*
X-2929052Y-2026247D01*
X-2929474Y-2028742D01*
X-2930358Y-2031237D01*
X-2931804Y-2033732D01*
X-2934014Y-2036193D01*
X-2936509Y-2037996D01*
X-2939004Y-2039144D01*
X-2941499Y-2039790D01*
X-2943994Y-2040000D01*
X-2944000Y-2040000D01*
D22*
X-3187950Y-1565430D02*
X-3124450Y-1565430D01*
X-3111750Y-1552095D01*
X-3111750Y-1498755D01*
X-3124450Y-1485420D01*
X-3187950Y-1485420D01*
X-3175250Y-1445415D02*
X-3187950Y-1432080D01*
X-3187950Y-1392075D01*
X-3175250Y-1378740D01*
X-3162550Y-1378740D01*
X-3149850Y-1392075D01*
X-3149850Y-1432080D01*
X-3137150Y-1445415D01*
X-3111750Y-1445415D01*
X-3111750Y-1378740D01*
X-1993000Y-37000D02*
X-1485000Y-37000D01*
X-1485000Y+217000D01*
X-1993000Y+217000D01*
X-1993000Y-37000D01*
X-1952360Y-143680D02*
X-1952360Y-67480D01*
X-1885685Y-67480D01*
X-1872350Y-80180D01*
X-1872350Y-92880D01*
X-1885685Y-105580D01*
X-1872350Y-118280D01*
X-1872350Y-130980D01*
X-1885685Y-143680D01*
X-1952360Y-143680D01*
X-1952360Y-105580D02*
X-1885685Y-105580D01*
X-1845680Y-67480D02*
X-1845680Y-130980D01*
X-1832345Y-143680D01*
X-1779005Y-143680D01*
X-1765670Y-130980D01*
X-1765670Y-67480D01*
X-1739000Y-67480D02*
X-1658990Y-67480D01*
X-1739000Y-143680D01*
X-1658990Y-143680D01*
X-1605650Y-92880D02*
X-1578980Y-67480D01*
X-1578980Y-143680D01*
X-2947000Y+133000D02*
X-2439000Y+133000D01*
X-2439000Y+387000D01*
X-2947000Y+387000D01*
X-2947000Y+133000D01*
X-2853020Y+442880D02*
X-2853020Y+430180D01*
X-2839685Y+417480D01*
X-2786345Y+417480D01*
X-2773010Y+430180D01*
X-2773010Y+493680D01*
X-2746340Y+417480D02*
X-2746340Y+493680D01*
X-2679665Y+493680D01*
X-2666330Y+480980D01*
X-2666330Y+468280D01*
X-2679665Y+455580D01*
X-2746340Y+455580D01*
X-2612990Y+468280D02*
X-2586320Y+493680D01*
X-2586320Y+417480D01*
X+691000Y+5420000D02*
X+690173Y+5440483D01*
X+683455Y+5481450D01*
X+669437Y+5522417D01*
X+646659Y+5563384D01*
X+611859Y+5604229D01*
X+570892Y+5635845D01*
X+529925Y+5656392D01*
X+488958Y+5668629D01*
X+447991Y+5673762D01*
X+437000Y+5674000D01*
X+183000Y+5420000D02*
X+183827Y+5440483D01*
X+190545Y+5481450D01*
X+204563Y+5522417D01*
X+227341Y+5563384D01*
X+262141Y+5604229D01*
X+303108Y+5635845D01*
X+344075Y+5656392D01*
X+385042Y+5668629D01*
X+426009Y+5673762D01*
X+437000Y+5674000D01*
X+183000Y+5420000D02*
X+183827Y+5399517D01*
X+190545Y+5358550D01*
X+204563Y+5317583D01*
X+227341Y+5276616D01*
X+262141Y+5235771D01*
X+303108Y+5204155D01*
X+344075Y+5183608D01*
X+385042Y+5171371D01*
X+426009Y+5166238D01*
X+437000Y+5166000D01*
X+691000Y+5420000D02*
X+690173Y+5399517D01*
X+683455Y+5358550D01*
X+669437Y+5317583D01*
X+646659Y+5276616D01*
X+611859Y+5235771D01*
X+570892Y+5204155D01*
X+529925Y+5183608D01*
X+488958Y+5171371D01*
X+447991Y+5166238D01*
X+437000Y+5166000D01*
X+119500Y+5674000D02*
X+246500Y+5674000D01*
X+183000Y+5737500D02*
X+183000Y+5610500D01*
X+298570Y+5767980D02*
X+298570Y+5844180D01*
X+351910Y+5844180D01*
X+378580Y+5818780D01*
X+378580Y+5793380D01*
X+351910Y+5767980D01*
X+298570Y+5767980D01*
X+431920Y+5818780D02*
X+458590Y+5844180D01*
X+458590Y+5767980D01*
X+1611000Y+5320000D02*
X+1610173Y+5340483D01*
X+1603455Y+5381450D01*
X+1589437Y+5422417D01*
X+1566659Y+5463384D01*
X+1531859Y+5504229D01*
X+1490892Y+5535845D01*
X+1449925Y+5556392D01*
X+1408958Y+5568629D01*
X+1367991Y+5573762D01*
X+1357000Y+5574000D01*
X+1103000Y+5320000D02*
X+1103827Y+5340483D01*
X+1110545Y+5381450D01*
X+1124563Y+5422417D01*
X+1147341Y+5463384D01*
X+1182141Y+5504229D01*
X+1223108Y+5535845D01*
X+1264075Y+5556392D01*
X+1305042Y+5568629D01*
X+1346009Y+5573762D01*
X+1357000Y+5574000D01*
X+1103000Y+5320000D02*
X+1103827Y+5299517D01*
X+1110545Y+5258550D01*
X+1124563Y+5217583D01*
X+1147341Y+5176616D01*
X+1182141Y+5135771D01*
X+1223108Y+5104155D01*
X+1264075Y+5083608D01*
X+1305042Y+5071371D01*
X+1346009Y+5066238D01*
X+1357000Y+5066000D01*
X+1611000Y+5320000D02*
X+1610173Y+5299517D01*
X+1603455Y+5258550D01*
X+1589437Y+5217583D01*
X+1566659Y+5176616D01*
X+1531859Y+5135771D01*
X+1490892Y+5104155D01*
X+1449925Y+5083608D01*
X+1408958Y+5071371D01*
X+1367991Y+5066238D01*
X+1357000Y+5066000D01*
X+1039500Y+5574000D02*
X+1166500Y+5574000D01*
X+1103000Y+5637500D02*
X+1103000Y+5510500D01*
X+1218570Y+5667980D02*
X+1218570Y+5744180D01*
X+1271910Y+5744180D01*
X+1298580Y+5718780D01*
X+1298580Y+5693380D01*
X+1271910Y+5667980D01*
X+1218570Y+5667980D01*
X+1338585Y+5731480D02*
X+1351920Y+5744180D01*
X+1391925Y+5744180D01*
X+1405260Y+5731480D01*
X+1405260Y+5718780D01*
X+1391925Y+5706080D01*
X+1351920Y+5706080D01*
X+1338585Y+5693380D01*
X+1338585Y+5667980D01*
X+1405260Y+5667980D01*
X+2417000Y+5080000D02*
X+2416173Y+5100483D01*
X+2409455Y+5141450D01*
X+2395437Y+5182417D01*
X+2372659Y+5223384D01*
X+2337859Y+5264229D01*
X+2296892Y+5295845D01*
X+2255925Y+5316392D01*
X+2214958Y+5328629D01*
X+2173991Y+5333762D01*
X+2163000Y+5334000D01*
X+1909000Y+5080000D02*
X+1909827Y+5100483D01*
X+1916545Y+5141450D01*
X+1930563Y+5182417D01*
X+1953341Y+5223384D01*
X+1988141Y+5264229D01*
X+2029108Y+5295845D01*
X+2070075Y+5316392D01*
X+2111042Y+5328629D01*
X+2152009Y+5333762D01*
X+2163000Y+5334000D01*
X+1909000Y+5080000D02*
X+1909827Y+5059517D01*
X+1916545Y+5018550D01*
X+1930563Y+4977583D01*
X+1953341Y+4936616D01*
X+1988141Y+4895771D01*
X+2029108Y+4864155D01*
X+2070075Y+4843608D01*
X+2111042Y+4831371D01*
X+2152009Y+4826238D01*
X+2163000Y+4826000D01*
X+2417000Y+5080000D02*
X+2416173Y+5059517D01*
X+2409455Y+5018550D01*
X+2395437Y+4977583D01*
X+2372659Y+4936616D01*
X+2337859Y+4895771D01*
X+2296892Y+4864155D01*
X+2255925Y+4843608D01*
X+2214958Y+4831371D01*
X+2173991Y+4826238D01*
X+2163000Y+4826000D01*
X+1845500Y+5334000D02*
X+1972500Y+5334000D01*
X+1909000Y+5397500D02*
X+1909000Y+5270500D01*
X+2024570Y+5427980D02*
X+2024570Y+5504180D01*
X+2077910Y+5504180D01*
X+2104580Y+5478780D01*
X+2104580Y+5453380D01*
X+2077910Y+5427980D01*
X+2024570Y+5427980D01*
X+2144585Y+5491480D02*
X+2157920Y+5504180D01*
X+2197925Y+5504180D01*
X+2211260Y+5491480D01*
X+2211260Y+5478780D01*
X+2197925Y+5466080D01*
X+2211260Y+5453380D01*
X+2211260Y+5440680D01*
X+2197925Y+5427980D01*
X+2157920Y+5427980D01*
X+2144585Y+5440680D01*
X+2171255Y+5466080D02*
X+2197925Y+5466080D01*
X+3207000Y+4610000D02*
X+3206173Y+4630483D01*
X+3199455Y+4671450D01*
X+3185437Y+4712417D01*
X+3162659Y+4753384D01*
X+3127859Y+4794229D01*
X+3086892Y+4825845D01*
X+3045925Y+4846392D01*
X+3004958Y+4858629D01*
X+2963991Y+4863762D01*
X+2953000Y+4864000D01*
X+2699000Y+4610000D02*
X+2699827Y+4630483D01*
X+2706545Y+4671450D01*
X+2720563Y+4712417D01*
X+2743341Y+4753384D01*
X+2778141Y+4794229D01*
X+2819108Y+4825845D01*
X+2860075Y+4846392D01*
X+2901042Y+4858629D01*
X+2942009Y+4863762D01*
X+2953000Y+4864000D01*
X+2699000Y+4610000D02*
X+2699827Y+4589517D01*
X+2706545Y+4548550D01*
X+2720563Y+4507583D01*
X+2743341Y+4466616D01*
X+2778141Y+4425771D01*
X+2819108Y+4394155D01*
X+2860075Y+4373608D01*
X+2901042Y+4361371D01*
X+2942009Y+4356238D01*
X+2953000Y+4356000D01*
X+3207000Y+4610000D02*
X+3206173Y+4589517D01*
X+3199455Y+4548550D01*
X+3185437Y+4507583D01*
X+3162659Y+4466616D01*
X+3127859Y+4425771D01*
X+3086892Y+4394155D01*
X+3045925Y+4373608D01*
X+3004958Y+4361371D01*
X+2963991Y+4356238D01*
X+2953000Y+4356000D01*
X+2635500Y+4864000D02*
X+2762500Y+4864000D01*
X+2699000Y+4927500D02*
X+2699000Y+4800500D01*
X+2814570Y+4957980D02*
X+2814570Y+5034180D01*
X+2867910Y+5034180D01*
X+2894580Y+5008780D01*
X+2894580Y+4983380D01*
X+2867910Y+4957980D01*
X+2814570Y+4957980D01*
X+3001260Y+4983380D02*
X+2921250Y+4983380D01*
X+2974590Y+5034180D01*
X+2974590Y+4957980D01*
X+3851000Y+4110000D02*
X+3850173Y+4130483D01*
X+3843455Y+4171450D01*
X+3829437Y+4212417D01*
X+3806659Y+4253384D01*
X+3771859Y+4294229D01*
X+3730892Y+4325845D01*
X+3689925Y+4346392D01*
X+3648958Y+4358629D01*
X+3607991Y+4363762D01*
X+3597000Y+4364000D01*
X+3343000Y+4110000D02*
X+3343827Y+4130483D01*
X+3350545Y+4171450D01*
X+3364563Y+4212417D01*
X+3387341Y+4253384D01*
X+3422141Y+4294229D01*
X+3463108Y+4325845D01*
X+3504075Y+4346392D01*
X+3545042Y+4358629D01*
X+3586009Y+4363762D01*
X+3597000Y+4364000D01*
X+3343000Y+4110000D02*
X+3343827Y+4089517D01*
X+3350545Y+4048550D01*
X+3364563Y+4007583D01*
X+3387341Y+3966616D01*
X+3422141Y+3925771D01*
X+3463108Y+3894155D01*
X+3504075Y+3873608D01*
X+3545042Y+3861371D01*
X+3586009Y+3856238D01*
X+3597000Y+3856000D01*
X+3851000Y+4110000D02*
X+3850173Y+4089517D01*
X+3843455Y+4048550D01*
X+3829437Y+4007583D01*
X+3806659Y+3966616D01*
X+3771859Y+3925771D01*
X+3730892Y+3894155D01*
X+3689925Y+3873608D01*
X+3648958Y+3861371D01*
X+3607991Y+3856238D01*
X+3597000Y+3856000D01*
X+3279500Y+4364000D02*
X+3406500Y+4364000D01*
X+3343000Y+4427500D02*
X+3343000Y+4300500D01*
X+3458570Y+4457980D02*
X+3458570Y+4534180D01*
X+3511910Y+4534180D01*
X+3538580Y+4508780D01*
X+3538580Y+4483380D01*
X+3511910Y+4457980D01*
X+3458570Y+4457980D01*
X+3645260Y+4534180D02*
X+3578585Y+4534180D01*
X+3578585Y+4508780D01*
X+3631925Y+4508780D01*
X+3645260Y+4496080D01*
X+3645260Y+4470680D01*
X+3631925Y+4457980D01*
X+3591920Y+4457980D01*
X+3578585Y+4470680D01*
X+4397000Y+3450000D02*
X+4396173Y+3470483D01*
X+4389455Y+3511450D01*
X+4375437Y+3552417D01*
X+4352659Y+3593384D01*
X+4317859Y+3634229D01*
X+4276892Y+3665845D01*
X+4235925Y+3686392D01*
X+4194958Y+3698629D01*
X+4153991Y+3703762D01*
X+4143000Y+3704000D01*
X+3889000Y+3450000D02*
X+3889827Y+3470483D01*
X+3896545Y+3511450D01*
X+3910563Y+3552417D01*
X+3933341Y+3593384D01*
X+3968141Y+3634229D01*
X+4009108Y+3665845D01*
X+4050075Y+3686392D01*
X+4091042Y+3698629D01*
X+4132009Y+3703762D01*
X+4143000Y+3704000D01*
X+3889000Y+3450000D02*
X+3889827Y+3429517D01*
X+3896545Y+3388550D01*
X+3910563Y+3347583D01*
X+3933341Y+3306616D01*
X+3968141Y+3265771D01*
X+4009108Y+3234155D01*
X+4050075Y+3213608D01*
X+4091042Y+3201371D01*
X+4132009Y+3196238D01*
X+4143000Y+3196000D01*
X+4397000Y+3450000D02*
X+4396173Y+3429517D01*
X+4389455Y+3388550D01*
X+4375437Y+3347583D01*
X+4352659Y+3306616D01*
X+4317859Y+3265771D01*
X+4276892Y+3234155D01*
X+4235925Y+3213608D01*
X+4194958Y+3201371D01*
X+4153991Y+3196238D01*
X+4143000Y+3196000D01*
X+3825500Y+3704000D02*
X+3952500Y+3704000D01*
X+3889000Y+3767500D02*
X+3889000Y+3640500D01*
X+4004570Y+3797980D02*
X+4004570Y+3874180D01*
X+4057910Y+3874180D01*
X+4084580Y+3848780D01*
X+4084580Y+3823380D01*
X+4057910Y+3797980D01*
X+4004570Y+3797980D01*
X+4191260Y+3861480D02*
X+4177925Y+3874180D01*
X+4137920Y+3874180D01*
X+4124585Y+3861480D01*
X+4124585Y+3810680D01*
X+4137920Y+3797980D01*
X+4177925Y+3797980D01*
X+4191260Y+3810680D01*
X+4191260Y+3823380D01*
X+4177925Y+3836080D01*
X+4124585Y+3836080D01*
X+5007000Y+2620000D02*
X+5006173Y+2640483D01*
X+4999455Y+2681450D01*
X+4985437Y+2722417D01*
X+4962659Y+2763384D01*
X+4927859Y+2804229D01*
X+4886892Y+2835845D01*
X+4845925Y+2856392D01*
X+4804958Y+2868629D01*
X+4763991Y+2873762D01*
X+4753000Y+2874000D01*
X+4499000Y+2620000D02*
X+4499827Y+2640483D01*
X+4506545Y+2681450D01*
X+4520563Y+2722417D01*
X+4543341Y+2763384D01*
X+4578141Y+2804229D01*
X+4619108Y+2835845D01*
X+4660075Y+2856392D01*
X+4701042Y+2868629D01*
X+4742009Y+2873762D01*
X+4753000Y+2874000D01*
X+4499000Y+2620000D02*
X+4499827Y+2599517D01*
X+4506545Y+2558550D01*
X+4520563Y+2517583D01*
X+4543341Y+2476616D01*
X+4578141Y+2435771D01*
X+4619108Y+2404155D01*
X+4660075Y+2383608D01*
X+4701042Y+2371371D01*
X+4742009Y+2366238D01*
X+4753000Y+2366000D01*
X+5007000Y+2620000D02*
X+5006173Y+2599517D01*
X+4999455Y+2558550D01*
X+4985437Y+2517583D01*
X+4962659Y+2476616D01*
X+4927859Y+2435771D01*
X+4886892Y+2404155D01*
X+4845925Y+2383608D01*
X+4804958Y+2371371D01*
X+4763991Y+2366238D01*
X+4753000Y+2366000D01*
X+4435500Y+2874000D02*
X+4562500Y+2874000D01*
X+4499000Y+2937500D02*
X+4499000Y+2810500D01*
X+4614570Y+2967980D02*
X+4614570Y+3044180D01*
X+4667910Y+3044180D01*
X+4694580Y+3018780D01*
X+4694580Y+2993380D01*
X+4667910Y+2967980D01*
X+4614570Y+2967980D01*
X+4734585Y+3044180D02*
X+4801260Y+3044180D01*
X+4801260Y+3031480D01*
X+4734585Y+2967980D01*
X+5571000Y+1540000D02*
X+5570173Y+1560483D01*
X+5563455Y+1601450D01*
X+5549437Y+1642417D01*
X+5526659Y+1683384D01*
X+5491859Y+1724229D01*
X+5450892Y+1755845D01*
X+5409925Y+1776392D01*
X+5368958Y+1788629D01*
X+5327991Y+1793762D01*
X+5317000Y+1794000D01*
X+5063000Y+1540000D02*
X+5063827Y+1560483D01*
X+5070545Y+1601450D01*
X+5084563Y+1642417D01*
X+5107341Y+1683384D01*
X+5142141Y+1724229D01*
X+5183108Y+1755845D01*
X+5224075Y+1776392D01*
X+5265042Y+1788629D01*
X+5306009Y+1793762D01*
X+5317000Y+1794000D01*
X+5063000Y+1540000D02*
X+5063827Y+1519517D01*
X+5070545Y+1478550D01*
X+5084563Y+1437583D01*
X+5107341Y+1396616D01*
X+5142141Y+1355771D01*
X+5183108Y+1324155D01*
X+5224075Y+1303608D01*
X+5265042Y+1291371D01*
X+5306009Y+1286238D01*
X+5317000Y+1286000D01*
X+5571000Y+1540000D02*
X+5570173Y+1519517D01*
X+5563455Y+1478550D01*
X+5549437Y+1437583D01*
X+5526659Y+1396616D01*
X+5491859Y+1355771D01*
X+5450892Y+1324155D01*
X+5409925Y+1303608D01*
X+5368958Y+1291371D01*
X+5327991Y+1286238D01*
X+5317000Y+1286000D01*
X+4999500Y+1794000D02*
X+5126500Y+1794000D01*
X+5063000Y+1857500D02*
X+5063000Y+1730500D01*
X+5178570Y+1887980D02*
X+5178570Y+1964180D01*
X+5231910Y+1964180D01*
X+5258580Y+1938780D01*
X+5258580Y+1913380D01*
X+5231910Y+1887980D01*
X+5178570Y+1887980D01*
X+5311920Y+1926080D02*
X+5298585Y+1938780D01*
X+5298585Y+1951480D01*
X+5311920Y+1964180D01*
X+5351925Y+1964180D01*
X+5365260Y+1951480D01*
X+5365260Y+1938780D01*
X+5351925Y+1926080D01*
X+5311920Y+1926080D01*
X+5298585Y+1913380D01*
X+5298585Y+1900680D01*
X+5311920Y+1887980D01*
X+5351925Y+1887980D01*
X+5365260Y+1900680D01*
X+5365260Y+1913380D01*
X+5351925Y+1926080D01*
X+5781000Y+680000D02*
X+5780173Y+700483D01*
X+5773455Y+741450D01*
X+5759437Y+782417D01*
X+5736659Y+823384D01*
X+5701859Y+864229D01*
X+5660892Y+895845D01*
X+5619925Y+916392D01*
X+5578958Y+928629D01*
X+5537991Y+933762D01*
X+5527000Y+934000D01*
X+5273000Y+680000D02*
X+5273827Y+700483D01*
X+5280545Y+741450D01*
X+5294563Y+782417D01*
X+5317341Y+823384D01*
X+5352141Y+864229D01*
X+5393108Y+895845D01*
X+5434075Y+916392D01*
X+5475042Y+928629D01*
X+5516009Y+933762D01*
X+5527000Y+934000D01*
X+5273000Y+680000D02*
X+5273827Y+659517D01*
X+5280545Y+618550D01*
X+5294563Y+577583D01*
X+5317341Y+536616D01*
X+5352141Y+495771D01*
X+5393108Y+464155D01*
X+5434075Y+443608D01*
X+5475042Y+431371D01*
X+5516009Y+426238D01*
X+5527000Y+426000D01*
X+5781000Y+680000D02*
X+5780173Y+659517D01*
X+5773455Y+618550D01*
X+5759437Y+577583D01*
X+5736659Y+536616D01*
X+5701859Y+495771D01*
X+5660892Y+464155D01*
X+5619925Y+443608D01*
X+5578958Y+431371D01*
X+5537991Y+426238D01*
X+5527000Y+426000D01*
X+5209500Y+934000D02*
X+5336500Y+934000D01*
X+5273000Y+997500D02*
X+5273000Y+870500D01*
X+5388570Y+1027980D02*
X+5388570Y+1104180D01*
X+5441910Y+1104180D01*
X+5468580Y+1078780D01*
X+5468580Y+1053380D01*
X+5441910Y+1027980D01*
X+5388570Y+1027980D01*
X+5575260Y+1078780D02*
X+5561925Y+1066080D01*
X+5521920Y+1066080D01*
X+5508585Y+1078780D01*
X+5508585Y+1091480D01*
X+5521920Y+1104180D01*
X+5561925Y+1104180D01*
X+5575260Y+1091480D01*
X+5575260Y+1040680D01*
X+5561925Y+1027980D01*
X+5521920Y+1027980D01*
X+5785000Y-410000D02*
X+5784173Y-389517D01*
X+5777455Y-348550D01*
X+5763437Y-307583D01*
X+5740659Y-266616D01*
X+5705859Y-225771D01*
X+5664892Y-194155D01*
X+5623925Y-173608D01*
X+5582958Y-161371D01*
X+5541991Y-156238D01*
X+5531000Y-156000D01*
X+5277000Y-410000D02*
X+5277827Y-389517D01*
X+5284545Y-348550D01*
X+5298563Y-307583D01*
X+5321341Y-266616D01*
X+5356141Y-225771D01*
X+5397108Y-194155D01*
X+5438075Y-173608D01*
X+5479042Y-161371D01*
X+5520009Y-156238D01*
X+5531000Y-156000D01*
X+5277000Y-410000D02*
X+5277827Y-430483D01*
X+5284545Y-471450D01*
X+5298563Y-512417D01*
X+5321341Y-553384D01*
X+5356141Y-594229D01*
X+5397108Y-625845D01*
X+5438075Y-646392D01*
X+5479042Y-658629D01*
X+5520009Y-663762D01*
X+5531000Y-664000D01*
X+5785000Y-410000D02*
X+5784173Y-430483D01*
X+5777455Y-471450D01*
X+5763437Y-512417D01*
X+5740659Y-553384D01*
X+5705859Y-594229D01*
X+5664892Y-625845D01*
X+5623925Y-646392D01*
X+5582958Y-658629D01*
X+5541991Y-663762D01*
X+5531000Y-664000D01*
X+5213500Y-156000D02*
X+5340500Y-156000D01*
X+5277000Y-92500D02*
X+5277000Y-219500D01*
X+5339230Y-62020D02*
X+5339230Y+14180D01*
X+5392570Y+14180D01*
X+5419240Y-11220D01*
X+5419240Y-36620D01*
X+5392570Y-62020D01*
X+5339230Y-62020D01*
X+5472580Y-11220D02*
X+5499250Y+14180D01*
X+5499250Y-62020D01*
X+5552590Y-49320D02*
X+5552590Y+1480D01*
X+5565925Y+14180D01*
X+5619265Y+14180D01*
X+5632600Y+1480D01*
X+5632600Y-49320D01*
X+5619265Y-62020D01*
X+5565925Y-62020D01*
X+5552590Y-49320D01*
X+5552590Y-62020D02*
X+5632600Y+14180D01*
X+5581000Y-1280000D02*
X+5580173Y-1259517D01*
X+5573455Y-1218550D01*
X+5559437Y-1177583D01*
X+5536659Y-1136616D01*
X+5501859Y-1095771D01*
X+5460892Y-1064155D01*
X+5419925Y-1043608D01*
X+5378958Y-1031371D01*
X+5337991Y-1026238D01*
X+5327000Y-1026000D01*
X+5073000Y-1280000D02*
X+5073827Y-1259517D01*
X+5080545Y-1218550D01*
X+5094563Y-1177583D01*
X+5117341Y-1136616D01*
X+5152141Y-1095771D01*
X+5193108Y-1064155D01*
X+5234075Y-1043608D01*
X+5275042Y-1031371D01*
X+5316009Y-1026238D01*
X+5327000Y-1026000D01*
X+5073000Y-1280000D02*
X+5073827Y-1300483D01*
X+5080545Y-1341450D01*
X+5094563Y-1382417D01*
X+5117341Y-1423384D01*
X+5152141Y-1464229D01*
X+5193108Y-1495845D01*
X+5234075Y-1516392D01*
X+5275042Y-1528629D01*
X+5316009Y-1533762D01*
X+5327000Y-1534000D01*
X+5581000Y-1280000D02*
X+5580173Y-1300483D01*
X+5573455Y-1341450D01*
X+5559437Y-1382417D01*
X+5536659Y-1423384D01*
X+5501859Y-1464229D01*
X+5460892Y-1495845D01*
X+5419925Y-1516392D01*
X+5378958Y-1528629D01*
X+5337991Y-1533762D01*
X+5327000Y-1534000D01*
X+5009500Y-1026000D02*
X+5136500Y-1026000D01*
X+5073000Y-962500D02*
X+5073000Y-1089500D01*
X+5135230Y-932020D02*
X+5135230Y-855820D01*
X+5188570Y-855820D01*
X+5215240Y-881220D01*
X+5215240Y-906620D01*
X+5188570Y-932020D01*
X+5135230Y-932020D01*
X+5268580Y-881220D02*
X+5295250Y-855820D01*
X+5295250Y-932020D01*
X+5375260Y-881220D02*
X+5401930Y-855820D01*
X+5401930Y-932020D01*
X+5081000Y-2270000D02*
X+5080173Y-2249517D01*
X+5073455Y-2208550D01*
X+5059437Y-2167583D01*
X+5036659Y-2126616D01*
X+5001859Y-2085771D01*
X+4960892Y-2054155D01*
X+4919925Y-2033608D01*
X+4878958Y-2021371D01*
X+4837991Y-2016238D01*
X+4827000Y-2016000D01*
X+4573000Y-2270000D02*
X+4573827Y-2249517D01*
X+4580545Y-2208550D01*
X+4594563Y-2167583D01*
X+4617341Y-2126616D01*
X+4652141Y-2085771D01*
X+4693108Y-2054155D01*
X+4734075Y-2033608D01*
X+4775042Y-2021371D01*
X+4816009Y-2016238D01*
X+4827000Y-2016000D01*
X+4573000Y-2270000D02*
X+4573827Y-2290483D01*
X+4580545Y-2331450D01*
X+4594563Y-2372417D01*
X+4617341Y-2413384D01*
X+4652141Y-2454229D01*
X+4693108Y-2485845D01*
X+4734075Y-2506392D01*
X+4775042Y-2518629D01*
X+4816009Y-2523762D01*
X+4827000Y-2524000D01*
X+5081000Y-2270000D02*
X+5080173Y-2290483D01*
X+5073455Y-2331450D01*
X+5059437Y-2372417D01*
X+5036659Y-2413384D01*
X+5001859Y-2454229D01*
X+4960892Y-2485845D01*
X+4919925Y-2506392D01*
X+4878958Y-2518629D01*
X+4837991Y-2523762D01*
X+4827000Y-2524000D01*
X+4509500Y-2016000D02*
X+4636500Y-2016000D01*
X+4573000Y-1952500D02*
X+4573000Y-2079500D01*
X+4635230Y-1922020D02*
X+4635230Y-1845820D01*
X+4688570Y-1845820D01*
X+4715240Y-1871220D01*
X+4715240Y-1896620D01*
X+4688570Y-1922020D01*
X+4635230Y-1922020D01*
X+4768580Y-1871220D02*
X+4795250Y-1845820D01*
X+4795250Y-1922020D01*
X+4861925Y-1858520D02*
X+4875260Y-1845820D01*
X+4915265Y-1845820D01*
X+4928600Y-1858520D01*
X+4928600Y-1871220D01*
X+4915265Y-1883920D01*
X+4875260Y-1883920D01*
X+4861925Y-1896620D01*
X+4861925Y-1922020D01*
X+4928600Y-1922020D01*
X+4377000Y-3290000D02*
X+4376173Y-3269517D01*
X+4369455Y-3228550D01*
X+4355437Y-3187583D01*
X+4332659Y-3146616D01*
X+4297859Y-3105771D01*
X+4256892Y-3074155D01*
X+4215925Y-3053608D01*
X+4174958Y-3041371D01*
X+4133991Y-3036238D01*
X+4123000Y-3036000D01*
X+3869000Y-3290000D02*
X+3869827Y-3269517D01*
X+3876545Y-3228550D01*
X+3890563Y-3187583D01*
X+3913341Y-3146616D01*
X+3948141Y-3105771D01*
X+3989108Y-3074155D01*
X+4030075Y-3053608D01*
X+4071042Y-3041371D01*
X+4112009Y-3036238D01*
X+4123000Y-3036000D01*
X+3869000Y-3290000D02*
X+3869827Y-3310483D01*
X+3876545Y-3351450D01*
X+3890563Y-3392417D01*
X+3913341Y-3433384D01*
X+3948141Y-3474229D01*
X+3989108Y-3505845D01*
X+4030075Y-3526392D01*
X+4071042Y-3538629D01*
X+4112009Y-3543762D01*
X+4123000Y-3544000D01*
X+4377000Y-3290000D02*
X+4376173Y-3310483D01*
X+4369455Y-3351450D01*
X+4355437Y-3392417D01*
X+4332659Y-3433384D01*
X+4297859Y-3474229D01*
X+4256892Y-3505845D01*
X+4215925Y-3526392D01*
X+4174958Y-3538629D01*
X+4133991Y-3543762D01*
X+4123000Y-3544000D01*
X+3805500Y-3036000D02*
X+3932500Y-3036000D01*
X+3869000Y-2972500D02*
X+3869000Y-3099500D01*
X+3931230Y-2942020D02*
X+3931230Y-2865820D01*
X+3984570Y-2865820D01*
X+4011240Y-2891220D01*
X+4011240Y-2916620D01*
X+3984570Y-2942020D01*
X+3931230Y-2942020D01*
X+4064580Y-2891220D02*
X+4091250Y-2865820D01*
X+4091250Y-2942020D01*
X+4157925Y-2878520D02*
X+4171260Y-2865820D01*
X+4211265Y-2865820D01*
X+4224600Y-2878520D01*
X+4224600Y-2891220D01*
X+4211265Y-2903920D01*
X+4224600Y-2916620D01*
X+4224600Y-2929320D01*
X+4211265Y-2942020D01*
X+4171260Y-2942020D01*
X+4157925Y-2929320D01*
X+4184595Y-2903920D02*
X+4211265Y-2903920D01*
X+3557000Y-4160000D02*
X+3556173Y-4139517D01*
X+3549455Y-4098550D01*
X+3535437Y-4057583D01*
X+3512659Y-4016616D01*
X+3477859Y-3975771D01*
X+3436892Y-3944155D01*
X+3395925Y-3923608D01*
X+3354958Y-3911371D01*
X+3313991Y-3906238D01*
X+3303000Y-3906000D01*
X+3049000Y-4160000D02*
X+3049827Y-4139517D01*
X+3056545Y-4098550D01*
X+3070563Y-4057583D01*
X+3093341Y-4016616D01*
X+3128141Y-3975771D01*
X+3169108Y-3944155D01*
X+3210075Y-3923608D01*
X+3251042Y-3911371D01*
X+3292009Y-3906238D01*
X+3303000Y-3906000D01*
X+3049000Y-4160000D02*
X+3049827Y-4180483D01*
X+3056545Y-4221450D01*
X+3070563Y-4262417D01*
X+3093341Y-4303384D01*
X+3128141Y-4344229D01*
X+3169108Y-4375845D01*
X+3210075Y-4396392D01*
X+3251042Y-4408629D01*
X+3292009Y-4413762D01*
X+3303000Y-4414000D01*
X+3557000Y-4160000D02*
X+3556173Y-4180483D01*
X+3549455Y-4221450D01*
X+3535437Y-4262417D01*
X+3512659Y-4303384D01*
X+3477859Y-4344229D01*
X+3436892Y-4375845D01*
X+3395925Y-4396392D01*
X+3354958Y-4408629D01*
X+3313991Y-4413762D01*
X+3303000Y-4414000D01*
X+2985500Y-3906000D02*
X+3112500Y-3906000D01*
X+3049000Y-3842500D02*
X+3049000Y-3969500D01*
X+3111230Y-3812020D02*
X+3111230Y-3735820D01*
X+3164570Y-3735820D01*
X+3191240Y-3761220D01*
X+3191240Y-3786620D01*
X+3164570Y-3812020D01*
X+3111230Y-3812020D01*
X+3244580Y-3761220D02*
X+3271250Y-3735820D01*
X+3271250Y-3812020D01*
X+3404600Y-3786620D02*
X+3324590Y-3786620D01*
X+3377930Y-3735820D01*
X+3377930Y-3812020D01*
X+2831000Y-4720000D02*
X+2830173Y-4699517D01*
X+2823455Y-4658550D01*
X+2809437Y-4617583D01*
X+2786659Y-4576616D01*
X+2751859Y-4535771D01*
X+2710892Y-4504155D01*
X+2669925Y-4483608D01*
X+2628958Y-4471371D01*
X+2587991Y-4466238D01*
X+2577000Y-4466000D01*
X+2323000Y-4720000D02*
X+2323827Y-4699517D01*
X+2330545Y-4658550D01*
X+2344563Y-4617583D01*
X+2367341Y-4576616D01*
X+2402141Y-4535771D01*
X+2443108Y-4504155D01*
X+2484075Y-4483608D01*
X+2525042Y-4471371D01*
X+2566009Y-4466238D01*
X+2577000Y-4466000D01*
X+2323000Y-4720000D02*
X+2323827Y-4740483D01*
X+2330545Y-4781450D01*
X+2344563Y-4822417D01*
X+2367341Y-4863384D01*
X+2402141Y-4904229D01*
X+2443108Y-4935845D01*
X+2484075Y-4956392D01*
X+2525042Y-4968629D01*
X+2566009Y-4973762D01*
X+2577000Y-4974000D01*
X+2831000Y-4720000D02*
X+2830173Y-4740483D01*
X+2823455Y-4781450D01*
X+2809437Y-4822417D01*
X+2786659Y-4863384D01*
X+2751859Y-4904229D01*
X+2710892Y-4935845D01*
X+2669925Y-4956392D01*
X+2628958Y-4968629D01*
X+2587991Y-4973762D01*
X+2577000Y-4974000D01*
X+2259500Y-4466000D02*
X+2386500Y-4466000D01*
X+2323000Y-4402500D02*
X+2323000Y-4529500D01*
X+2385230Y-4372020D02*
X+2385230Y-4295820D01*
X+2438570Y-4295820D01*
X+2465240Y-4321220D01*
X+2465240Y-4346620D01*
X+2438570Y-4372020D01*
X+2385230Y-4372020D01*
X+2518580Y-4321220D02*
X+2545250Y-4295820D01*
X+2545250Y-4372020D01*
X+2678600Y-4295820D02*
X+2611925Y-4295820D01*
X+2611925Y-4321220D01*
X+2665265Y-4321220D01*
X+2678600Y-4333920D01*
X+2678600Y-4359320D01*
X+2665265Y-4372020D01*
X+2625260Y-4372020D01*
X+2611925Y-4359320D01*
X+1831000Y-5240000D02*
X+1830173Y-5219517D01*
X+1823455Y-5178550D01*
X+1809437Y-5137583D01*
X+1786659Y-5096616D01*
X+1751859Y-5055771D01*
X+1710892Y-5024155D01*
X+1669925Y-5003608D01*
X+1628958Y-4991371D01*
X+1587991Y-4986238D01*
X+1577000Y-4986000D01*
X+1323000Y-5240000D02*
X+1323827Y-5219517D01*
X+1330545Y-5178550D01*
X+1344563Y-5137583D01*
X+1367341Y-5096616D01*
X+1402141Y-5055771D01*
X+1443108Y-5024155D01*
X+1484075Y-5003608D01*
X+1525042Y-4991371D01*
X+1566009Y-4986238D01*
X+1577000Y-4986000D01*
X+1323000Y-5240000D02*
X+1323827Y-5260483D01*
X+1330545Y-5301450D01*
X+1344563Y-5342417D01*
X+1367341Y-5383384D01*
X+1402141Y-5424229D01*
X+1443108Y-5455845D01*
X+1484075Y-5476392D01*
X+1525042Y-5488629D01*
X+1566009Y-5493762D01*
X+1577000Y-5494000D01*
X+1831000Y-5240000D02*
X+1830173Y-5260483D01*
X+1823455Y-5301450D01*
X+1809437Y-5342417D01*
X+1786659Y-5383384D01*
X+1751859Y-5424229D01*
X+1710892Y-5455845D01*
X+1669925Y-5476392D01*
X+1628958Y-5488629D01*
X+1587991Y-5493762D01*
X+1577000Y-5494000D01*
X+1259500Y-4986000D02*
X+1386500Y-4986000D01*
X+1323000Y-4922500D02*
X+1323000Y-5049500D01*
X+1385230Y-4892020D02*
X+1385230Y-4815820D01*
X+1438570Y-4815820D01*
X+1465240Y-4841220D01*
X+1465240Y-4866620D01*
X+1438570Y-4892020D01*
X+1385230Y-4892020D01*
X+1518580Y-4841220D02*
X+1545250Y-4815820D01*
X+1545250Y-4892020D01*
X+1678600Y-4828520D02*
X+1665265Y-4815820D01*
X+1625260Y-4815820D01*
X+1611925Y-4828520D01*
X+1611925Y-4879320D01*
X+1625260Y-4892020D01*
X+1665265Y-4892020D01*
X+1678600Y-4879320D01*
X+1678600Y-4866620D01*
X+1665265Y-4853920D01*
X+1611925Y-4853920D01*
X+831000Y-5430000D02*
X+830173Y-5409517D01*
X+823455Y-5368550D01*
X+809437Y-5327583D01*
X+786659Y-5286616D01*
X+751859Y-5245771D01*
X+710892Y-5214155D01*
X+669925Y-5193608D01*
X+628958Y-5181371D01*
X+587991Y-5176238D01*
X+577000Y-5176000D01*
X+323000Y-5430000D02*
X+323827Y-5409517D01*
X+330545Y-5368550D01*
X+344563Y-5327583D01*
X+367341Y-5286616D01*
X+402141Y-5245771D01*
X+443108Y-5214155D01*
X+484075Y-5193608D01*
X+525042Y-5181371D01*
X+566009Y-5176238D01*
X+577000Y-5176000D01*
X+323000Y-5430000D02*
X+323827Y-5450483D01*
X+330545Y-5491450D01*
X+344563Y-5532417D01*
X+367341Y-5573384D01*
X+402141Y-5614229D01*
X+443108Y-5645845D01*
X+484075Y-5666392D01*
X+525042Y-5678629D01*
X+566009Y-5683762D01*
X+577000Y-5684000D01*
X+831000Y-5430000D02*
X+830173Y-5450483D01*
X+823455Y-5491450D01*
X+809437Y-5532417D01*
X+786659Y-5573384D01*
X+751859Y-5614229D01*
X+710892Y-5645845D01*
X+669925Y-5666392D01*
X+628958Y-5678629D01*
X+587991Y-5683762D01*
X+577000Y-5684000D01*
X+259500Y-5176000D02*
X+386500Y-5176000D01*
X+323000Y-5112500D02*
X+323000Y-5239500D01*
X+385230Y-5082020D02*
X+385230Y-5005820D01*
X+438570Y-5005820D01*
X+465240Y-5031220D01*
X+465240Y-5056620D01*
X+438570Y-5082020D01*
X+385230Y-5082020D01*
X+518580Y-5031220D02*
X+545250Y-5005820D01*
X+545250Y-5082020D01*
X+611925Y-5005820D02*
X+678600Y-5005820D01*
X+678600Y-5018520D01*
X+611925Y-5082020D01*
X-259000Y-5510000D02*
X-259827Y-5489517D01*
X-266545Y-5448550D01*
X-280563Y-5407583D01*
X-303341Y-5366616D01*
X-338141Y-5325771D01*
X-379108Y-5294155D01*
X-420075Y-5273608D01*
X-461042Y-5261371D01*
X-502009Y-5256238D01*
X-513000Y-5256000D01*
X-767000Y-5510000D02*
X-766173Y-5489517D01*
X-759455Y-5448550D01*
X-745437Y-5407583D01*
X-722659Y-5366616D01*
X-687859Y-5325771D01*
X-646892Y-5294155D01*
X-605925Y-5273608D01*
X-564958Y-5261371D01*
X-523991Y-5256238D01*
X-513000Y-5256000D01*
X-767000Y-5510000D02*
X-766173Y-5530483D01*
X-759455Y-5571450D01*
X-745437Y-5612417D01*
X-722659Y-5653384D01*
X-687859Y-5694229D01*
X-646892Y-5725845D01*
X-605925Y-5746392D01*
X-564958Y-5758629D01*
X-523991Y-5763762D01*
X-513000Y-5764000D01*
X-259000Y-5510000D02*
X-259827Y-5530483D01*
X-266545Y-5571450D01*
X-280563Y-5612417D01*
X-303341Y-5653384D01*
X-338141Y-5694229D01*
X-379108Y-5725845D01*
X-420075Y-5746392D01*
X-461042Y-5758629D01*
X-502009Y-5763762D01*
X-513000Y-5764000D01*
X-830500Y-5256000D02*
X-703500Y-5256000D01*
X-767000Y-5192500D02*
X-767000Y-5319500D01*
X-704770Y-5162020D02*
X-704770Y-5085820D01*
X-651430Y-5085820D01*
X-624760Y-5111220D01*
X-624760Y-5136620D01*
X-651430Y-5162020D01*
X-704770Y-5162020D01*
X-571420Y-5111220D02*
X-544750Y-5085820D01*
X-544750Y-5162020D01*
X-464740Y-5123920D02*
X-478075Y-5111220D01*
X-478075Y-5098520D01*
X-464740Y-5085820D01*
X-424735Y-5085820D01*
X-411400Y-5098520D01*
X-411400Y-5111220D01*
X-424735Y-5123920D01*
X-464740Y-5123920D01*
X-478075Y-5136620D01*
X-478075Y-5149320D01*
X-464740Y-5162020D01*
X-424735Y-5162020D01*
X-411400Y-5149320D01*
X-411400Y-5136620D01*
X-424735Y-5123920D01*
X-1339000Y-5250000D02*
X-1339827Y-5229517D01*
X-1346545Y-5188550D01*
X-1360563Y-5147583D01*
X-1383341Y-5106616D01*
X-1418141Y-5065771D01*
X-1459108Y-5034155D01*
X-1500075Y-5013608D01*
X-1541042Y-5001371D01*
X-1582009Y-4996238D01*
X-1593000Y-4996000D01*
X-1847000Y-5250000D02*
X-1846173Y-5229517D01*
X-1839455Y-5188550D01*
X-1825437Y-5147583D01*
X-1802659Y-5106616D01*
X-1767859Y-5065771D01*
X-1726892Y-5034155D01*
X-1685925Y-5013608D01*
X-1644958Y-5001371D01*
X-1603991Y-4996238D01*
X-1593000Y-4996000D01*
X-1847000Y-5250000D02*
X-1846173Y-5270483D01*
X-1839455Y-5311450D01*
X-1825437Y-5352417D01*
X-1802659Y-5393384D01*
X-1767859Y-5434229D01*
X-1726892Y-5465845D01*
X-1685925Y-5486392D01*
X-1644958Y-5498629D01*
X-1603991Y-5503762D01*
X-1593000Y-5504000D01*
X-1339000Y-5250000D02*
X-1339827Y-5270483D01*
X-1346545Y-5311450D01*
X-1360563Y-5352417D01*
X-1383341Y-5393384D01*
X-1418141Y-5434229D01*
X-1459108Y-5465845D01*
X-1500075Y-5486392D01*
X-1541042Y-5498629D01*
X-1582009Y-5503762D01*
X-1593000Y-5504000D01*
X-1910500Y-4996000D02*
X-1783500Y-4996000D01*
X-1847000Y-4932500D02*
X-1847000Y-5059500D01*
X-1784770Y-4902020D02*
X-1784770Y-4825820D01*
X-1731430Y-4825820D01*
X-1704760Y-4851220D01*
X-1704760Y-4876620D01*
X-1731430Y-4902020D01*
X-1784770Y-4902020D01*
X-1651420Y-4851220D02*
X-1624750Y-4825820D01*
X-1624750Y-4902020D01*
X-1491400Y-4851220D02*
X-1504735Y-4863920D01*
X-1544740Y-4863920D01*
X-1558075Y-4851220D01*
X-1558075Y-4838520D01*
X-1544740Y-4825820D01*
X-1504735Y-4825820D01*
X-1491400Y-4838520D01*
X-1491400Y-4889320D01*
X-1504735Y-4902020D01*
X-1544740Y-4902020D01*
X-2379000Y-4770000D02*
X-2379827Y-4749517D01*
X-2386545Y-4708550D01*
X-2400563Y-4667583D01*
X-2423341Y-4626616D01*
X-2458141Y-4585771D01*
X-2499108Y-4554155D01*
X-2540075Y-4533608D01*
X-2581042Y-4521371D01*
X-2622009Y-4516238D01*
X-2633000Y-4516000D01*
X-2887000Y-4770000D02*
X-2886173Y-4749517D01*
X-2879455Y-4708550D01*
X-2865437Y-4667583D01*
X-2842659Y-4626616D01*
X-2807859Y-4585771D01*
X-2766892Y-4554155D01*
X-2725925Y-4533608D01*
X-2684958Y-4521371D01*
X-2643991Y-4516238D01*
X-2633000Y-4516000D01*
X-2887000Y-4770000D02*
X-2886173Y-4790483D01*
X-2879455Y-4831450D01*
X-2865437Y-4872417D01*
X-2842659Y-4913384D01*
X-2807859Y-4954229D01*
X-2766892Y-4985845D01*
X-2725925Y-5006392D01*
X-2684958Y-5018629D01*
X-2643991Y-5023762D01*
X-2633000Y-5024000D01*
X-2379000Y-4770000D02*
X-2379827Y-4790483D01*
X-2386545Y-4831450D01*
X-2400563Y-4872417D01*
X-2423341Y-4913384D01*
X-2458141Y-4954229D01*
X-2499108Y-4985845D01*
X-2540075Y-5006392D01*
X-2581042Y-5018629D01*
X-2622009Y-5023762D01*
X-2633000Y-5024000D01*
X-2950500Y-4516000D02*
X-2823500Y-4516000D01*
X-2887000Y-4452500D02*
X-2887000Y-4579500D01*
X-2824770Y-4422020D02*
X-2824770Y-4345820D01*
X-2771430Y-4345820D01*
X-2744760Y-4371220D01*
X-2744760Y-4396620D01*
X-2771430Y-4422020D01*
X-2824770Y-4422020D01*
X-2704755Y-4358520D02*
X-2691420Y-4345820D01*
X-2651415Y-4345820D01*
X-2638080Y-4358520D01*
X-2638080Y-4371220D01*
X-2651415Y-4383920D01*
X-2691420Y-4383920D01*
X-2704755Y-4396620D01*
X-2704755Y-4422020D01*
X-2638080Y-4422020D01*
X-2611410Y-4409320D02*
X-2611410Y-4358520D01*
X-2598075Y-4345820D01*
X-2544735Y-4345820D01*
X-2531400Y-4358520D01*
X-2531400Y-4409320D01*
X-2544735Y-4422020D01*
X-2598075Y-4422020D01*
X-2611410Y-4409320D01*
X-2611410Y-4422020D02*
X-2531400Y-4345820D01*
X-3209000Y-4220000D02*
X-3209827Y-4199517D01*
X-3216545Y-4158550D01*
X-3230563Y-4117583D01*
X-3253341Y-4076616D01*
X-3288141Y-4035771D01*
X-3329108Y-4004155D01*
X-3370075Y-3983608D01*
X-3411042Y-3971371D01*
X-3452009Y-3966238D01*
X-3463000Y-3966000D01*
X-3717000Y-4220000D02*
X-3716173Y-4199517D01*
X-3709455Y-4158550D01*
X-3695437Y-4117583D01*
X-3672659Y-4076616D01*
X-3637859Y-4035771D01*
X-3596892Y-4004155D01*
X-3555925Y-3983608D01*
X-3514958Y-3971371D01*
X-3473991Y-3966238D01*
X-3463000Y-3966000D01*
X-3717000Y-4220000D02*
X-3716173Y-4240483D01*
X-3709455Y-4281450D01*
X-3695437Y-4322417D01*
X-3672659Y-4363384D01*
X-3637859Y-4404229D01*
X-3596892Y-4435845D01*
X-3555925Y-4456392D01*
X-3514958Y-4468629D01*
X-3473991Y-4473762D01*
X-3463000Y-4474000D01*
X-3209000Y-4220000D02*
X-3209827Y-4240483D01*
X-3216545Y-4281450D01*
X-3230563Y-4322417D01*
X-3253341Y-4363384D01*
X-3288141Y-4404229D01*
X-3329108Y-4435845D01*
X-3370075Y-4456392D01*
X-3411042Y-4468629D01*
X-3452009Y-4473762D01*
X-3463000Y-4474000D01*
X-3780500Y-3966000D02*
X-3653500Y-3966000D01*
X-3717000Y-3902500D02*
X-3717000Y-4029500D01*
X-3654770Y-3872020D02*
X-3654770Y-3795820D01*
X-3601430Y-3795820D01*
X-3574760Y-3821220D01*
X-3574760Y-3846620D01*
X-3601430Y-3872020D01*
X-3654770Y-3872020D01*
X-3534755Y-3808520D02*
X-3521420Y-3795820D01*
X-3481415Y-3795820D01*
X-3468080Y-3808520D01*
X-3468080Y-3821220D01*
X-3481415Y-3833920D01*
X-3521420Y-3833920D01*
X-3534755Y-3846620D01*
X-3534755Y-3872020D01*
X-3468080Y-3872020D01*
X-3414740Y-3821220D02*
X-3388070Y-3795820D01*
X-3388070Y-3872020D01*
X-3883000Y-3530000D02*
X-3883827Y-3509517D01*
X-3890545Y-3468550D01*
X-3904563Y-3427583D01*
X-3927341Y-3386616D01*
X-3962141Y-3345771D01*
X-4003108Y-3314155D01*
X-4044075Y-3293608D01*
X-4085042Y-3281371D01*
X-4126009Y-3276238D01*
X-4137000Y-3276000D01*
X-4391000Y-3530000D02*
X-4390173Y-3509517D01*
X-4383455Y-3468550D01*
X-4369437Y-3427583D01*
X-4346659Y-3386616D01*
X-4311859Y-3345771D01*
X-4270892Y-3314155D01*
X-4229925Y-3293608D01*
X-4188958Y-3281371D01*
X-4147991Y-3276238D01*
X-4137000Y-3276000D01*
X-4391000Y-3530000D02*
X-4390173Y-3550483D01*
X-4383455Y-3591450D01*
X-4369437Y-3632417D01*
X-4346659Y-3673384D01*
X-4311859Y-3714229D01*
X-4270892Y-3745845D01*
X-4229925Y-3766392D01*
X-4188958Y-3778629D01*
X-4147991Y-3783762D01*
X-4137000Y-3784000D01*
X-3883000Y-3530000D02*
X-3883827Y-3550483D01*
X-3890545Y-3591450D01*
X-3904563Y-3632417D01*
X-3927341Y-3673384D01*
X-3962141Y-3714229D01*
X-4003108Y-3745845D01*
X-4044075Y-3766392D01*
X-4085042Y-3778629D01*
X-4126009Y-3783762D01*
X-4137000Y-3784000D01*
X-4454500Y-3276000D02*
X-4327500Y-3276000D01*
X-4391000Y-3212500D02*
X-4391000Y-3339500D01*
X-4328770Y-3182020D02*
X-4328770Y-3105820D01*
X-4275430Y-3105820D01*
X-4248760Y-3131220D01*
X-4248760Y-3156620D01*
X-4275430Y-3182020D01*
X-4328770Y-3182020D01*
X-4208755Y-3118520D02*
X-4195420Y-3105820D01*
X-4155415Y-3105820D01*
X-4142080Y-3118520D01*
X-4142080Y-3131220D01*
X-4155415Y-3143920D01*
X-4195420Y-3143920D01*
X-4208755Y-3156620D01*
X-4208755Y-3182020D01*
X-4142080Y-3182020D01*
X-4102075Y-3118520D02*
X-4088740Y-3105820D01*
X-4048735Y-3105820D01*
X-4035400Y-3118520D01*
X-4035400Y-3131220D01*
X-4048735Y-3143920D01*
X-4088740Y-3143920D01*
X-4102075Y-3156620D01*
X-4102075Y-3182020D01*
X-4035400Y-3182020D01*
X-4459000Y-2740000D02*
X-4459827Y-2719517D01*
X-4466545Y-2678550D01*
X-4480563Y-2637583D01*
X-4503341Y-2596616D01*
X-4538141Y-2555771D01*
X-4579108Y-2524155D01*
X-4620075Y-2503608D01*
X-4661042Y-2491371D01*
X-4702009Y-2486238D01*
X-4713000Y-2486000D01*
X-4967000Y-2740000D02*
X-4966173Y-2719517D01*
X-4959455Y-2678550D01*
X-4945437Y-2637583D01*
X-4922659Y-2596616D01*
X-4887859Y-2555771D01*
X-4846892Y-2524155D01*
X-4805925Y-2503608D01*
X-4764958Y-2491371D01*
X-4723991Y-2486238D01*
X-4713000Y-2486000D01*
X-4967000Y-2740000D02*
X-4966173Y-2760483D01*
X-4959455Y-2801450D01*
X-4945437Y-2842417D01*
X-4922659Y-2883384D01*
X-4887859Y-2924229D01*
X-4846892Y-2955845D01*
X-4805925Y-2976392D01*
X-4764958Y-2988629D01*
X-4723991Y-2993762D01*
X-4713000Y-2994000D01*
X-4459000Y-2740000D02*
X-4459827Y-2760483D01*
X-4466545Y-2801450D01*
X-4480563Y-2842417D01*
X-4503341Y-2883384D01*
X-4538141Y-2924229D01*
X-4579108Y-2955845D01*
X-4620075Y-2976392D01*
X-4661042Y-2988629D01*
X-4702009Y-2993762D01*
X-4713000Y-2994000D01*
X-5030500Y-2486000D02*
X-4903500Y-2486000D01*
X-4967000Y-2422500D02*
X-4967000Y-2549500D01*
X-4904770Y-2392020D02*
X-4904770Y-2315820D01*
X-4851430Y-2315820D01*
X-4824760Y-2341220D01*
X-4824760Y-2366620D01*
X-4851430Y-2392020D01*
X-4904770Y-2392020D01*
X-4784755Y-2328520D02*
X-4771420Y-2315820D01*
X-4731415Y-2315820D01*
X-4718080Y-2328520D01*
X-4718080Y-2341220D01*
X-4731415Y-2353920D01*
X-4771420Y-2353920D01*
X-4784755Y-2366620D01*
X-4784755Y-2392020D01*
X-4718080Y-2392020D01*
X-4678075Y-2328520D02*
X-4664740Y-2315820D01*
X-4624735Y-2315820D01*
X-4611400Y-2328520D01*
X-4611400Y-2341220D01*
X-4624735Y-2353920D01*
X-4611400Y-2366620D01*
X-4611400Y-2379320D01*
X-4624735Y-2392020D01*
X-4664740Y-2392020D01*
X-4678075Y-2379320D01*
X-4651405Y-2353920D02*
X-4624735Y-2353920D01*
X-4949000Y-1740000D02*
X-4949827Y-1719517D01*
X-4956545Y-1678550D01*
X-4970563Y-1637583D01*
X-4993341Y-1596616D01*
X-5028141Y-1555771D01*
X-5069108Y-1524155D01*
X-5110075Y-1503608D01*
X-5151042Y-1491371D01*
X-5192009Y-1486238D01*
X-5203000Y-1486000D01*
X-5457000Y-1740000D02*
X-5456173Y-1719517D01*
X-5449455Y-1678550D01*
X-5435437Y-1637583D01*
X-5412659Y-1596616D01*
X-5377859Y-1555771D01*
X-5336892Y-1524155D01*
X-5295925Y-1503608D01*
X-5254958Y-1491371D01*
X-5213991Y-1486238D01*
X-5203000Y-1486000D01*
X-5457000Y-1740000D02*
X-5456173Y-1760483D01*
X-5449455Y-1801450D01*
X-5435437Y-1842417D01*
X-5412659Y-1883384D01*
X-5377859Y-1924229D01*
X-5336892Y-1955845D01*
X-5295925Y-1976392D01*
X-5254958Y-1988629D01*
X-5213991Y-1993762D01*
X-5203000Y-1994000D01*
X-4949000Y-1740000D02*
X-4949827Y-1760483D01*
X-4956545Y-1801450D01*
X-4970563Y-1842417D01*
X-4993341Y-1883384D01*
X-5028141Y-1924229D01*
X-5069108Y-1955845D01*
X-5110075Y-1976392D01*
X-5151042Y-1988629D01*
X-5192009Y-1993762D01*
X-5203000Y-1994000D01*
X-5520500Y-1486000D02*
X-5393500Y-1486000D01*
X-5457000Y-1422500D02*
X-5457000Y-1549500D01*
X-5394770Y-1392020D02*
X-5394770Y-1315820D01*
X-5341430Y-1315820D01*
X-5314760Y-1341220D01*
X-5314760Y-1366620D01*
X-5341430Y-1392020D01*
X-5394770Y-1392020D01*
X-5274755Y-1328520D02*
X-5261420Y-1315820D01*
X-5221415Y-1315820D01*
X-5208080Y-1328520D01*
X-5208080Y-1341220D01*
X-5221415Y-1353920D01*
X-5261420Y-1353920D01*
X-5274755Y-1366620D01*
X-5274755Y-1392020D01*
X-5208080Y-1392020D01*
X-5101400Y-1366620D02*
X-5181410Y-1366620D01*
X-5128070Y-1315820D01*
X-5128070Y-1392020D01*
X-5249000Y-950000D02*
X-5249827Y-929517D01*
X-5256545Y-888550D01*
X-5270563Y-847583D01*
X-5293341Y-806616D01*
X-5328141Y-765771D01*
X-5369108Y-734155D01*
X-5410075Y-713608D01*
X-5451042Y-701371D01*
X-5492009Y-696238D01*
X-5503000Y-696000D01*
X-5757000Y-950000D02*
X-5756173Y-929517D01*
X-5749455Y-888550D01*
X-5735437Y-847583D01*
X-5712659Y-806616D01*
X-5677859Y-765771D01*
X-5636892Y-734155D01*
X-5595925Y-713608D01*
X-5554958Y-701371D01*
X-5513991Y-696238D01*
X-5503000Y-696000D01*
X-5757000Y-950000D02*
X-5756173Y-970483D01*
X-5749455Y-1011450D01*
X-5735437Y-1052417D01*
X-5712659Y-1093384D01*
X-5677859Y-1134229D01*
X-5636892Y-1165845D01*
X-5595925Y-1186392D01*
X-5554958Y-1198629D01*
X-5513991Y-1203762D01*
X-5503000Y-1204000D01*
X-5249000Y-950000D02*
X-5249827Y-970483D01*
X-5256545Y-1011450D01*
X-5270563Y-1052417D01*
X-5293341Y-1093384D01*
X-5328141Y-1134229D01*
X-5369108Y-1165845D01*
X-5410075Y-1186392D01*
X-5451042Y-1198629D01*
X-5492009Y-1203762D01*
X-5503000Y-1204000D01*
X-5820500Y-696000D02*
X-5693500Y-696000D01*
X-5757000Y-632500D02*
X-5757000Y-759500D01*
X-5694770Y-602020D02*
X-5694770Y-525820D01*
X-5641430Y-525820D01*
X-5614760Y-551220D01*
X-5614760Y-576620D01*
X-5641430Y-602020D01*
X-5694770Y-602020D01*
X-5574755Y-538520D02*
X-5561420Y-525820D01*
X-5521415Y-525820D01*
X-5508080Y-538520D01*
X-5508080Y-551220D01*
X-5521415Y-563920D01*
X-5561420Y-563920D01*
X-5574755Y-576620D01*
X-5574755Y-602020D01*
X-5508080Y-602020D01*
X-5401400Y-525820D02*
X-5468075Y-525820D01*
X-5468075Y-551220D01*
X-5414735Y-551220D01*
X-5401400Y-563920D01*
X-5401400Y-589320D01*
X-5414735Y-602020D01*
X-5454740Y-602020D01*
X-5468075Y-589320D01*
X-5409000Y-90000D02*
X-5409827Y-69517D01*
X-5416545Y-28550D01*
X-5430563Y+12417D01*
X-5453341Y+53384D01*
X-5488141Y+94229D01*
X-5529108Y+125845D01*
X-5570075Y+146392D01*
X-5611042Y+158629D01*
X-5652009Y+163762D01*
X-5663000Y+164000D01*
X-5917000Y-90000D02*
X-5916173Y-69517D01*
X-5909455Y-28550D01*
X-5895437Y+12417D01*
X-5872659Y+53384D01*
X-5837859Y+94229D01*
X-5796892Y+125845D01*
X-5755925Y+146392D01*
X-5714958Y+158629D01*
X-5673991Y+163762D01*
X-5663000Y+164000D01*
X-5917000Y-90000D02*
X-5916173Y-110483D01*
X-5909455Y-151450D01*
X-5895437Y-192417D01*
X-5872659Y-233384D01*
X-5837859Y-274229D01*
X-5796892Y-305845D01*
X-5755925Y-326392D01*
X-5714958Y-338629D01*
X-5673991Y-343762D01*
X-5663000Y-344000D01*
X-5409000Y-90000D02*
X-5409827Y-110483D01*
X-5416545Y-151450D01*
X-5430563Y-192417D01*
X-5453341Y-233384D01*
X-5488141Y-274229D01*
X-5529108Y-305845D01*
X-5570075Y-326392D01*
X-5611042Y-338629D01*
X-5652009Y-343762D01*
X-5663000Y-344000D01*
X-5980500Y+164000D02*
X-5853500Y+164000D01*
X-5917000Y+227500D02*
X-5917000Y+100500D01*
X-5854770Y+257980D02*
X-5854770Y+334180D01*
X-5801430Y+334180D01*
X-5774760Y+308780D01*
X-5774760Y+283380D01*
X-5801430Y+257980D01*
X-5854770Y+257980D01*
X-5734755Y+321480D02*
X-5721420Y+334180D01*
X-5681415Y+334180D01*
X-5668080Y+321480D01*
X-5668080Y+308780D01*
X-5681415Y+296080D01*
X-5721420Y+296080D01*
X-5734755Y+283380D01*
X-5734755Y+257980D01*
X-5668080Y+257980D01*
X-5561400Y+321480D02*
X-5574735Y+334180D01*
X-5614740Y+334180D01*
X-5628075Y+321480D01*
X-5628075Y+270680D01*
X-5614740Y+257980D01*
X-5574735Y+257980D01*
X-5561400Y+270680D01*
X-5561400Y+283380D01*
X-5574735Y+296080D01*
X-5628075Y+296080D01*
X-5343000Y+690000D02*
X-5343827Y+710483D01*
X-5350545Y+751450D01*
X-5364563Y+792417D01*
X-5387341Y+833384D01*
X-5422141Y+874229D01*
X-5463108Y+905845D01*
X-5504075Y+926392D01*
X-5545042Y+938629D01*
X-5586009Y+943762D01*
X-5597000Y+944000D01*
X-5851000Y+690000D02*
X-5850173Y+710483D01*
X-5843455Y+751450D01*
X-5829437Y+792417D01*
X-5806659Y+833384D01*
X-5771859Y+874229D01*
X-5730892Y+905845D01*
X-5689925Y+926392D01*
X-5648958Y+938629D01*
X-5607991Y+943762D01*
X-5597000Y+944000D01*
X-5851000Y+690000D02*
X-5850173Y+669517D01*
X-5843455Y+628550D01*
X-5829437Y+587583D01*
X-5806659Y+546616D01*
X-5771859Y+505771D01*
X-5730892Y+474155D01*
X-5689925Y+453608D01*
X-5648958Y+441371D01*
X-5607991Y+436238D01*
X-5597000Y+436000D01*
X-5343000Y+690000D02*
X-5343827Y+669517D01*
X-5350545Y+628550D01*
X-5364563Y+587583D01*
X-5387341Y+546616D01*
X-5422141Y+505771D01*
X-5463108Y+474155D01*
X-5504075Y+453608D01*
X-5545042Y+441371D01*
X-5586009Y+436238D01*
X-5597000Y+436000D01*
X-5914500Y+944000D02*
X-5787500Y+944000D01*
X-5851000Y+1007500D02*
X-5851000Y+880500D01*
X-5788770Y+1037980D02*
X-5788770Y+1114180D01*
X-5735430Y+1114180D01*
X-5708760Y+1088780D01*
X-5708760Y+1063380D01*
X-5735430Y+1037980D01*
X-5788770Y+1037980D01*
X-5668755Y+1101480D02*
X-5655420Y+1114180D01*
X-5615415Y+1114180D01*
X-5602080Y+1101480D01*
X-5602080Y+1088780D01*
X-5615415Y+1076080D01*
X-5655420Y+1076080D01*
X-5668755Y+1063380D01*
X-5668755Y+1037980D01*
X-5602080Y+1037980D01*
X-5562075Y+1114180D02*
X-5495400Y+1114180D01*
X-5495400Y+1101480D01*
X-5562075Y+1037980D01*
X-5149000Y+1400000D02*
X-5149827Y+1420483D01*
X-5156545Y+1461450D01*
X-5170563Y+1502417D01*
X-5193341Y+1543384D01*
X-5228141Y+1584229D01*
X-5269108Y+1615845D01*
X-5310075Y+1636392D01*
X-5351042Y+1648629D01*
X-5392009Y+1653762D01*
X-5403000Y+1654000D01*
X-5657000Y+1400000D02*
X-5656173Y+1420483D01*
X-5649455Y+1461450D01*
X-5635437Y+1502417D01*
X-5612659Y+1543384D01*
X-5577859Y+1584229D01*
X-5536892Y+1615845D01*
X-5495925Y+1636392D01*
X-5454958Y+1648629D01*
X-5413991Y+1653762D01*
X-5403000Y+1654000D01*
X-5657000Y+1400000D02*
X-5656173Y+1379517D01*
X-5649455Y+1338550D01*
X-5635437Y+1297583D01*
X-5612659Y+1256616D01*
X-5577859Y+1215771D01*
X-5536892Y+1184155D01*
X-5495925Y+1163608D01*
X-5454958Y+1151371D01*
X-5413991Y+1146238D01*
X-5403000Y+1146000D01*
X-5149000Y+1400000D02*
X-5149827Y+1379517D01*
X-5156545Y+1338550D01*
X-5170563Y+1297583D01*
X-5193341Y+1256616D01*
X-5228141Y+1215771D01*
X-5269108Y+1184155D01*
X-5310075Y+1163608D01*
X-5351042Y+1151371D01*
X-5392009Y+1146238D01*
X-5403000Y+1146000D01*
X-5720500Y+1654000D02*
X-5593500Y+1654000D01*
X-5657000Y+1717500D02*
X-5657000Y+1590500D01*
X-5594770Y+1747980D02*
X-5594770Y+1824180D01*
X-5541430Y+1824180D01*
X-5514760Y+1798780D01*
X-5514760Y+1773380D01*
X-5541430Y+1747980D01*
X-5594770Y+1747980D01*
X-5474755Y+1811480D02*
X-5461420Y+1824180D01*
X-5421415Y+1824180D01*
X-5408080Y+1811480D01*
X-5408080Y+1798780D01*
X-5421415Y+1786080D01*
X-5461420Y+1786080D01*
X-5474755Y+1773380D01*
X-5474755Y+1747980D01*
X-5408080Y+1747980D01*
X-5354740Y+1786080D02*
X-5368075Y+1798780D01*
X-5368075Y+1811480D01*
X-5354740Y+1824180D01*
X-5314735Y+1824180D01*
X-5301400Y+1811480D01*
X-5301400Y+1798780D01*
X-5314735Y+1786080D01*
X-5354740Y+1786080D01*
X-5368075Y+1773380D01*
X-5368075Y+1760680D01*
X-5354740Y+1747980D01*
X-5314735Y+1747980D01*
X-5301400Y+1760680D01*
X-5301400Y+1773380D01*
X-5314735Y+1786080D01*
X-4979000Y+2040000D02*
X-4979827Y+2060483D01*
X-4986545Y+2101450D01*
X-5000563Y+2142417D01*
X-5023341Y+2183384D01*
X-5058141Y+2224229D01*
X-5099108Y+2255845D01*
X-5140075Y+2276392D01*
X-5181042Y+2288629D01*
X-5222009Y+2293762D01*
X-5233000Y+2294000D01*
X-5487000Y+2040000D02*
X-5486173Y+2060483D01*
X-5479455Y+2101450D01*
X-5465437Y+2142417D01*
X-5442659Y+2183384D01*
X-5407859Y+2224229D01*
X-5366892Y+2255845D01*
X-5325925Y+2276392D01*
X-5284958Y+2288629D01*
X-5243991Y+2293762D01*
X-5233000Y+2294000D01*
X-5487000Y+2040000D02*
X-5486173Y+2019517D01*
X-5479455Y+1978550D01*
X-5465437Y+1937583D01*
X-5442659Y+1896616D01*
X-5407859Y+1855771D01*
X-5366892Y+1824155D01*
X-5325925Y+1803608D01*
X-5284958Y+1791371D01*
X-5243991Y+1786238D01*
X-5233000Y+1786000D01*
X-4979000Y+2040000D02*
X-4979827Y+2019517D01*
X-4986545Y+1978550D01*
X-5000563Y+1937583D01*
X-5023341Y+1896616D01*
X-5058141Y+1855771D01*
X-5099108Y+1824155D01*
X-5140075Y+1803608D01*
X-5181042Y+1791371D01*
X-5222009Y+1786238D01*
X-5233000Y+1786000D01*
X-5550500Y+2294000D02*
X-5423500Y+2294000D01*
X-5487000Y+2357500D02*
X-5487000Y+2230500D01*
X-5424770Y+2387980D02*
X-5424770Y+2464180D01*
X-5371430Y+2464180D01*
X-5344760Y+2438780D01*
X-5344760Y+2413380D01*
X-5371430Y+2387980D01*
X-5424770Y+2387980D01*
X-5304755Y+2451480D02*
X-5291420Y+2464180D01*
X-5251415Y+2464180D01*
X-5238080Y+2451480D01*
X-5238080Y+2438780D01*
X-5251415Y+2426080D01*
X-5291420Y+2426080D01*
X-5304755Y+2413380D01*
X-5304755Y+2387980D01*
X-5238080Y+2387980D01*
X-5131400Y+2438780D02*
X-5144735Y+2426080D01*
X-5184740Y+2426080D01*
X-5198075Y+2438780D01*
X-5198075Y+2451480D01*
X-5184740Y+2464180D01*
X-5144735Y+2464180D01*
X-5131400Y+2451480D01*
X-5131400Y+2400680D01*
X-5144735Y+2387980D01*
X-5184740Y+2387980D01*
X-4559000Y+2610000D02*
X-4559827Y+2630483D01*
X-4566545Y+2671450D01*
X-4580563Y+2712417D01*
X-4603341Y+2753384D01*
X-4638141Y+2794229D01*
X-4679108Y+2825845D01*
X-4720075Y+2846392D01*
X-4761042Y+2858629D01*
X-4802009Y+2863762D01*
X-4813000Y+2864000D01*
X-5067000Y+2610000D02*
X-5066173Y+2630483D01*
X-5059455Y+2671450D01*
X-5045437Y+2712417D01*
X-5022659Y+2753384D01*
X-4987859Y+2794229D01*
X-4946892Y+2825845D01*
X-4905925Y+2846392D01*
X-4864958Y+2858629D01*
X-4823991Y+2863762D01*
X-4813000Y+2864000D01*
X-5067000Y+2610000D02*
X-5066173Y+2589517D01*
X-5059455Y+2548550D01*
X-5045437Y+2507583D01*
X-5022659Y+2466616D01*
X-4987859Y+2425771D01*
X-4946892Y+2394155D01*
X-4905925Y+2373608D01*
X-4864958Y+2361371D01*
X-4823991Y+2356238D01*
X-4813000Y+2356000D01*
X-4559000Y+2610000D02*
X-4559827Y+2589517D01*
X-4566545Y+2548550D01*
X-4580563Y+2507583D01*
X-4603341Y+2466616D01*
X-4638141Y+2425771D01*
X-4679108Y+2394155D01*
X-4720075Y+2373608D01*
X-4761042Y+2361371D01*
X-4802009Y+2356238D01*
X-4813000Y+2356000D01*
X-5130500Y+2864000D02*
X-5003500Y+2864000D01*
X-5067000Y+2927500D02*
X-5067000Y+2800500D01*
X-5004770Y+2957980D02*
X-5004770Y+3034180D01*
X-4951430Y+3034180D01*
X-4924760Y+3008780D01*
X-4924760Y+2983380D01*
X-4951430Y+2957980D01*
X-5004770Y+2957980D01*
X-4884755Y+3021480D02*
X-4871420Y+3034180D01*
X-4831415Y+3034180D01*
X-4818080Y+3021480D01*
X-4818080Y+3008780D01*
X-4831415Y+2996080D01*
X-4818080Y+2983380D01*
X-4818080Y+2970680D01*
X-4831415Y+2957980D01*
X-4871420Y+2957980D01*
X-4884755Y+2970680D01*
X-4858085Y+2996080D02*
X-4831415Y+2996080D01*
X-4791410Y+2970680D02*
X-4791410Y+3021480D01*
X-4778075Y+3034180D01*
X-4724735Y+3034180D01*
X-4711400Y+3021480D01*
X-4711400Y+2970680D01*
X-4724735Y+2957980D01*
X-4778075Y+2957980D01*
X-4791410Y+2970680D01*
X-4791410Y+2957980D02*
X-4711400Y+3034180D01*
X-4163000Y+3230000D02*
X-4163827Y+3250483D01*
X-4170545Y+3291450D01*
X-4184563Y+3332417D01*
X-4207341Y+3373384D01*
X-4242141Y+3414229D01*
X-4283108Y+3445845D01*
X-4324075Y+3466392D01*
X-4365042Y+3478629D01*
X-4406009Y+3483762D01*
X-4417000Y+3484000D01*
X-4671000Y+3230000D02*
X-4670173Y+3250483D01*
X-4663455Y+3291450D01*
X-4649437Y+3332417D01*
X-4626659Y+3373384D01*
X-4591859Y+3414229D01*
X-4550892Y+3445845D01*
X-4509925Y+3466392D01*
X-4468958Y+3478629D01*
X-4427991Y+3483762D01*
X-4417000Y+3484000D01*
X-4671000Y+3230000D02*
X-4670173Y+3209517D01*
X-4663455Y+3168550D01*
X-4649437Y+3127583D01*
X-4626659Y+3086616D01*
X-4591859Y+3045771D01*
X-4550892Y+3014155D01*
X-4509925Y+2993608D01*
X-4468958Y+2981371D01*
X-4427991Y+2976238D01*
X-4417000Y+2976000D01*
X-4163000Y+3230000D02*
X-4163827Y+3209517D01*
X-4170545Y+3168550D01*
X-4184563Y+3127583D01*
X-4207341Y+3086616D01*
X-4242141Y+3045771D01*
X-4283108Y+3014155D01*
X-4324075Y+2993608D01*
X-4365042Y+2981371D01*
X-4406009Y+2976238D01*
X-4417000Y+2976000D01*
X-4734500Y+3484000D02*
X-4607500Y+3484000D01*
X-4671000Y+3547500D02*
X-4671000Y+3420500D01*
X-4608770Y+3577980D02*
X-4608770Y+3654180D01*
X-4555430Y+3654180D01*
X-4528760Y+3628780D01*
X-4528760Y+3603380D01*
X-4555430Y+3577980D01*
X-4608770Y+3577980D01*
X-4488755Y+3641480D02*
X-4475420Y+3654180D01*
X-4435415Y+3654180D01*
X-4422080Y+3641480D01*
X-4422080Y+3628780D01*
X-4435415Y+3616080D01*
X-4422080Y+3603380D01*
X-4422080Y+3590680D01*
X-4435415Y+3577980D01*
X-4475420Y+3577980D01*
X-4488755Y+3590680D01*
X-4462085Y+3616080D02*
X-4435415Y+3616080D01*
X-4368740Y+3628780D02*
X-4342070Y+3654180D01*
X-4342070Y+3577980D01*
X-3729000Y+3800000D02*
X-3729827Y+3820483D01*
X-3736545Y+3861450D01*
X-3750563Y+3902417D01*
X-3773341Y+3943384D01*
X-3808141Y+3984229D01*
X-3849108Y+4015845D01*
X-3890075Y+4036392D01*
X-3931042Y+4048629D01*
X-3972009Y+4053762D01*
X-3983000Y+4054000D01*
X-4237000Y+3800000D02*
X-4236173Y+3820483D01*
X-4229455Y+3861450D01*
X-4215437Y+3902417D01*
X-4192659Y+3943384D01*
X-4157859Y+3984229D01*
X-4116892Y+4015845D01*
X-4075925Y+4036392D01*
X-4034958Y+4048629D01*
X-3993991Y+4053762D01*
X-3983000Y+4054000D01*
X-4237000Y+3800000D02*
X-4236173Y+3779517D01*
X-4229455Y+3738550D01*
X-4215437Y+3697583D01*
X-4192659Y+3656616D01*
X-4157859Y+3615771D01*
X-4116892Y+3584155D01*
X-4075925Y+3563608D01*
X-4034958Y+3551371D01*
X-3993991Y+3546238D01*
X-3983000Y+3546000D01*
X-3729000Y+3800000D02*
X-3729827Y+3779517D01*
X-3736545Y+3738550D01*
X-3750563Y+3697583D01*
X-3773341Y+3656616D01*
X-3808141Y+3615771D01*
X-3849108Y+3584155D01*
X-3890075Y+3563608D01*
X-3931042Y+3551371D01*
X-3972009Y+3546238D01*
X-3983000Y+3546000D01*
X-4300500Y+4054000D02*
X-4173500Y+4054000D01*
X-4237000Y+4117500D02*
X-4237000Y+3990500D01*
X-4174770Y+4147980D02*
X-4174770Y+4224180D01*
X-4121430Y+4224180D01*
X-4094760Y+4198780D01*
X-4094760Y+4173380D01*
X-4121430Y+4147980D01*
X-4174770Y+4147980D01*
X-4054755Y+4211480D02*
X-4041420Y+4224180D01*
X-4001415Y+4224180D01*
X-3988080Y+4211480D01*
X-3988080Y+4198780D01*
X-4001415Y+4186080D01*
X-3988080Y+4173380D01*
X-3988080Y+4160680D01*
X-4001415Y+4147980D01*
X-4041420Y+4147980D01*
X-4054755Y+4160680D01*
X-4028085Y+4186080D02*
X-4001415Y+4186080D01*
X-3948075Y+4211480D02*
X-3934740Y+4224180D01*
X-3894735Y+4224180D01*
X-3881400Y+4211480D01*
X-3881400Y+4198780D01*
X-3894735Y+4186080D01*
X-3934740Y+4186080D01*
X-3948075Y+4173380D01*
X-3948075Y+4147980D01*
X-3881400Y+4147980D01*
X-3119000Y+4290000D02*
X-3119827Y+4310483D01*
X-3126545Y+4351450D01*
X-3140563Y+4392417D01*
X-3163341Y+4433384D01*
X-3198141Y+4474229D01*
X-3239108Y+4505845D01*
X-3280075Y+4526392D01*
X-3321042Y+4538629D01*
X-3362009Y+4543762D01*
X-3373000Y+4544000D01*
X-3627000Y+4290000D02*
X-3626173Y+4310483D01*
X-3619455Y+4351450D01*
X-3605437Y+4392417D01*
X-3582659Y+4433384D01*
X-3547859Y+4474229D01*
X-3506892Y+4505845D01*
X-3465925Y+4526392D01*
X-3424958Y+4538629D01*
X-3383991Y+4543762D01*
X-3373000Y+4544000D01*
X-3627000Y+4290000D02*
X-3626173Y+4269517D01*
X-3619455Y+4228550D01*
X-3605437Y+4187583D01*
X-3582659Y+4146616D01*
X-3547859Y+4105771D01*
X-3506892Y+4074155D01*
X-3465925Y+4053608D01*
X-3424958Y+4041371D01*
X-3383991Y+4036238D01*
X-3373000Y+4036000D01*
X-3119000Y+4290000D02*
X-3119827Y+4269517D01*
X-3126545Y+4228550D01*
X-3140563Y+4187583D01*
X-3163341Y+4146616D01*
X-3198141Y+4105771D01*
X-3239108Y+4074155D01*
X-3280075Y+4053608D01*
X-3321042Y+4041371D01*
X-3362009Y+4036238D01*
X-3373000Y+4036000D01*
X-3690500Y+4544000D02*
X-3563500Y+4544000D01*
X-3627000Y+4607500D02*
X-3627000Y+4480500D01*
X-3564770Y+4637980D02*
X-3564770Y+4714180D01*
X-3511430Y+4714180D01*
X-3484760Y+4688780D01*
X-3484760Y+4663380D01*
X-3511430Y+4637980D01*
X-3564770Y+4637980D01*
X-3444755Y+4701480D02*
X-3431420Y+4714180D01*
X-3391415Y+4714180D01*
X-3378080Y+4701480D01*
X-3378080Y+4688780D01*
X-3391415Y+4676080D01*
X-3378080Y+4663380D01*
X-3378080Y+4650680D01*
X-3391415Y+4637980D01*
X-3431420Y+4637980D01*
X-3444755Y+4650680D01*
X-3418085Y+4676080D02*
X-3391415Y+4676080D01*
X-3338075Y+4701480D02*
X-3324740Y+4714180D01*
X-3284735Y+4714180D01*
X-3271400Y+4701480D01*
X-3271400Y+4688780D01*
X-3284735Y+4676080D01*
X-3271400Y+4663380D01*
X-3271400Y+4650680D01*
X-3284735Y+4637980D01*
X-3324740Y+4637980D01*
X-3338075Y+4650680D01*
X-3311405Y+4676080D02*
X-3284735Y+4676080D01*
X-2399000Y+4760000D02*
X-2399827Y+4780483D01*
X-2406545Y+4821450D01*
X-2420563Y+4862417D01*
X-2443341Y+4903384D01*
X-2478141Y+4944229D01*
X-2519108Y+4975845D01*
X-2560075Y+4996392D01*
X-2601042Y+5008629D01*
X-2642009Y+5013762D01*
X-2653000Y+5014000D01*
X-2907000Y+4760000D02*
X-2906173Y+4780483D01*
X-2899455Y+4821450D01*
X-2885437Y+4862417D01*
X-2862659Y+4903384D01*
X-2827859Y+4944229D01*
X-2786892Y+4975845D01*
X-2745925Y+4996392D01*
X-2704958Y+5008629D01*
X-2663991Y+5013762D01*
X-2653000Y+5014000D01*
X-2907000Y+4760000D02*
X-2906173Y+4739517D01*
X-2899455Y+4698550D01*
X-2885437Y+4657583D01*
X-2862659Y+4616616D01*
X-2827859Y+4575771D01*
X-2786892Y+4544155D01*
X-2745925Y+4523608D01*
X-2704958Y+4511371D01*
X-2663991Y+4506238D01*
X-2653000Y+4506000D01*
X-2399000Y+4760000D02*
X-2399827Y+4739517D01*
X-2406545Y+4698550D01*
X-2420563Y+4657583D01*
X-2443341Y+4616616D01*
X-2478141Y+4575771D01*
X-2519108Y+4544155D01*
X-2560075Y+4523608D01*
X-2601042Y+4511371D01*
X-2642009Y+4506238D01*
X-2653000Y+4506000D01*
X-2970500Y+5014000D02*
X-2843500Y+5014000D01*
X-2907000Y+5077500D02*
X-2907000Y+4950500D01*
X-2844770Y+5107980D02*
X-2844770Y+5184180D01*
X-2791430Y+5184180D01*
X-2764760Y+5158780D01*
X-2764760Y+5133380D01*
X-2791430Y+5107980D01*
X-2844770Y+5107980D01*
X-2724755Y+5171480D02*
X-2711420Y+5184180D01*
X-2671415Y+5184180D01*
X-2658080Y+5171480D01*
X-2658080Y+5158780D01*
X-2671415Y+5146080D01*
X-2658080Y+5133380D01*
X-2658080Y+5120680D01*
X-2671415Y+5107980D01*
X-2711420Y+5107980D01*
X-2724755Y+5120680D01*
X-2698085Y+5146080D02*
X-2671415Y+5146080D01*
X-2551400Y+5133380D02*
X-2631410Y+5133380D01*
X-2578070Y+5184180D01*
X-2578070Y+5107980D01*
X-1719000Y+5160000D02*
X-1719827Y+5180483D01*
X-1726545Y+5221450D01*
X-1740563Y+5262417D01*
X-1763341Y+5303384D01*
X-1798141Y+5344229D01*
X-1839108Y+5375845D01*
X-1880075Y+5396392D01*
X-1921042Y+5408629D01*
X-1962009Y+5413762D01*
X-1973000Y+5414000D01*
X-2227000Y+5160000D02*
X-2226173Y+5180483D01*
X-2219455Y+5221450D01*
X-2205437Y+5262417D01*
X-2182659Y+5303384D01*
X-2147859Y+5344229D01*
X-2106892Y+5375845D01*
X-2065925Y+5396392D01*
X-2024958Y+5408629D01*
X-1983991Y+5413762D01*
X-1973000Y+5414000D01*
X-2227000Y+5160000D02*
X-2226173Y+5139517D01*
X-2219455Y+5098550D01*
X-2205437Y+5057583D01*
X-2182659Y+5016616D01*
X-2147859Y+4975771D01*
X-2106892Y+4944155D01*
X-2065925Y+4923608D01*
X-2024958Y+4911371D01*
X-1983991Y+4906238D01*
X-1973000Y+4906000D01*
X-1719000Y+5160000D02*
X-1719827Y+5139517D01*
X-1726545Y+5098550D01*
X-1740563Y+5057583D01*
X-1763341Y+5016616D01*
X-1798141Y+4975771D01*
X-1839108Y+4944155D01*
X-1880075Y+4923608D01*
X-1921042Y+4911371D01*
X-1962009Y+4906238D01*
X-1973000Y+4906000D01*
X-2290500Y+5414000D02*
X-2163500Y+5414000D01*
X-2227000Y+5477500D02*
X-2227000Y+5350500D01*
X-2164770Y+5507980D02*
X-2164770Y+5584180D01*
X-2111430Y+5584180D01*
X-2084760Y+5558780D01*
X-2084760Y+5533380D01*
X-2111430Y+5507980D01*
X-2164770Y+5507980D01*
X-2044755Y+5571480D02*
X-2031420Y+5584180D01*
X-1991415Y+5584180D01*
X-1978080Y+5571480D01*
X-1978080Y+5558780D01*
X-1991415Y+5546080D01*
X-1978080Y+5533380D01*
X-1978080Y+5520680D01*
X-1991415Y+5507980D01*
X-2031420Y+5507980D01*
X-2044755Y+5520680D01*
X-2018085Y+5546080D02*
X-1991415Y+5546080D01*
X-1871400Y+5584180D02*
X-1938075Y+5584180D01*
X-1938075Y+5558780D01*
X-1884735Y+5558780D01*
X-1871400Y+5546080D01*
X-1871400Y+5520680D01*
X-1884735Y+5507980D01*
X-1924740Y+5507980D01*
X-1938075Y+5520680D01*
X-859000Y+5400000D02*
X-859827Y+5420483D01*
X-866545Y+5461450D01*
X-880563Y+5502417D01*
X-903341Y+5543384D01*
X-938141Y+5584229D01*
X-979108Y+5615845D01*
X-1020075Y+5636392D01*
X-1061042Y+5648629D01*
X-1102009Y+5653762D01*
X-1113000Y+5654000D01*
X-1367000Y+5400000D02*
X-1366173Y+5420483D01*
X-1359455Y+5461450D01*
X-1345437Y+5502417D01*
X-1322659Y+5543384D01*
X-1287859Y+5584229D01*
X-1246892Y+5615845D01*
X-1205925Y+5636392D01*
X-1164958Y+5648629D01*
X-1123991Y+5653762D01*
X-1113000Y+5654000D01*
X-1367000Y+5400000D02*
X-1366173Y+5379517D01*
X-1359455Y+5338550D01*
X-1345437Y+5297583D01*
X-1322659Y+5256616D01*
X-1287859Y+5215771D01*
X-1246892Y+5184155D01*
X-1205925Y+5163608D01*
X-1164958Y+5151371D01*
X-1123991Y+5146238D01*
X-1113000Y+5146000D01*
X-859000Y+5400000D02*
X-859827Y+5379517D01*
X-866545Y+5338550D01*
X-880563Y+5297583D01*
X-903341Y+5256616D01*
X-938141Y+5215771D01*
X-979108Y+5184155D01*
X-1020075Y+5163608D01*
X-1061042Y+5151371D01*
X-1102009Y+5146238D01*
X-1113000Y+5146000D01*
X-1430500Y+5654000D02*
X-1303500Y+5654000D01*
X-1367000Y+5717500D02*
X-1367000Y+5590500D01*
X-1304770Y+5747980D02*
X-1304770Y+5824180D01*
X-1251430Y+5824180D01*
X-1224760Y+5798780D01*
X-1224760Y+5773380D01*
X-1251430Y+5747980D01*
X-1304770Y+5747980D01*
X-1184755Y+5811480D02*
X-1171420Y+5824180D01*
X-1131415Y+5824180D01*
X-1118080Y+5811480D01*
X-1118080Y+5798780D01*
X-1131415Y+5786080D01*
X-1118080Y+5773380D01*
X-1118080Y+5760680D01*
X-1131415Y+5747980D01*
X-1171420Y+5747980D01*
X-1184755Y+5760680D01*
X-1158085Y+5786080D02*
X-1131415Y+5786080D01*
X-1011400Y+5811480D02*
X-1024735Y+5824180D01*
X-1064740Y+5824180D01*
X-1078075Y+5811480D01*
X-1078075Y+5760680D01*
X-1064740Y+5747980D01*
X-1024735Y+5747980D01*
X-1011400Y+5760680D01*
X-1011400Y+5773380D01*
X-1024735Y+5786080D01*
X-1078075Y+5786080D01*
X-9000Y+5450000D02*
X-9827Y+5470483D01*
X-16545Y+5511450D01*
X-30563Y+5552417D01*
X-53341Y+5593384D01*
X-88141Y+5634229D01*
X-129108Y+5665845D01*
X-170075Y+5686392D01*
X-211042Y+5698629D01*
X-252009Y+5703762D01*
X-263000Y+5704000D01*
X-517000Y+5450000D02*
X-516173Y+5470483D01*
X-509455Y+5511450D01*
X-495437Y+5552417D01*
X-472659Y+5593384D01*
X-437859Y+5634229D01*
X-396892Y+5665845D01*
X-355925Y+5686392D01*
X-314958Y+5698629D01*
X-273991Y+5703762D01*
X-263000Y+5704000D01*
X-517000Y+5450000D02*
X-516173Y+5429517D01*
X-509455Y+5388550D01*
X-495437Y+5347583D01*
X-472659Y+5306616D01*
X-437859Y+5265771D01*
X-396892Y+5234155D01*
X-355925Y+5213608D01*
X-314958Y+5201371D01*
X-273991Y+5196238D01*
X-263000Y+5196000D01*
X-9000Y+5450000D02*
X-9827Y+5429517D01*
X-16545Y+5388550D01*
X-30563Y+5347583D01*
X-53341Y+5306616D01*
X-88141Y+5265771D01*
X-129108Y+5234155D01*
X-170075Y+5213608D01*
X-211042Y+5201371D01*
X-252009Y+5196238D01*
X-263000Y+5196000D01*
X-580500Y+5704000D02*
X-453500Y+5704000D01*
X-517000Y+5767500D02*
X-517000Y+5640500D01*
X-454770Y+5797980D02*
X-454770Y+5874180D01*
X-401430Y+5874180D01*
X-374760Y+5848780D01*
X-374760Y+5823380D01*
X-401430Y+5797980D01*
X-454770Y+5797980D01*
X-334755Y+5861480D02*
X-321420Y+5874180D01*
X-281415Y+5874180D01*
X-268080Y+5861480D01*
X-268080Y+5848780D01*
X-281415Y+5836080D01*
X-268080Y+5823380D01*
X-268080Y+5810680D01*
X-281415Y+5797980D01*
X-321420Y+5797980D01*
X-334755Y+5810680D01*
X-308085Y+5836080D02*
X-281415Y+5836080D01*
X-228075Y+5874180D02*
X-161400Y+5874180D01*
X-161400Y+5861480D01*
X-228075Y+5797980D01*
D25*
X+1888100Y-1830500D02*
X+1887969Y-1827342D01*
X+1886903Y-1821024D01*
X+1884672Y-1814706D01*
X+1881027Y-1808388D01*
X+1875452Y-1802149D01*
X+1869134Y-1797553D01*
X+1862816Y-1794620D01*
X+1856498Y-1792958D01*
X+1850180Y-1792400D01*
X+1850000Y-1792400D01*
X+1811900Y-1830500D02*
X+1812031Y-1827342D01*
X+1813097Y-1821024D01*
X+1815328Y-1814706D01*
X+1818973Y-1808388D01*
X+1824548Y-1802149D01*
X+1830866Y-1797553D01*
X+1837184Y-1794620D01*
X+1843502Y-1792958D01*
X+1849820Y-1792400D01*
X+1850000Y-1792400D01*
X+1811900Y-1830500D02*
X+1812031Y-1833658D01*
X+1813097Y-1839976D01*
X+1815328Y-1846294D01*
X+1818973Y-1852612D01*
X+1824548Y-1858851D01*
X+1830866Y-1863447D01*
X+1837184Y-1866380D01*
X+1843502Y-1868042D01*
X+1849820Y-1868600D01*
X+1850000Y-1868600D01*
X+1888100Y-1830500D02*
X+1887969Y-1833658D01*
X+1886903Y-1839976D01*
X+1884672Y-1846294D01*
X+1881027Y-1852612D01*
X+1875452Y-1858851D01*
X+1869134Y-1863447D01*
X+1862816Y-1866380D01*
X+1856498Y-1868042D01*
X+1850180Y-1868600D01*
X+1850000Y-1868600D01*
D21*
X+1701080Y-1740660D02*
X+1827593Y-1740660D01*
X+2198920Y-1740660D02*
X+2198920Y-1540000D01*
X+2075191Y-1540000D01*
X+1701080Y-1540000D02*
X+1701080Y-1740660D01*
X+2072407Y-1740660D02*
X+2198920Y-1740660D01*
X+2024809Y-1540000D02*
X+1875191Y-1540000D01*
X+1824809Y-1540000D02*
X+1701080Y-1540000D01*
X+1872407Y-1740660D02*
X+2027593Y-1740660D01*
D22*
X+1843320Y-1430780D02*
X+1843320Y-1468880D01*
X+1883325Y-1506980D01*
X+1923330Y-1468880D01*
X+1923330Y-1430780D01*
X+1976670Y-1456180D02*
X+2003340Y-1430780D01*
X+2003340Y-1506980D01*
X-1260500Y-2737000D02*
X-879500Y-2737000D01*
X-1311300Y-2610000D02*
X-1309117Y-2633688D01*
X-1303362Y-2656633D01*
X-1285900Y-2697312D01*
X-1260500Y-2737000D01*
X-1311300Y-2610000D02*
X-1310438Y-2558065D01*
X-1299047Y-2510037D01*
X-1278205Y-2466846D01*
X-1248991Y-2429422D01*
X-1212484Y-2398695D01*
X-1169764Y-2375596D01*
X-1121910Y-2361054D01*
X-1070000Y-2356000D01*
X-828700Y-2610000D02*
X-830883Y-2633688D01*
X-836638Y-2656633D01*
X-854100Y-2697312D01*
X-879500Y-2737000D01*
X-828700Y-2610000D02*
X-829562Y-2558065D01*
X-840953Y-2510037D01*
X-861795Y-2466846D01*
X-891009Y-2429422D01*
X-927516Y-2398695D01*
X-970236Y-2375596D01*
X-1018090Y-2361054D01*
X-1070000Y-2356000D01*
X-1176680Y-2274720D02*
X-1150010Y-2249320D01*
X-1123340Y-2249320D01*
X-1096670Y-2274720D01*
X-1096670Y-2300120D01*
X-1123340Y-2325520D01*
X-1150010Y-2325520D01*
X-1176680Y-2300120D01*
X-1176680Y-2274720D01*
X-1123340Y-2300120D02*
X-1096670Y-2325520D01*
X-1043330Y-2274720D02*
X-1016660Y-2249320D01*
X-1016660Y-2325520D01*
X+2247000Y-830000D02*
X+2241920Y-855876D01*
X+2227315Y-879848D01*
X+2204138Y-901438D01*
X+2173340Y-920170D01*
X+2135875Y-935569D01*
X+2092695Y-947158D01*
X+2044752Y-954460D01*
X+1993000Y-957000D01*
X+1739000Y-830000D02*
X+1744080Y-855876D01*
X+1758685Y-879848D01*
X+1781862Y-901438D01*
X+1812660Y-920170D01*
X+1850125Y-935569D01*
X+1893305Y-947158D01*
X+1941248Y-954460D01*
X+1993000Y-957000D01*
X+2247000Y-830000D02*
X+2241920Y-804124D01*
X+2227315Y-780152D01*
X+2204138Y-758562D01*
X+2173340Y-739830D01*
X+2135875Y-724431D01*
X+2092695Y-712842D01*
X+2044752Y-705540D01*
X+1993000Y-703000D01*
X+1739000Y-830000D02*
X+1744080Y-804124D01*
X+1758685Y-780152D01*
X+1781862Y-758562D01*
X+1812660Y-739830D01*
X+1850125Y-724431D01*
X+1893305Y-712842D01*
X+1941248Y-705540D01*
X+1993000Y-703000D01*
X+1966330Y-1050980D02*
X+1952995Y-1063680D01*
X+1912990Y-1063680D01*
X+1886320Y-1038280D01*
X+1886320Y-1012880D01*
X+1912990Y-987480D01*
X+1952995Y-987480D01*
X+1966330Y-1000180D01*
X+2019670Y-1012880D02*
X+2046340Y-987480D01*
X+2046340Y-1063680D01*
X+160000Y-1487000D02*
X+160000Y-1614000D01*
X+96500Y-2122000D02*
X+223500Y-2122000D01*
X+223500Y-1614000D01*
X+96500Y-1614000D01*
X+96500Y-2122000D01*
X+160000Y-2122000D02*
X+160000Y-2249000D01*
X+330180Y-1974680D02*
X+253980Y-1974680D01*
X+253980Y-1908005D01*
X+266680Y-1894670D01*
X+279380Y-1894670D01*
X+292080Y-1908005D01*
X+292080Y-1974680D01*
X+292080Y-1908005D02*
X+304780Y-1894670D01*
X+330180Y-1894670D01*
X+279380Y-1841330D02*
X+253980Y-1814660D01*
X+330180Y-1814660D01*
X+1177000Y+3850000D02*
X+1304000Y+3850000D01*
X+1304000Y+3786500D02*
X+1812000Y+3786500D01*
X+1812000Y+3913500D01*
X+1304000Y+3913500D01*
X+1304000Y+3786500D01*
X+1812000Y+3850000D02*
X+1939000Y+3850000D01*
X+1451320Y+3943980D02*
X+1451320Y+4020180D01*
X+1517995Y+4020180D01*
X+1531330Y+4007480D01*
X+1531330Y+3994780D01*
X+1517995Y+3982080D01*
X+1451320Y+3982080D01*
X+1517995Y+3982080D02*
X+1531330Y+3969380D01*
X+1531330Y+3943980D01*
X+1571335Y+4007480D02*
X+1584670Y+4020180D01*
X+1624675Y+4020180D01*
X+1638010Y+4007480D01*
X+1638010Y+3994780D01*
X+1624675Y+3982080D01*
X+1584670Y+3982080D01*
X+1571335Y+3969380D01*
X+1571335Y+3943980D01*
X+1638010Y+3943980D01*
X+2787000Y+2270000D02*
X+2914000Y+2270000D01*
X+2914000Y+2206500D02*
X+3422000Y+2206500D01*
X+3422000Y+2333500D01*
X+2914000Y+2333500D01*
X+2914000Y+2206500D01*
X+3422000Y+2270000D02*
X+3549000Y+2270000D01*
X+3061320Y+2363980D02*
X+3061320Y+2440180D01*
X+3127995Y+2440180D01*
X+3141330Y+2427480D01*
X+3141330Y+2414780D01*
X+3127995Y+2402080D01*
X+3061320Y+2402080D01*
X+3127995Y+2402080D02*
X+3141330Y+2389380D01*
X+3141330Y+2363980D01*
X+3181335Y+2427480D02*
X+3194670Y+2440180D01*
X+3234675Y+2440180D01*
X+3248010Y+2427480D01*
X+3248010Y+2414780D01*
X+3234675Y+2402080D01*
X+3248010Y+2389380D01*
X+3248010Y+2376680D01*
X+3234675Y+2363980D01*
X+3194670Y+2363980D01*
X+3181335Y+2376680D01*
X+3208005Y+2402080D02*
X+3234675Y+2402080D01*
X+3787000Y+540000D02*
X+3914000Y+540000D01*
X+3914000Y+476500D02*
X+4422000Y+476500D01*
X+4422000Y+603500D01*
X+3914000Y+603500D01*
X+3914000Y+476500D01*
X+4422000Y+540000D02*
X+4549000Y+540000D01*
X+4061320Y+633980D02*
X+4061320Y+710180D01*
X+4127995Y+710180D01*
X+4141330Y+697480D01*
X+4141330Y+684780D01*
X+4127995Y+672080D01*
X+4061320Y+672080D01*
X+4127995Y+672080D02*
X+4141330Y+659380D01*
X+4141330Y+633980D01*
X+4248010Y+659380D02*
X+4168000Y+659380D01*
X+4221340Y+710180D01*
X+4221340Y+633980D01*
X+3407000Y-1470000D02*
X+3534000Y-1470000D01*
X+3534000Y-1533500D02*
X+4042000Y-1533500D01*
X+4042000Y-1406500D01*
X+3534000Y-1406500D01*
X+3534000Y-1533500D01*
X+4042000Y-1470000D02*
X+4169000Y-1470000D01*
X+3681320Y-1376020D02*
X+3681320Y-1299820D01*
X+3747995Y-1299820D01*
X+3761330Y-1312520D01*
X+3761330Y-1325220D01*
X+3747995Y-1337920D01*
X+3681320Y-1337920D01*
X+3747995Y-1337920D02*
X+3761330Y-1350620D01*
X+3761330Y-1376020D01*
X+3868010Y-1299820D02*
X+3801335Y-1299820D01*
X+3801335Y-1325220D01*
X+3854675Y-1325220D01*
X+3868010Y-1337920D01*
X+3868010Y-1363320D01*
X+3854675Y-1376020D01*
X+3814670Y-1376020D01*
X+3801335Y-1363320D01*
X+1857000Y-3340000D02*
X+1984000Y-3340000D01*
X+1984000Y-3403500D02*
X+2492000Y-3403500D01*
X+2492000Y-3276500D01*
X+1984000Y-3276500D01*
X+1984000Y-3403500D01*
X+2492000Y-3340000D02*
X+2619000Y-3340000D01*
X+2131320Y-3246020D02*
X+2131320Y-3169820D01*
X+2197995Y-3169820D01*
X+2211330Y-3182520D01*
X+2211330Y-3195220D01*
X+2197995Y-3207920D01*
X+2131320Y-3207920D01*
X+2197995Y-3207920D02*
X+2211330Y-3220620D01*
X+2211330Y-3246020D01*
X+2318010Y-3182520D02*
X+2304675Y-3169820D01*
X+2264670Y-3169820D01*
X+2251335Y-3182520D01*
X+2251335Y-3233320D01*
X+2264670Y-3246020D01*
X+2304675Y-3246020D01*
X+2318010Y-3233320D01*
X+2318010Y-3220620D01*
X+2304675Y-3207920D01*
X+2251335Y-3207920D01*
X+257000Y-4260000D02*
X+384000Y-4260000D01*
X+384000Y-4323500D02*
X+892000Y-4323500D01*
X+892000Y-4196500D01*
X+384000Y-4196500D01*
X+384000Y-4323500D01*
X+892000Y-4260000D02*
X+1019000Y-4260000D01*
X+531320Y-4166020D02*
X+531320Y-4089820D01*
X+597995Y-4089820D01*
X+611330Y-4102520D01*
X+611330Y-4115220D01*
X+597995Y-4127920D01*
X+531320Y-4127920D01*
X+597995Y-4127920D02*
X+611330Y-4140620D01*
X+611330Y-4166020D01*
X+651335Y-4089820D02*
X+718010Y-4089820D01*
X+718010Y-4102520D01*
X+651335Y-4166020D01*
X-3243000Y-3000000D02*
X-3116000Y-3000000D01*
X-3116000Y-3063500D02*
X-2608000Y-3063500D01*
X-2608000Y-2936500D01*
X-3116000Y-2936500D01*
X-3116000Y-3063500D01*
X-2608000Y-3000000D02*
X-2481000Y-3000000D01*
X-2968680Y-2906020D02*
X-2968680Y-2829820D01*
X-2902005Y-2829820D01*
X-2888670Y-2842520D01*
X-2888670Y-2855220D01*
X-2902005Y-2867920D01*
X-2968680Y-2867920D01*
X-2902005Y-2867920D02*
X-2888670Y-2880620D01*
X-2888670Y-2906020D01*
X-2835330Y-2867920D02*
X-2848665Y-2855220D01*
X-2848665Y-2842520D01*
X-2835330Y-2829820D01*
X-2795325Y-2829820D01*
X-2781990Y-2842520D01*
X-2781990Y-2855220D01*
X-2795325Y-2867920D01*
X-2835330Y-2867920D01*
X-2848665Y-2880620D01*
X-2848665Y-2893320D01*
X-2835330Y-2906020D01*
X-2795325Y-2906020D01*
X-2781990Y-2893320D01*
X-2781990Y-2880620D01*
X-2795325Y-2867920D01*
X-4433000Y-960000D02*
X-4306000Y-960000D01*
X-4306000Y-1023500D02*
X-3798000Y-1023500D01*
X-3798000Y-896500D01*
X-4306000Y-896500D01*
X-4306000Y-1023500D01*
X-3798000Y-960000D02*
X-3671000Y-960000D01*
X-4158680Y-866020D02*
X-4158680Y-789820D01*
X-4092005Y-789820D01*
X-4078670Y-802520D01*
X-4078670Y-815220D01*
X-4092005Y-827920D01*
X-4158680Y-827920D01*
X-4092005Y-827920D02*
X-4078670Y-840620D01*
X-4078670Y-866020D01*
X-3971990Y-815220D02*
X-3985325Y-827920D01*
X-4025330Y-827920D01*
X-4038665Y-815220D01*
X-4038665Y-802520D01*
X-4025330Y-789820D01*
X-3985325Y-789820D01*
X-3971990Y-802520D01*
X-3971990Y-853320D01*
X-3985325Y-866020D01*
X-4025330Y-866020D01*
X-4043000Y+720000D02*
X-3916000Y+720000D01*
X-3916000Y+656500D02*
X-3408000Y+656500D01*
X-3408000Y+783500D01*
X-3916000Y+783500D01*
X-3916000Y+656500D01*
X-3408000Y+720000D02*
X-3281000Y+720000D01*
X-3822020Y+813980D02*
X-3822020Y+890180D01*
X-3755345Y+890180D01*
X-3742010Y+877480D01*
X-3742010Y+864780D01*
X-3755345Y+852080D01*
X-3822020Y+852080D01*
X-3755345Y+852080D02*
X-3742010Y+839380D01*
X-3742010Y+813980D01*
X-3688670Y+864780D02*
X-3662000Y+890180D01*
X-3662000Y+813980D01*
X-3608660Y+826680D02*
X-3608660Y+877480D01*
X-3595325Y+890180D01*
X-3541985Y+890180D01*
X-3528650Y+877480D01*
X-3528650Y+826680D01*
X-3541985Y+813980D01*
X-3595325Y+813980D01*
X-3608660Y+826680D01*
X-3608660Y+813980D02*
X-3528650Y+890180D01*
X-3463000Y+2290000D02*
X-3336000Y+2290000D01*
X-3336000Y+2226500D02*
X-2828000Y+2226500D01*
X-2828000Y+2353500D01*
X-3336000Y+2353500D01*
X-3336000Y+2226500D01*
X-2828000Y+2290000D02*
X-2701000Y+2290000D01*
X-3242020Y+2383980D02*
X-3242020Y+2460180D01*
X-3175345Y+2460180D01*
X-3162010Y+2447480D01*
X-3162010Y+2434780D01*
X-3175345Y+2422080D01*
X-3242020Y+2422080D01*
X-3175345Y+2422080D02*
X-3162010Y+2409380D01*
X-3162010Y+2383980D01*
X-3108670Y+2434780D02*
X-3082000Y+2460180D01*
X-3082000Y+2383980D01*
X-3001990Y+2434780D02*
X-2975320Y+2460180D01*
X-2975320Y+2383980D01*
X-2463000Y+3890000D02*
X-2336000Y+3890000D01*
X-2336000Y+3826500D02*
X-1828000Y+3826500D01*
X-1828000Y+3953500D01*
X-2336000Y+3953500D01*
X-2336000Y+3826500D01*
X-1828000Y+3890000D02*
X-1701000Y+3890000D01*
X-2242020Y+3983980D02*
X-2242020Y+4060180D01*
X-2175345Y+4060180D01*
X-2162010Y+4047480D01*
X-2162010Y+4034780D01*
X-2175345Y+4022080D01*
X-2242020Y+4022080D01*
X-2175345Y+4022080D02*
X-2162010Y+4009380D01*
X-2162010Y+3983980D01*
X-2108670Y+4034780D02*
X-2082000Y+4060180D01*
X-2082000Y+3983980D01*
X-2015325Y+4047480D02*
X-2001990Y+4060180D01*
X-1961985Y+4060180D01*
X-1948650Y+4047480D01*
X-1948650Y+4034780D01*
X-1961985Y+4022080D01*
X-2001990Y+4022080D01*
X-2015325Y+4009380D01*
X-2015325Y+3983980D01*
X-1948650Y+3983980D01*
X-513000Y+4300000D02*
X-386000Y+4300000D01*
X-386000Y+4236500D02*
X+122000Y+4236500D01*
X+122000Y+4363500D01*
X-386000Y+4363500D01*
X-386000Y+4236500D01*
X+122000Y+4300000D02*
X+249000Y+4300000D01*
X-292020Y+4393980D02*
X-292020Y+4470180D01*
X-225345Y+4470180D01*
X-212010Y+4457480D01*
X-212010Y+4444780D01*
X-225345Y+4432080D01*
X-292020Y+4432080D01*
X-225345Y+4432080D02*
X-212010Y+4419380D01*
X-212010Y+4393980D01*
X-158670Y+4444780D02*
X-132000Y+4470180D01*
X-132000Y+4393980D01*
X-65325Y+4457480D02*
X-51990Y+4470180D01*
X-11985Y+4470180D01*
X+1350Y+4457480D01*
X+1350Y+4444780D01*
X-11985Y+4432080D01*
X+1350Y+4419380D01*
X+1350Y+4406680D01*
X-11985Y+4393980D01*
X-51990Y+4393980D01*
X-65325Y+4406680D01*
X-38655Y+4432080D02*
X-11985Y+4432080D01*
X-1833000Y-3940000D02*
X-1706000Y-3940000D01*
X-1706000Y-4003500D02*
X-1198000Y-4003500D01*
X-1198000Y-3876500D01*
X-1706000Y-3876500D01*
X-1706000Y-4003500D01*
X-1198000Y-3940000D02*
X-1071000Y-3940000D01*
X-1612020Y-3846020D02*
X-1612020Y-3769820D01*
X-1545345Y-3769820D01*
X-1532010Y-3782520D01*
X-1532010Y-3795220D01*
X-1545345Y-3807920D01*
X-1612020Y-3807920D01*
X-1545345Y-3807920D02*
X-1532010Y-3820620D01*
X-1532010Y-3846020D01*
X-1478670Y-3795220D02*
X-1452000Y-3769820D01*
X-1452000Y-3846020D01*
X-1318650Y-3820620D02*
X-1398660Y-3820620D01*
X-1345320Y-3769820D01*
X-1345320Y-3846020D01*
M02*
