G04 PROTEUS GERBER X2 FILE*
%TF.GenerationSoftware,Labcenter,Proteus,8.17-SP2-Build37159*%
%TF.CreationDate,2024-06-19T13:44:36+00:00*%
%TF.FileFunction,AssemblyDrawing,Top*%
%TF.FilePolarity,Positive*%
%TF.Part,Single*%
%TF.SameCoordinates,{1d89ed81-d2fc-43df-ac84-501309ecc539}*%
%FSLAX45Y45*%
%MOMM*%
G01*
%TA.AperFunction,Profile*%
%ADD71C,0.101600*%
%TA.AperFunction,Material*%
%ADD22C,0.101600*%
%ADD33C,0.423870*%
%ADD34C,0.409460*%
%ADD35C,0.050000*%
%ADD36C,0.339400*%
%ADD37C,0.237340*%
%ADD38C,0.812800*%
%ADD39C,0.083820*%
%ADD40C,0.111760*%
%ADD41C,0.171190*%
%ADD21C,0.152400*%
%ADD42C,0.558800*%
%ADD43C,0.114270*%
%ADD44C,0.609600*%
%ADD45C,0.114800*%
%ADD46C,0.711200*%
%ADD47C,0.113450*%
%ADD48C,0.117340*%
%TD.AperFunction*%
D71*
X+6517204Y-40000D02*
X+6510628Y+252247D01*
X+6457778Y+836742D01*
X+6350754Y+1421237D01*
X+6186737Y+2005732D01*
X+5961007Y+2590227D01*
X+5666169Y+3174722D01*
X+5290637Y+3759217D01*
X+4815490Y+4343712D01*
X+4240227Y+4899974D01*
X+3655732Y+5344711D01*
X+3071237Y+5696167D01*
X+2486742Y+5970727D01*
X+1902247Y+6178586D01*
X+1317752Y+6326278D01*
X+733257Y+6417935D01*
X+148762Y+6455928D01*
X+20000Y+6457204D01*
X-6477204Y-40000D02*
X-6470628Y+252247D01*
X-6417778Y+836742D01*
X-6310754Y+1421237D01*
X-6146737Y+2005732D01*
X-5921007Y+2590227D01*
X-5626169Y+3174722D01*
X-5250637Y+3759217D01*
X-4775490Y+4343712D01*
X-4200227Y+4899974D01*
X-3615732Y+5344711D01*
X-3031237Y+5696167D01*
X-2446742Y+5970727D01*
X-1862247Y+6178586D01*
X-1277752Y+6326278D01*
X-693257Y+6417935D01*
X-108762Y+6455928D01*
X+20000Y+6457204D01*
X-6477204Y-40000D02*
X-6470628Y-332247D01*
X-6417778Y-916742D01*
X-6310754Y-1501237D01*
X-6146737Y-2085732D01*
X-5921007Y-2670227D01*
X-5626169Y-3254722D01*
X-5250637Y-3839217D01*
X-4775490Y-4423712D01*
X-4200227Y-4979974D01*
X-3615732Y-5424711D01*
X-3031237Y-5776167D01*
X-2446742Y-6050727D01*
X-1862247Y-6258586D01*
X-1277752Y-6406278D01*
X-693257Y-6497935D01*
X-108762Y-6535928D01*
X+20000Y-6537204D01*
X+6517204Y-40000D02*
X+6510628Y-332247D01*
X+6457778Y-916742D01*
X+6350754Y-1501237D01*
X+6186737Y-2085732D01*
X+5961007Y-2670227D01*
X+5666169Y-3254722D01*
X+5290637Y-3839217D01*
X+4815490Y-4423712D01*
X+4240227Y-4979974D01*
X+3655732Y-5424711D01*
X+3071237Y-5776167D01*
X+2486742Y-6050727D01*
X+1902247Y-6258586D01*
X+1317752Y-6406278D01*
X+733257Y-6497935D01*
X+148762Y-6535928D01*
X+20000Y-6537204D01*
D22*
X-934820Y-466930D02*
X+1010820Y-466930D01*
X+1010820Y+444930D01*
X-934820Y+444930D01*
X-934820Y-466930D01*
D33*
X-724000Y-392000D02*
X-724000Y-392000D01*
D34*
X-330515Y+159900D02*
X-330515Y-44831D01*
X-284451Y-85777D01*
X-100194Y-85777D01*
X-54129Y-44831D01*
X-54129Y+159900D01*
X+130128Y+78008D02*
X+222257Y+159900D01*
X+222257Y-85777D01*
D35*
X-3105000Y-1915000D02*
X-3105000Y-865000D01*
X-2275000Y-865000D01*
X-2275000Y-1915000D01*
X-3105000Y-1915000D01*
D36*
X-2944000Y-1830000D02*
X-2944000Y-1830000D01*
D37*
X-2761203Y-1551374D02*
X-2642531Y-1551374D01*
X-2618796Y-1524673D01*
X-2618796Y-1417869D01*
X-2642531Y-1391168D01*
X-2761203Y-1391168D01*
X-2737468Y-1311064D02*
X-2761203Y-1284363D01*
X-2761203Y-1204260D01*
X-2737468Y-1177559D01*
X-2713734Y-1177559D01*
X-2690000Y-1204260D01*
X-2690000Y-1284363D01*
X-2666265Y-1311064D01*
X-2618796Y-1311064D01*
X-2618796Y-1177559D01*
D22*
X-1998080Y-42080D02*
X-1479920Y-42080D01*
X-1479920Y+222080D01*
X-1998080Y+222080D01*
X-1998080Y-42080D01*
D38*
X-1612000Y+90000D02*
X-1612000Y+90000D01*
D39*
X-1976236Y+64854D02*
X-1976236Y+115146D01*
X-1929088Y+115146D01*
X-1919658Y+106764D01*
X-1919658Y+98382D01*
X-1929088Y+90000D01*
X-1919658Y+81618D01*
X-1919658Y+73236D01*
X-1929088Y+64854D01*
X-1976236Y+64854D01*
X-1976236Y+90000D02*
X-1929088Y+90000D01*
X-1900798Y+115146D02*
X-1900798Y+73236D01*
X-1891369Y+64854D01*
X-1853650Y+64854D01*
X-1844220Y+73236D01*
X-1844220Y+115146D01*
X-1825360Y+115146D02*
X-1768782Y+115146D01*
X-1825360Y+64854D01*
X-1768782Y+64854D01*
X-1731063Y+98382D02*
X-1712203Y+115146D01*
X-1712203Y+64854D01*
D22*
X-2952080Y+127920D02*
X-2433920Y+127920D01*
X-2433920Y+392080D01*
X-2952080Y+392080D01*
X-2952080Y+127920D01*
D38*
X-2820000Y+260000D02*
X-2820000Y+260000D01*
D40*
X-2757516Y+248824D02*
X-2757516Y+237648D01*
X-2744943Y+226472D01*
X-2694651Y+226472D01*
X-2682078Y+237648D01*
X-2682078Y+293528D01*
X-2656932Y+226472D02*
X-2656932Y+293528D01*
X-2594067Y+293528D01*
X-2581494Y+282352D01*
X-2581494Y+271176D01*
X-2594067Y+260000D01*
X-2656932Y+260000D01*
X-2531202Y+271176D02*
X-2506056Y+293528D01*
X-2506056Y+226472D01*
D22*
X+114420Y+5160920D02*
X+696080Y+5160920D01*
X+696080Y+5742580D01*
X+114420Y+5742580D01*
X+114420Y+5160920D01*
D38*
X+564000Y+5420000D02*
X+564000Y+5420000D01*
D41*
X+370249Y+5297674D02*
X+267532Y+5297674D01*
X+267532Y+5374712D01*
X+301771Y+5413231D01*
X+336010Y+5413231D01*
X+370249Y+5374712D01*
X+370249Y+5297674D01*
X+301771Y+5490269D02*
X+267532Y+5528788D01*
X+370249Y+5528788D01*
D22*
X+1034420Y+5060920D02*
X+1616080Y+5060920D01*
X+1616080Y+5642580D01*
X+1034420Y+5642580D01*
X+1034420Y+5060920D01*
D38*
X+1484000Y+5320000D02*
X+1484000Y+5320000D01*
D41*
X+1290249Y+5197674D02*
X+1187532Y+5197674D01*
X+1187532Y+5274712D01*
X+1221771Y+5313231D01*
X+1256010Y+5313231D01*
X+1290249Y+5274712D01*
X+1290249Y+5197674D01*
X+1204651Y+5371009D02*
X+1187532Y+5390269D01*
X+1187532Y+5448047D01*
X+1204651Y+5467307D01*
X+1221771Y+5467307D01*
X+1238890Y+5448047D01*
X+1238890Y+5390269D01*
X+1256010Y+5371009D01*
X+1290249Y+5371009D01*
X+1290249Y+5467307D01*
D22*
X+1840420Y+4820920D02*
X+2422080Y+4820920D01*
X+2422080Y+5402580D01*
X+1840420Y+5402580D01*
X+1840420Y+4820920D01*
D38*
X+2290000Y+5080000D02*
X+2290000Y+5080000D01*
D41*
X+2096249Y+4957674D02*
X+1993532Y+4957674D01*
X+1993532Y+5034712D01*
X+2027771Y+5073231D01*
X+2062010Y+5073231D01*
X+2096249Y+5034712D01*
X+2096249Y+4957674D01*
X+2010651Y+5131009D02*
X+1993532Y+5150269D01*
X+1993532Y+5208047D01*
X+2010651Y+5227307D01*
X+2027771Y+5227307D01*
X+2044890Y+5208047D01*
X+2062010Y+5227307D01*
X+2079130Y+5227307D01*
X+2096249Y+5208047D01*
X+2096249Y+5150269D01*
X+2079130Y+5131009D01*
X+2044890Y+5169528D02*
X+2044890Y+5208047D01*
D22*
X+2630420Y+4350920D02*
X+3212080Y+4350920D01*
X+3212080Y+4932580D01*
X+2630420Y+4932580D01*
X+2630420Y+4350920D01*
D38*
X+3080000Y+4610000D02*
X+3080000Y+4610000D01*
D41*
X+2886249Y+4487674D02*
X+2783532Y+4487674D01*
X+2783532Y+4564712D01*
X+2817771Y+4603231D01*
X+2852010Y+4603231D01*
X+2886249Y+4564712D01*
X+2886249Y+4487674D01*
X+2852010Y+4757307D02*
X+2852010Y+4641750D01*
X+2783532Y+4718788D01*
X+2886249Y+4718788D01*
D22*
X+3274420Y+3850920D02*
X+3856080Y+3850920D01*
X+3856080Y+4432580D01*
X+3274420Y+4432580D01*
X+3274420Y+3850920D01*
D38*
X+3724000Y+4110000D02*
X+3724000Y+4110000D01*
D41*
X+3530249Y+3987674D02*
X+3427532Y+3987674D01*
X+3427532Y+4064712D01*
X+3461771Y+4103231D01*
X+3496010Y+4103231D01*
X+3530249Y+4064712D01*
X+3530249Y+3987674D01*
X+3427532Y+4257307D02*
X+3427532Y+4161009D01*
X+3461771Y+4161009D01*
X+3461771Y+4238047D01*
X+3478890Y+4257307D01*
X+3513130Y+4257307D01*
X+3530249Y+4238047D01*
X+3530249Y+4180269D01*
X+3513130Y+4161009D01*
D22*
X+3820420Y+3190920D02*
X+4402080Y+3190920D01*
X+4402080Y+3772580D01*
X+3820420Y+3772580D01*
X+3820420Y+3190920D01*
D38*
X+4270000Y+3450000D02*
X+4270000Y+3450000D01*
D41*
X+4076249Y+3327674D02*
X+3973532Y+3327674D01*
X+3973532Y+3404712D01*
X+4007771Y+3443231D01*
X+4042010Y+3443231D01*
X+4076249Y+3404712D01*
X+4076249Y+3327674D01*
X+3990651Y+3597307D02*
X+3973532Y+3578047D01*
X+3973532Y+3520269D01*
X+3990651Y+3501009D01*
X+4059130Y+3501009D01*
X+4076249Y+3520269D01*
X+4076249Y+3578047D01*
X+4059130Y+3597307D01*
X+4042010Y+3597307D01*
X+4024890Y+3578047D01*
X+4024890Y+3501009D01*
D22*
X+4430420Y+2360920D02*
X+5012080Y+2360920D01*
X+5012080Y+2942580D01*
X+4430420Y+2942580D01*
X+4430420Y+2360920D01*
D38*
X+4880000Y+2620000D02*
X+4880000Y+2620000D01*
D41*
X+4686249Y+2497674D02*
X+4583532Y+2497674D01*
X+4583532Y+2574712D01*
X+4617771Y+2613231D01*
X+4652010Y+2613231D01*
X+4686249Y+2574712D01*
X+4686249Y+2497674D01*
X+4583532Y+2671009D02*
X+4583532Y+2767307D01*
X+4600651Y+2767307D01*
X+4686249Y+2671009D01*
D22*
X+4994420Y+1280920D02*
X+5576080Y+1280920D01*
X+5576080Y+1862580D01*
X+4994420Y+1862580D01*
X+4994420Y+1280920D01*
D38*
X+5444000Y+1540000D02*
X+5444000Y+1540000D01*
D41*
X+5250249Y+1417674D02*
X+5147532Y+1417674D01*
X+5147532Y+1494712D01*
X+5181771Y+1533231D01*
X+5216010Y+1533231D01*
X+5250249Y+1494712D01*
X+5250249Y+1417674D01*
X+5198890Y+1610269D02*
X+5181771Y+1591009D01*
X+5164651Y+1591009D01*
X+5147532Y+1610269D01*
X+5147532Y+1668047D01*
X+5164651Y+1687307D01*
X+5181771Y+1687307D01*
X+5198890Y+1668047D01*
X+5198890Y+1610269D01*
X+5216010Y+1591009D01*
X+5233130Y+1591009D01*
X+5250249Y+1610269D01*
X+5250249Y+1668047D01*
X+5233130Y+1687307D01*
X+5216010Y+1687307D01*
X+5198890Y+1668047D01*
D22*
X+5204420Y+420920D02*
X+5786080Y+420920D01*
X+5786080Y+1002580D01*
X+5204420Y+1002580D01*
X+5204420Y+420920D01*
D38*
X+5654000Y+680000D02*
X+5654000Y+680000D01*
D41*
X+5460249Y+557674D02*
X+5357532Y+557674D01*
X+5357532Y+634712D01*
X+5391771Y+673231D01*
X+5426010Y+673231D01*
X+5460249Y+634712D01*
X+5460249Y+557674D01*
X+5391771Y+827307D02*
X+5408890Y+808047D01*
X+5408890Y+750269D01*
X+5391771Y+731009D01*
X+5374651Y+731009D01*
X+5357532Y+750269D01*
X+5357532Y+808047D01*
X+5374651Y+827307D01*
X+5443130Y+827307D01*
X+5460249Y+808047D01*
X+5460249Y+750269D01*
D22*
X+5208420Y-669080D02*
X+5790080Y-669080D01*
X+5790080Y-87420D01*
X+5208420Y-87420D01*
X+5208420Y-669080D01*
D38*
X+5658000Y-410000D02*
X+5658000Y-410000D01*
D41*
X+5464249Y-609364D02*
X+5361532Y-609364D01*
X+5361532Y-532326D01*
X+5395771Y-493807D01*
X+5430010Y-493807D01*
X+5464249Y-532326D01*
X+5464249Y-609364D01*
X+5395771Y-416769D02*
X+5361532Y-378250D01*
X+5464249Y-378250D01*
X+5447130Y-301212D02*
X+5378651Y-301212D01*
X+5361532Y-281953D01*
X+5361532Y-204915D01*
X+5378651Y-185655D01*
X+5447130Y-185655D01*
X+5464249Y-204915D01*
X+5464249Y-281953D01*
X+5447130Y-301212D01*
X+5464249Y-301212D02*
X+5361532Y-185655D01*
D22*
X+5004420Y-1539080D02*
X+5586080Y-1539080D01*
X+5586080Y-957420D01*
X+5004420Y-957420D01*
X+5004420Y-1539080D01*
D38*
X+5454000Y-1280000D02*
X+5454000Y-1280000D01*
D41*
X+5260249Y-1479364D02*
X+5157532Y-1479364D01*
X+5157532Y-1402326D01*
X+5191771Y-1363807D01*
X+5226010Y-1363807D01*
X+5260249Y-1402326D01*
X+5260249Y-1479364D01*
X+5191771Y-1286769D02*
X+5157532Y-1248250D01*
X+5260249Y-1248250D01*
X+5191771Y-1132693D02*
X+5157532Y-1094174D01*
X+5260249Y-1094174D01*
D22*
X+4504420Y-2529080D02*
X+5086080Y-2529080D01*
X+5086080Y-1947420D01*
X+4504420Y-1947420D01*
X+4504420Y-2529080D01*
D38*
X+4954000Y-2270000D02*
X+4954000Y-2270000D01*
D41*
X+4760249Y-2469364D02*
X+4657532Y-2469364D01*
X+4657532Y-2392326D01*
X+4691771Y-2353807D01*
X+4726010Y-2353807D01*
X+4760249Y-2392326D01*
X+4760249Y-2469364D01*
X+4691771Y-2276769D02*
X+4657532Y-2238250D01*
X+4760249Y-2238250D01*
X+4674651Y-2141953D02*
X+4657532Y-2122693D01*
X+4657532Y-2064915D01*
X+4674651Y-2045655D01*
X+4691771Y-2045655D01*
X+4708890Y-2064915D01*
X+4708890Y-2122693D01*
X+4726010Y-2141953D01*
X+4760249Y-2141953D01*
X+4760249Y-2045655D01*
D22*
X+3800420Y-3549080D02*
X+4382080Y-3549080D01*
X+4382080Y-2967420D01*
X+3800420Y-2967420D01*
X+3800420Y-3549080D01*
D38*
X+4250000Y-3290000D02*
X+4250000Y-3290000D01*
D41*
X+4056249Y-3489364D02*
X+3953532Y-3489364D01*
X+3953532Y-3412326D01*
X+3987771Y-3373807D01*
X+4022010Y-3373807D01*
X+4056249Y-3412326D01*
X+4056249Y-3489364D01*
X+3987771Y-3296769D02*
X+3953532Y-3258250D01*
X+4056249Y-3258250D01*
X+3970651Y-3161953D02*
X+3953532Y-3142693D01*
X+3953532Y-3084915D01*
X+3970651Y-3065655D01*
X+3987771Y-3065655D01*
X+4004890Y-3084915D01*
X+4022010Y-3065655D01*
X+4039130Y-3065655D01*
X+4056249Y-3084915D01*
X+4056249Y-3142693D01*
X+4039130Y-3161953D01*
X+4004890Y-3123434D02*
X+4004890Y-3084915D01*
D22*
X+2980420Y-4419080D02*
X+3562080Y-4419080D01*
X+3562080Y-3837420D01*
X+2980420Y-3837420D01*
X+2980420Y-4419080D01*
D38*
X+3430000Y-4160000D02*
X+3430000Y-4160000D01*
D41*
X+3236249Y-4359364D02*
X+3133532Y-4359364D01*
X+3133532Y-4282326D01*
X+3167771Y-4243807D01*
X+3202010Y-4243807D01*
X+3236249Y-4282326D01*
X+3236249Y-4359364D01*
X+3167771Y-4166769D02*
X+3133532Y-4128250D01*
X+3236249Y-4128250D01*
X+3202010Y-3935655D02*
X+3202010Y-4051212D01*
X+3133532Y-3974174D01*
X+3236249Y-3974174D01*
D22*
X+2254420Y-4979080D02*
X+2836080Y-4979080D01*
X+2836080Y-4397420D01*
X+2254420Y-4397420D01*
X+2254420Y-4979080D01*
D38*
X+2704000Y-4720000D02*
X+2704000Y-4720000D01*
D41*
X+2510249Y-4919364D02*
X+2407532Y-4919364D01*
X+2407532Y-4842326D01*
X+2441771Y-4803807D01*
X+2476010Y-4803807D01*
X+2510249Y-4842326D01*
X+2510249Y-4919364D01*
X+2441771Y-4726769D02*
X+2407532Y-4688250D01*
X+2510249Y-4688250D01*
X+2407532Y-4495655D02*
X+2407532Y-4591953D01*
X+2441771Y-4591953D01*
X+2441771Y-4514915D01*
X+2458890Y-4495655D01*
X+2493130Y-4495655D01*
X+2510249Y-4514915D01*
X+2510249Y-4572693D01*
X+2493130Y-4591953D01*
D22*
X+1254420Y-5499080D02*
X+1836080Y-5499080D01*
X+1836080Y-4917420D01*
X+1254420Y-4917420D01*
X+1254420Y-5499080D01*
D38*
X+1704000Y-5240000D02*
X+1704000Y-5240000D01*
D41*
X+1510249Y-5439364D02*
X+1407532Y-5439364D01*
X+1407532Y-5362326D01*
X+1441771Y-5323807D01*
X+1476010Y-5323807D01*
X+1510249Y-5362326D01*
X+1510249Y-5439364D01*
X+1441771Y-5246769D02*
X+1407532Y-5208250D01*
X+1510249Y-5208250D01*
X+1424651Y-5015655D02*
X+1407532Y-5034915D01*
X+1407532Y-5092693D01*
X+1424651Y-5111953D01*
X+1493130Y-5111953D01*
X+1510249Y-5092693D01*
X+1510249Y-5034915D01*
X+1493130Y-5015655D01*
X+1476010Y-5015655D01*
X+1458890Y-5034915D01*
X+1458890Y-5111953D01*
D22*
X+254420Y-5689080D02*
X+836080Y-5689080D01*
X+836080Y-5107420D01*
X+254420Y-5107420D01*
X+254420Y-5689080D01*
D38*
X+704000Y-5430000D02*
X+704000Y-5430000D01*
D41*
X+510249Y-5629364D02*
X+407532Y-5629364D01*
X+407532Y-5552326D01*
X+441771Y-5513807D01*
X+476010Y-5513807D01*
X+510249Y-5552326D01*
X+510249Y-5629364D01*
X+441771Y-5436769D02*
X+407532Y-5398250D01*
X+510249Y-5398250D01*
X+407532Y-5301953D02*
X+407532Y-5205655D01*
X+424651Y-5205655D01*
X+510249Y-5301953D01*
D22*
X-835580Y-5769080D02*
X-253920Y-5769080D01*
X-253920Y-5187420D01*
X-835580Y-5187420D01*
X-835580Y-5769080D01*
D38*
X-386000Y-5510000D02*
X-386000Y-5510000D01*
D41*
X-579751Y-5709364D02*
X-682468Y-5709364D01*
X-682468Y-5632326D01*
X-648229Y-5593807D01*
X-613990Y-5593807D01*
X-579751Y-5632326D01*
X-579751Y-5709364D01*
X-648229Y-5516769D02*
X-682468Y-5478250D01*
X-579751Y-5478250D01*
X-631110Y-5362693D02*
X-648229Y-5381953D01*
X-665349Y-5381953D01*
X-682468Y-5362693D01*
X-682468Y-5304915D01*
X-665349Y-5285655D01*
X-648229Y-5285655D01*
X-631110Y-5304915D01*
X-631110Y-5362693D01*
X-613990Y-5381953D01*
X-596870Y-5381953D01*
X-579751Y-5362693D01*
X-579751Y-5304915D01*
X-596870Y-5285655D01*
X-613990Y-5285655D01*
X-631110Y-5304915D01*
D22*
X-1915580Y-5509080D02*
X-1333920Y-5509080D01*
X-1333920Y-4927420D01*
X-1915580Y-4927420D01*
X-1915580Y-5509080D01*
D38*
X-1466000Y-5250000D02*
X-1466000Y-5250000D01*
D41*
X-1659751Y-5449364D02*
X-1762468Y-5449364D01*
X-1762468Y-5372326D01*
X-1728229Y-5333807D01*
X-1693990Y-5333807D01*
X-1659751Y-5372326D01*
X-1659751Y-5449364D01*
X-1728229Y-5256769D02*
X-1762468Y-5218250D01*
X-1659751Y-5218250D01*
X-1728229Y-5025655D02*
X-1711110Y-5044915D01*
X-1711110Y-5102693D01*
X-1728229Y-5121953D01*
X-1745349Y-5121953D01*
X-1762468Y-5102693D01*
X-1762468Y-5044915D01*
X-1745349Y-5025655D01*
X-1676870Y-5025655D01*
X-1659751Y-5044915D01*
X-1659751Y-5102693D01*
D22*
X-2955580Y-5029080D02*
X-2373920Y-5029080D01*
X-2373920Y-4447420D01*
X-2955580Y-4447420D01*
X-2955580Y-5029080D01*
D38*
X-2506000Y-4770000D02*
X-2506000Y-4770000D01*
D41*
X-2699751Y-4969364D02*
X-2802468Y-4969364D01*
X-2802468Y-4892326D01*
X-2768229Y-4853807D01*
X-2733990Y-4853807D01*
X-2699751Y-4892326D01*
X-2699751Y-4969364D01*
X-2785349Y-4796029D02*
X-2802468Y-4776769D01*
X-2802468Y-4718991D01*
X-2785349Y-4699731D01*
X-2768229Y-4699731D01*
X-2751110Y-4718991D01*
X-2751110Y-4776769D01*
X-2733990Y-4796029D01*
X-2699751Y-4796029D01*
X-2699751Y-4699731D01*
X-2716870Y-4661212D02*
X-2785349Y-4661212D01*
X-2802468Y-4641953D01*
X-2802468Y-4564915D01*
X-2785349Y-4545655D01*
X-2716870Y-4545655D01*
X-2699751Y-4564915D01*
X-2699751Y-4641953D01*
X-2716870Y-4661212D01*
X-2699751Y-4661212D02*
X-2802468Y-4545655D01*
D22*
X-3785580Y-4479080D02*
X-3203920Y-4479080D01*
X-3203920Y-3897420D01*
X-3785580Y-3897420D01*
X-3785580Y-4479080D01*
D38*
X-3336000Y-4220000D02*
X-3336000Y-4220000D01*
D41*
X-3529751Y-4419364D02*
X-3632468Y-4419364D01*
X-3632468Y-4342326D01*
X-3598229Y-4303807D01*
X-3563990Y-4303807D01*
X-3529751Y-4342326D01*
X-3529751Y-4419364D01*
X-3615349Y-4246029D02*
X-3632468Y-4226769D01*
X-3632468Y-4168991D01*
X-3615349Y-4149731D01*
X-3598229Y-4149731D01*
X-3581110Y-4168991D01*
X-3581110Y-4226769D01*
X-3563990Y-4246029D01*
X-3529751Y-4246029D01*
X-3529751Y-4149731D01*
X-3598229Y-4072693D02*
X-3632468Y-4034174D01*
X-3529751Y-4034174D01*
D22*
X-4459580Y-3789080D02*
X-3877920Y-3789080D01*
X-3877920Y-3207420D01*
X-4459580Y-3207420D01*
X-4459580Y-3789080D01*
D38*
X-4010000Y-3530000D02*
X-4010000Y-3530000D01*
D41*
X-4203751Y-3729364D02*
X-4306468Y-3729364D01*
X-4306468Y-3652326D01*
X-4272229Y-3613807D01*
X-4237990Y-3613807D01*
X-4203751Y-3652326D01*
X-4203751Y-3729364D01*
X-4289349Y-3556029D02*
X-4306468Y-3536769D01*
X-4306468Y-3478991D01*
X-4289349Y-3459731D01*
X-4272229Y-3459731D01*
X-4255110Y-3478991D01*
X-4255110Y-3536769D01*
X-4237990Y-3556029D01*
X-4203751Y-3556029D01*
X-4203751Y-3459731D01*
X-4289349Y-3401953D02*
X-4306468Y-3382693D01*
X-4306468Y-3324915D01*
X-4289349Y-3305655D01*
X-4272229Y-3305655D01*
X-4255110Y-3324915D01*
X-4255110Y-3382693D01*
X-4237990Y-3401953D01*
X-4203751Y-3401953D01*
X-4203751Y-3305655D01*
D22*
X-5035580Y-2999080D02*
X-4453920Y-2999080D01*
X-4453920Y-2417420D01*
X-5035580Y-2417420D01*
X-5035580Y-2999080D01*
D38*
X-4586000Y-2740000D02*
X-4586000Y-2740000D01*
D41*
X-4779751Y-2939364D02*
X-4882468Y-2939364D01*
X-4882468Y-2862326D01*
X-4848229Y-2823807D01*
X-4813990Y-2823807D01*
X-4779751Y-2862326D01*
X-4779751Y-2939364D01*
X-4865349Y-2766029D02*
X-4882468Y-2746769D01*
X-4882468Y-2688991D01*
X-4865349Y-2669731D01*
X-4848229Y-2669731D01*
X-4831110Y-2688991D01*
X-4831110Y-2746769D01*
X-4813990Y-2766029D01*
X-4779751Y-2766029D01*
X-4779751Y-2669731D01*
X-4865349Y-2611953D02*
X-4882468Y-2592693D01*
X-4882468Y-2534915D01*
X-4865349Y-2515655D01*
X-4848229Y-2515655D01*
X-4831110Y-2534915D01*
X-4813990Y-2515655D01*
X-4796870Y-2515655D01*
X-4779751Y-2534915D01*
X-4779751Y-2592693D01*
X-4796870Y-2611953D01*
X-4831110Y-2573434D02*
X-4831110Y-2534915D01*
D22*
X-5525580Y-1999080D02*
X-4943920Y-1999080D01*
X-4943920Y-1417420D01*
X-5525580Y-1417420D01*
X-5525580Y-1999080D01*
D38*
X-5076000Y-1740000D02*
X-5076000Y-1740000D01*
D41*
X-5269751Y-1939364D02*
X-5372468Y-1939364D01*
X-5372468Y-1862326D01*
X-5338229Y-1823807D01*
X-5303990Y-1823807D01*
X-5269751Y-1862326D01*
X-5269751Y-1939364D01*
X-5355349Y-1766029D02*
X-5372468Y-1746769D01*
X-5372468Y-1688991D01*
X-5355349Y-1669731D01*
X-5338229Y-1669731D01*
X-5321110Y-1688991D01*
X-5321110Y-1746769D01*
X-5303990Y-1766029D01*
X-5269751Y-1766029D01*
X-5269751Y-1669731D01*
X-5303990Y-1515655D02*
X-5303990Y-1631212D01*
X-5372468Y-1554174D01*
X-5269751Y-1554174D01*
D22*
X-5825580Y-1209080D02*
X-5243920Y-1209080D01*
X-5243920Y-627420D01*
X-5825580Y-627420D01*
X-5825580Y-1209080D01*
D38*
X-5376000Y-950000D02*
X-5376000Y-950000D01*
D41*
X-5569751Y-1149364D02*
X-5672468Y-1149364D01*
X-5672468Y-1072326D01*
X-5638229Y-1033807D01*
X-5603990Y-1033807D01*
X-5569751Y-1072326D01*
X-5569751Y-1149364D01*
X-5655349Y-976029D02*
X-5672468Y-956769D01*
X-5672468Y-898991D01*
X-5655349Y-879731D01*
X-5638229Y-879731D01*
X-5621110Y-898991D01*
X-5621110Y-956769D01*
X-5603990Y-976029D01*
X-5569751Y-976029D01*
X-5569751Y-879731D01*
X-5672468Y-725655D02*
X-5672468Y-821953D01*
X-5638229Y-821953D01*
X-5638229Y-744915D01*
X-5621110Y-725655D01*
X-5586870Y-725655D01*
X-5569751Y-744915D01*
X-5569751Y-802693D01*
X-5586870Y-821953D01*
D22*
X-5985580Y-349080D02*
X-5403920Y-349080D01*
X-5403920Y+232580D01*
X-5985580Y+232580D01*
X-5985580Y-349080D01*
D38*
X-5536000Y-90000D02*
X-5536000Y-90000D01*
D41*
X-5729751Y-289364D02*
X-5832468Y-289364D01*
X-5832468Y-212326D01*
X-5798229Y-173807D01*
X-5763990Y-173807D01*
X-5729751Y-212326D01*
X-5729751Y-289364D01*
X-5815349Y-116029D02*
X-5832468Y-96769D01*
X-5832468Y-38991D01*
X-5815349Y-19731D01*
X-5798229Y-19731D01*
X-5781110Y-38991D01*
X-5781110Y-96769D01*
X-5763990Y-116029D01*
X-5729751Y-116029D01*
X-5729751Y-19731D01*
X-5815349Y+134345D02*
X-5832468Y+115085D01*
X-5832468Y+57307D01*
X-5815349Y+38047D01*
X-5746870Y+38047D01*
X-5729751Y+57307D01*
X-5729751Y+115085D01*
X-5746870Y+134345D01*
X-5763990Y+134345D01*
X-5781110Y+115085D01*
X-5781110Y+38047D01*
D22*
X-5919580Y+430920D02*
X-5337920Y+430920D01*
X-5337920Y+1012580D01*
X-5919580Y+1012580D01*
X-5919580Y+430920D01*
D38*
X-5470000Y+690000D02*
X-5470000Y+690000D01*
D41*
X-5663751Y+490636D02*
X-5766468Y+490636D01*
X-5766468Y+567674D01*
X-5732229Y+606193D01*
X-5697990Y+606193D01*
X-5663751Y+567674D01*
X-5663751Y+490636D01*
X-5749349Y+663971D02*
X-5766468Y+683231D01*
X-5766468Y+741009D01*
X-5749349Y+760269D01*
X-5732229Y+760269D01*
X-5715110Y+741009D01*
X-5715110Y+683231D01*
X-5697990Y+663971D01*
X-5663751Y+663971D01*
X-5663751Y+760269D01*
X-5766468Y+818047D02*
X-5766468Y+914345D01*
X-5749349Y+914345D01*
X-5663751Y+818047D01*
D22*
X-5725580Y+1140920D02*
X-5143920Y+1140920D01*
X-5143920Y+1722580D01*
X-5725580Y+1722580D01*
X-5725580Y+1140920D01*
D38*
X-5276000Y+1400000D02*
X-5276000Y+1400000D01*
D41*
X-5469751Y+1200636D02*
X-5572468Y+1200636D01*
X-5572468Y+1277674D01*
X-5538229Y+1316193D01*
X-5503990Y+1316193D01*
X-5469751Y+1277674D01*
X-5469751Y+1200636D01*
X-5555349Y+1373971D02*
X-5572468Y+1393231D01*
X-5572468Y+1451009D01*
X-5555349Y+1470269D01*
X-5538229Y+1470269D01*
X-5521110Y+1451009D01*
X-5521110Y+1393231D01*
X-5503990Y+1373971D01*
X-5469751Y+1373971D01*
X-5469751Y+1470269D01*
X-5521110Y+1547307D02*
X-5538229Y+1528047D01*
X-5555349Y+1528047D01*
X-5572468Y+1547307D01*
X-5572468Y+1605085D01*
X-5555349Y+1624345D01*
X-5538229Y+1624345D01*
X-5521110Y+1605085D01*
X-5521110Y+1547307D01*
X-5503990Y+1528047D01*
X-5486870Y+1528047D01*
X-5469751Y+1547307D01*
X-5469751Y+1605085D01*
X-5486870Y+1624345D01*
X-5503990Y+1624345D01*
X-5521110Y+1605085D01*
D22*
X-5555580Y+1780920D02*
X-4973920Y+1780920D01*
X-4973920Y+2362580D01*
X-5555580Y+2362580D01*
X-5555580Y+1780920D01*
D38*
X-5106000Y+2040000D02*
X-5106000Y+2040000D01*
D41*
X-5299751Y+1840636D02*
X-5402468Y+1840636D01*
X-5402468Y+1917674D01*
X-5368229Y+1956193D01*
X-5333990Y+1956193D01*
X-5299751Y+1917674D01*
X-5299751Y+1840636D01*
X-5385349Y+2013971D02*
X-5402468Y+2033231D01*
X-5402468Y+2091009D01*
X-5385349Y+2110269D01*
X-5368229Y+2110269D01*
X-5351110Y+2091009D01*
X-5351110Y+2033231D01*
X-5333990Y+2013971D01*
X-5299751Y+2013971D01*
X-5299751Y+2110269D01*
X-5368229Y+2264345D02*
X-5351110Y+2245085D01*
X-5351110Y+2187307D01*
X-5368229Y+2168047D01*
X-5385349Y+2168047D01*
X-5402468Y+2187307D01*
X-5402468Y+2245085D01*
X-5385349Y+2264345D01*
X-5316870Y+2264345D01*
X-5299751Y+2245085D01*
X-5299751Y+2187307D01*
D22*
X-5135580Y+2350920D02*
X-4553920Y+2350920D01*
X-4553920Y+2932580D01*
X-5135580Y+2932580D01*
X-5135580Y+2350920D01*
D38*
X-4686000Y+2610000D02*
X-4686000Y+2610000D01*
D41*
X-4879751Y+2410636D02*
X-4982468Y+2410636D01*
X-4982468Y+2487674D01*
X-4948229Y+2526193D01*
X-4913990Y+2526193D01*
X-4879751Y+2487674D01*
X-4879751Y+2410636D01*
X-4965349Y+2583971D02*
X-4982468Y+2603231D01*
X-4982468Y+2661009D01*
X-4965349Y+2680269D01*
X-4948229Y+2680269D01*
X-4931110Y+2661009D01*
X-4913990Y+2680269D01*
X-4896870Y+2680269D01*
X-4879751Y+2661009D01*
X-4879751Y+2603231D01*
X-4896870Y+2583971D01*
X-4931110Y+2622490D02*
X-4931110Y+2661009D01*
X-4896870Y+2718788D02*
X-4965349Y+2718788D01*
X-4982468Y+2738047D01*
X-4982468Y+2815085D01*
X-4965349Y+2834345D01*
X-4896870Y+2834345D01*
X-4879751Y+2815085D01*
X-4879751Y+2738047D01*
X-4896870Y+2718788D01*
X-4879751Y+2718788D02*
X-4982468Y+2834345D01*
D22*
X-4739580Y+2970920D02*
X-4157920Y+2970920D01*
X-4157920Y+3552580D01*
X-4739580Y+3552580D01*
X-4739580Y+2970920D01*
D38*
X-4290000Y+3230000D02*
X-4290000Y+3230000D01*
D41*
X-4483751Y+3030636D02*
X-4586468Y+3030636D01*
X-4586468Y+3107674D01*
X-4552229Y+3146193D01*
X-4517990Y+3146193D01*
X-4483751Y+3107674D01*
X-4483751Y+3030636D01*
X-4569349Y+3203971D02*
X-4586468Y+3223231D01*
X-4586468Y+3281009D01*
X-4569349Y+3300269D01*
X-4552229Y+3300269D01*
X-4535110Y+3281009D01*
X-4517990Y+3300269D01*
X-4500870Y+3300269D01*
X-4483751Y+3281009D01*
X-4483751Y+3223231D01*
X-4500870Y+3203971D01*
X-4535110Y+3242490D02*
X-4535110Y+3281009D01*
X-4552229Y+3377307D02*
X-4586468Y+3415826D01*
X-4483751Y+3415826D01*
D22*
X-4305580Y+3540920D02*
X-3723920Y+3540920D01*
X-3723920Y+4122580D01*
X-4305580Y+4122580D01*
X-4305580Y+3540920D01*
D38*
X-3856000Y+3800000D02*
X-3856000Y+3800000D01*
D41*
X-4049751Y+3600636D02*
X-4152468Y+3600636D01*
X-4152468Y+3677674D01*
X-4118229Y+3716193D01*
X-4083990Y+3716193D01*
X-4049751Y+3677674D01*
X-4049751Y+3600636D01*
X-4135349Y+3773971D02*
X-4152468Y+3793231D01*
X-4152468Y+3851009D01*
X-4135349Y+3870269D01*
X-4118229Y+3870269D01*
X-4101110Y+3851009D01*
X-4083990Y+3870269D01*
X-4066870Y+3870269D01*
X-4049751Y+3851009D01*
X-4049751Y+3793231D01*
X-4066870Y+3773971D01*
X-4101110Y+3812490D02*
X-4101110Y+3851009D01*
X-4135349Y+3928047D02*
X-4152468Y+3947307D01*
X-4152468Y+4005085D01*
X-4135349Y+4024345D01*
X-4118229Y+4024345D01*
X-4101110Y+4005085D01*
X-4101110Y+3947307D01*
X-4083990Y+3928047D01*
X-4049751Y+3928047D01*
X-4049751Y+4024345D01*
D22*
X-3695580Y+4030920D02*
X-3113920Y+4030920D01*
X-3113920Y+4612580D01*
X-3695580Y+4612580D01*
X-3695580Y+4030920D01*
D38*
X-3246000Y+4290000D02*
X-3246000Y+4290000D01*
D41*
X-3439751Y+4090636D02*
X-3542468Y+4090636D01*
X-3542468Y+4167674D01*
X-3508229Y+4206193D01*
X-3473990Y+4206193D01*
X-3439751Y+4167674D01*
X-3439751Y+4090636D01*
X-3525349Y+4263971D02*
X-3542468Y+4283231D01*
X-3542468Y+4341009D01*
X-3525349Y+4360269D01*
X-3508229Y+4360269D01*
X-3491110Y+4341009D01*
X-3473990Y+4360269D01*
X-3456870Y+4360269D01*
X-3439751Y+4341009D01*
X-3439751Y+4283231D01*
X-3456870Y+4263971D01*
X-3491110Y+4302490D02*
X-3491110Y+4341009D01*
X-3525349Y+4418047D02*
X-3542468Y+4437307D01*
X-3542468Y+4495085D01*
X-3525349Y+4514345D01*
X-3508229Y+4514345D01*
X-3491110Y+4495085D01*
X-3473990Y+4514345D01*
X-3456870Y+4514345D01*
X-3439751Y+4495085D01*
X-3439751Y+4437307D01*
X-3456870Y+4418047D01*
X-3491110Y+4456566D02*
X-3491110Y+4495085D01*
D22*
X-2975580Y+4500920D02*
X-2393920Y+4500920D01*
X-2393920Y+5082580D01*
X-2975580Y+5082580D01*
X-2975580Y+4500920D01*
D38*
X-2526000Y+4760000D02*
X-2526000Y+4760000D01*
D41*
X-2719751Y+4560636D02*
X-2822468Y+4560636D01*
X-2822468Y+4637674D01*
X-2788229Y+4676193D01*
X-2753990Y+4676193D01*
X-2719751Y+4637674D01*
X-2719751Y+4560636D01*
X-2805349Y+4733971D02*
X-2822468Y+4753231D01*
X-2822468Y+4811009D01*
X-2805349Y+4830269D01*
X-2788229Y+4830269D01*
X-2771110Y+4811009D01*
X-2753990Y+4830269D01*
X-2736870Y+4830269D01*
X-2719751Y+4811009D01*
X-2719751Y+4753231D01*
X-2736870Y+4733971D01*
X-2771110Y+4772490D02*
X-2771110Y+4811009D01*
X-2753990Y+4984345D02*
X-2753990Y+4868788D01*
X-2822468Y+4945826D01*
X-2719751Y+4945826D01*
D22*
X-2295580Y+4900920D02*
X-1713920Y+4900920D01*
X-1713920Y+5482580D01*
X-2295580Y+5482580D01*
X-2295580Y+4900920D01*
D38*
X-1846000Y+5160000D02*
X-1846000Y+5160000D01*
D41*
X-2039751Y+4960636D02*
X-2142468Y+4960636D01*
X-2142468Y+5037674D01*
X-2108229Y+5076193D01*
X-2073990Y+5076193D01*
X-2039751Y+5037674D01*
X-2039751Y+4960636D01*
X-2125349Y+5133971D02*
X-2142468Y+5153231D01*
X-2142468Y+5211009D01*
X-2125349Y+5230269D01*
X-2108229Y+5230269D01*
X-2091110Y+5211009D01*
X-2073990Y+5230269D01*
X-2056870Y+5230269D01*
X-2039751Y+5211009D01*
X-2039751Y+5153231D01*
X-2056870Y+5133971D01*
X-2091110Y+5172490D02*
X-2091110Y+5211009D01*
X-2142468Y+5384345D02*
X-2142468Y+5288047D01*
X-2108229Y+5288047D01*
X-2108229Y+5365085D01*
X-2091110Y+5384345D01*
X-2056870Y+5384345D01*
X-2039751Y+5365085D01*
X-2039751Y+5307307D01*
X-2056870Y+5288047D01*
D22*
X-1435580Y+5140920D02*
X-853920Y+5140920D01*
X-853920Y+5722580D01*
X-1435580Y+5722580D01*
X-1435580Y+5140920D01*
D38*
X-986000Y+5400000D02*
X-986000Y+5400000D01*
D41*
X-1179751Y+5200636D02*
X-1282468Y+5200636D01*
X-1282468Y+5277674D01*
X-1248229Y+5316193D01*
X-1213990Y+5316193D01*
X-1179751Y+5277674D01*
X-1179751Y+5200636D01*
X-1265349Y+5373971D02*
X-1282468Y+5393231D01*
X-1282468Y+5451009D01*
X-1265349Y+5470269D01*
X-1248229Y+5470269D01*
X-1231110Y+5451009D01*
X-1213990Y+5470269D01*
X-1196870Y+5470269D01*
X-1179751Y+5451009D01*
X-1179751Y+5393231D01*
X-1196870Y+5373971D01*
X-1231110Y+5412490D02*
X-1231110Y+5451009D01*
X-1265349Y+5624345D02*
X-1282468Y+5605085D01*
X-1282468Y+5547307D01*
X-1265349Y+5528047D01*
X-1196870Y+5528047D01*
X-1179751Y+5547307D01*
X-1179751Y+5605085D01*
X-1196870Y+5624345D01*
X-1213990Y+5624345D01*
X-1231110Y+5605085D01*
X-1231110Y+5528047D01*
D22*
X-585580Y+5190920D02*
X-3920Y+5190920D01*
X-3920Y+5772580D01*
X-585580Y+5772580D01*
X-585580Y+5190920D01*
D38*
X-136000Y+5450000D02*
X-136000Y+5450000D01*
D41*
X-329751Y+5250636D02*
X-432468Y+5250636D01*
X-432468Y+5327674D01*
X-398229Y+5366193D01*
X-363990Y+5366193D01*
X-329751Y+5327674D01*
X-329751Y+5250636D01*
X-415349Y+5423971D02*
X-432468Y+5443231D01*
X-432468Y+5501009D01*
X-415349Y+5520269D01*
X-398229Y+5520269D01*
X-381110Y+5501009D01*
X-363990Y+5520269D01*
X-346870Y+5520269D01*
X-329751Y+5501009D01*
X-329751Y+5443231D01*
X-346870Y+5423971D01*
X-381110Y+5462490D02*
X-381110Y+5501009D01*
X-432468Y+5578047D02*
X-432468Y+5674345D01*
X-415349Y+5674345D01*
X-329751Y+5578047D01*
D21*
X+1675680Y-1514600D02*
X+1675680Y-1766060D01*
X+2224320Y-1766060D01*
X+2224320Y-1514600D01*
X+1675680Y-1514600D01*
X+1675680Y-1766060D01*
X+2224320Y-1766060D01*
X+2224320Y-1514600D01*
X+1675680Y-1514600D01*
D42*
X+1850000Y-1640000D02*
X+1850000Y-1640000D01*
D43*
X+1952094Y-1606048D02*
X+1952094Y-1640330D01*
X+1990661Y-1674613D01*
X+2029228Y-1640330D01*
X+2029228Y-1606048D01*
X+2080651Y-1628903D02*
X+2106363Y-1606048D01*
X+2106363Y-1674613D01*
D22*
X-1329080Y-2742080D02*
X-810920Y-2742080D01*
X-810920Y-2350920D01*
X-1329080Y-2350920D01*
X-1329080Y-2742080D01*
D44*
X-1197000Y-2610000D02*
X-1197000Y-2610000D01*
D45*
X-1000200Y-2649827D02*
X-1023162Y-2623996D01*
X-1023162Y-2598164D01*
X-1000200Y-2572332D01*
X-977239Y-2572332D01*
X-954277Y-2598164D01*
X-954277Y-2623996D01*
X-977239Y-2649827D01*
X-1000200Y-2649827D01*
X-977239Y-2598164D02*
X-954277Y-2572332D01*
X-1000200Y-2520669D02*
X-1023162Y-2494837D01*
X-954277Y-2494837D01*
D22*
X+1733920Y-962080D02*
X+2252080Y-962080D01*
X+2252080Y-697920D01*
X+1733920Y-697920D01*
X+1733920Y-962080D01*
D46*
X+2120000Y-830000D02*
X+2120000Y-830000D01*
D47*
X+1883653Y-852691D02*
X+1870889Y-864036D01*
X+1832599Y-864036D01*
X+1807073Y-841345D01*
X+1807073Y-818655D01*
X+1832599Y-795964D01*
X+1870889Y-795964D01*
X+1883653Y-807309D01*
X+1934706Y-818655D02*
X+1960233Y-795964D01*
X+1960233Y-864036D01*
D22*
X+71100Y-2464900D02*
X+248900Y-2464900D01*
X+248900Y-1271100D01*
X+71100Y-1271100D01*
X+71100Y-2464900D01*
D46*
X+160000Y-1360000D02*
X+160000Y-1360000D01*
D48*
X+195204Y-2035842D02*
X+124796Y-2035842D01*
X+124796Y-1969835D01*
X+136531Y-1956633D01*
X+148265Y-1956633D01*
X+160000Y-1969835D01*
X+160000Y-2035842D01*
X+160000Y-1969835D02*
X+171735Y-1956633D01*
X+195204Y-1956633D01*
X+148265Y-1903827D02*
X+124796Y-1877424D01*
X+195204Y-1877424D01*
D22*
X+961100Y+3761100D02*
X+2154900Y+3761100D01*
X+2154900Y+3938900D01*
X+961100Y+3938900D01*
X+961100Y+3761100D01*
D46*
X+1050000Y+3850000D02*
X+1050000Y+3850000D01*
D48*
X+1514618Y+3814796D02*
X+1514618Y+3885204D01*
X+1580625Y+3885204D01*
X+1593827Y+3873469D01*
X+1593827Y+3861735D01*
X+1580625Y+3850000D01*
X+1514618Y+3850000D01*
X+1580625Y+3850000D02*
X+1593827Y+3838265D01*
X+1593827Y+3814796D01*
X+1633431Y+3873469D02*
X+1646633Y+3885204D01*
X+1686237Y+3885204D01*
X+1699439Y+3873469D01*
X+1699439Y+3861735D01*
X+1686237Y+3850000D01*
X+1646633Y+3850000D01*
X+1633431Y+3838265D01*
X+1633431Y+3814796D01*
X+1699439Y+3814796D01*
D22*
X+2571100Y+2181100D02*
X+3764900Y+2181100D01*
X+3764900Y+2358900D01*
X+2571100Y+2358900D01*
X+2571100Y+2181100D01*
D46*
X+2660000Y+2270000D02*
X+2660000Y+2270000D01*
D48*
X+3124618Y+2234796D02*
X+3124618Y+2305204D01*
X+3190625Y+2305204D01*
X+3203827Y+2293469D01*
X+3203827Y+2281735D01*
X+3190625Y+2270000D01*
X+3124618Y+2270000D01*
X+3190625Y+2270000D02*
X+3203827Y+2258265D01*
X+3203827Y+2234796D01*
X+3243431Y+2293469D02*
X+3256633Y+2305204D01*
X+3296237Y+2305204D01*
X+3309439Y+2293469D01*
X+3309439Y+2281735D01*
X+3296237Y+2270000D01*
X+3309439Y+2258265D01*
X+3309439Y+2246531D01*
X+3296237Y+2234796D01*
X+3256633Y+2234796D01*
X+3243431Y+2246531D01*
X+3269834Y+2270000D02*
X+3296237Y+2270000D01*
D22*
X+3571100Y+451100D02*
X+4764900Y+451100D01*
X+4764900Y+628900D01*
X+3571100Y+628900D01*
X+3571100Y+451100D01*
D46*
X+3660000Y+540000D02*
X+3660000Y+540000D01*
D48*
X+4124618Y+504796D02*
X+4124618Y+575204D01*
X+4190625Y+575204D01*
X+4203827Y+563469D01*
X+4203827Y+551735D01*
X+4190625Y+540000D01*
X+4124618Y+540000D01*
X+4190625Y+540000D02*
X+4203827Y+528265D01*
X+4203827Y+504796D01*
X+4309439Y+528265D02*
X+4230230Y+528265D01*
X+4283036Y+575204D01*
X+4283036Y+504796D01*
D22*
X+3191100Y-1558900D02*
X+4384900Y-1558900D01*
X+4384900Y-1381100D01*
X+3191100Y-1381100D01*
X+3191100Y-1558900D01*
D46*
X+3280000Y-1470000D02*
X+3280000Y-1470000D01*
D48*
X+3744618Y-1505204D02*
X+3744618Y-1434796D01*
X+3810625Y-1434796D01*
X+3823827Y-1446531D01*
X+3823827Y-1458265D01*
X+3810625Y-1470000D01*
X+3744618Y-1470000D01*
X+3810625Y-1470000D02*
X+3823827Y-1481735D01*
X+3823827Y-1505204D01*
X+3929439Y-1434796D02*
X+3863431Y-1434796D01*
X+3863431Y-1458265D01*
X+3916237Y-1458265D01*
X+3929439Y-1470000D01*
X+3929439Y-1493469D01*
X+3916237Y-1505204D01*
X+3876633Y-1505204D01*
X+3863431Y-1493469D01*
D22*
X+1641100Y-3428900D02*
X+2834900Y-3428900D01*
X+2834900Y-3251100D01*
X+1641100Y-3251100D01*
X+1641100Y-3428900D01*
D46*
X+1730000Y-3340000D02*
X+1730000Y-3340000D01*
D48*
X+2194618Y-3375204D02*
X+2194618Y-3304796D01*
X+2260625Y-3304796D01*
X+2273827Y-3316531D01*
X+2273827Y-3328265D01*
X+2260625Y-3340000D01*
X+2194618Y-3340000D01*
X+2260625Y-3340000D02*
X+2273827Y-3351735D01*
X+2273827Y-3375204D01*
X+2379439Y-3316531D02*
X+2366237Y-3304796D01*
X+2326633Y-3304796D01*
X+2313431Y-3316531D01*
X+2313431Y-3363469D01*
X+2326633Y-3375204D01*
X+2366237Y-3375204D01*
X+2379439Y-3363469D01*
X+2379439Y-3351735D01*
X+2366237Y-3340000D01*
X+2313431Y-3340000D01*
D22*
X+41100Y-4348900D02*
X+1234900Y-4348900D01*
X+1234900Y-4171100D01*
X+41100Y-4171100D01*
X+41100Y-4348900D01*
D46*
X+130000Y-4260000D02*
X+130000Y-4260000D01*
D48*
X+594618Y-4295204D02*
X+594618Y-4224796D01*
X+660625Y-4224796D01*
X+673827Y-4236531D01*
X+673827Y-4248265D01*
X+660625Y-4260000D01*
X+594618Y-4260000D01*
X+660625Y-4260000D02*
X+673827Y-4271735D01*
X+673827Y-4295204D01*
X+713431Y-4224796D02*
X+779439Y-4224796D01*
X+779439Y-4236531D01*
X+713431Y-4295204D01*
D22*
X-3458900Y-3088900D02*
X-2265100Y-3088900D01*
X-2265100Y-2911100D01*
X-3458900Y-2911100D01*
X-3458900Y-3088900D01*
D46*
X-3370000Y-3000000D02*
X-3370000Y-3000000D01*
D48*
X-2905382Y-3035204D02*
X-2905382Y-2964796D01*
X-2839375Y-2964796D01*
X-2826173Y-2976531D01*
X-2826173Y-2988265D01*
X-2839375Y-3000000D01*
X-2905382Y-3000000D01*
X-2839375Y-3000000D02*
X-2826173Y-3011735D01*
X-2826173Y-3035204D01*
X-2773367Y-3000000D02*
X-2786569Y-2988265D01*
X-2786569Y-2976531D01*
X-2773367Y-2964796D01*
X-2733763Y-2964796D01*
X-2720561Y-2976531D01*
X-2720561Y-2988265D01*
X-2733763Y-3000000D01*
X-2773367Y-3000000D01*
X-2786569Y-3011735D01*
X-2786569Y-3023469D01*
X-2773367Y-3035204D01*
X-2733763Y-3035204D01*
X-2720561Y-3023469D01*
X-2720561Y-3011735D01*
X-2733763Y-3000000D01*
D22*
X-4648900Y-1048900D02*
X-3455100Y-1048900D01*
X-3455100Y-871100D01*
X-4648900Y-871100D01*
X-4648900Y-1048900D01*
D46*
X-4560000Y-960000D02*
X-4560000Y-960000D01*
D48*
X-4095382Y-995204D02*
X-4095382Y-924796D01*
X-4029375Y-924796D01*
X-4016173Y-936531D01*
X-4016173Y-948265D01*
X-4029375Y-960000D01*
X-4095382Y-960000D01*
X-4029375Y-960000D02*
X-4016173Y-971735D01*
X-4016173Y-995204D01*
X-3910561Y-948265D02*
X-3923763Y-960000D01*
X-3963367Y-960000D01*
X-3976569Y-948265D01*
X-3976569Y-936531D01*
X-3963367Y-924796D01*
X-3923763Y-924796D01*
X-3910561Y-936531D01*
X-3910561Y-983469D01*
X-3923763Y-995204D01*
X-3963367Y-995204D01*
D22*
X-4258900Y+631100D02*
X-3065100Y+631100D01*
X-3065100Y+808900D01*
X-4258900Y+808900D01*
X-4258900Y+631100D01*
D46*
X-4170000Y+720000D02*
X-4170000Y+720000D01*
D48*
X-3758188Y+684796D02*
X-3758188Y+755204D01*
X-3692181Y+755204D01*
X-3678979Y+743469D01*
X-3678979Y+731735D01*
X-3692181Y+720000D01*
X-3758188Y+720000D01*
X-3692181Y+720000D02*
X-3678979Y+708265D01*
X-3678979Y+684796D01*
X-3626173Y+731735D02*
X-3599770Y+755204D01*
X-3599770Y+684796D01*
X-3546964Y+696531D02*
X-3546964Y+743469D01*
X-3533763Y+755204D01*
X-3480957Y+755204D01*
X-3467755Y+743469D01*
X-3467755Y+696531D01*
X-3480957Y+684796D01*
X-3533763Y+684796D01*
X-3546964Y+696531D01*
X-3546964Y+684796D02*
X-3467755Y+755204D01*
D22*
X-3678900Y+2201100D02*
X-2485100Y+2201100D01*
X-2485100Y+2378900D01*
X-3678900Y+2378900D01*
X-3678900Y+2201100D01*
D46*
X-3590000Y+2290000D02*
X-3590000Y+2290000D01*
D48*
X-3178188Y+2254796D02*
X-3178188Y+2325204D01*
X-3112181Y+2325204D01*
X-3098979Y+2313469D01*
X-3098979Y+2301735D01*
X-3112181Y+2290000D01*
X-3178188Y+2290000D01*
X-3112181Y+2290000D02*
X-3098979Y+2278265D01*
X-3098979Y+2254796D01*
X-3046173Y+2301735D02*
X-3019770Y+2325204D01*
X-3019770Y+2254796D01*
X-2940561Y+2301735D02*
X-2914158Y+2325204D01*
X-2914158Y+2254796D01*
D22*
X-2678900Y+3801100D02*
X-1485100Y+3801100D01*
X-1485100Y+3978900D01*
X-2678900Y+3978900D01*
X-2678900Y+3801100D01*
D46*
X-2590000Y+3890000D02*
X-2590000Y+3890000D01*
D48*
X-2178188Y+3854796D02*
X-2178188Y+3925204D01*
X-2112181Y+3925204D01*
X-2098979Y+3913469D01*
X-2098979Y+3901735D01*
X-2112181Y+3890000D01*
X-2178188Y+3890000D01*
X-2112181Y+3890000D02*
X-2098979Y+3878265D01*
X-2098979Y+3854796D01*
X-2046173Y+3901735D02*
X-2019770Y+3925204D01*
X-2019770Y+3854796D01*
X-1953763Y+3913469D02*
X-1940561Y+3925204D01*
X-1900957Y+3925204D01*
X-1887755Y+3913469D01*
X-1887755Y+3901735D01*
X-1900957Y+3890000D01*
X-1940561Y+3890000D01*
X-1953763Y+3878265D01*
X-1953763Y+3854796D01*
X-1887755Y+3854796D01*
D22*
X-728900Y+4211100D02*
X+464900Y+4211100D01*
X+464900Y+4388900D01*
X-728900Y+4388900D01*
X-728900Y+4211100D01*
D46*
X-640000Y+4300000D02*
X-640000Y+4300000D01*
D48*
X-228188Y+4264796D02*
X-228188Y+4335204D01*
X-162181Y+4335204D01*
X-148979Y+4323469D01*
X-148979Y+4311735D01*
X-162181Y+4300000D01*
X-228188Y+4300000D01*
X-162181Y+4300000D02*
X-148979Y+4288265D01*
X-148979Y+4264796D01*
X-96173Y+4311735D02*
X-69770Y+4335204D01*
X-69770Y+4264796D01*
X-3763Y+4323469D02*
X+9439Y+4335204D01*
X+49043Y+4335204D01*
X+62245Y+4323469D01*
X+62245Y+4311735D01*
X+49043Y+4300000D01*
X+62245Y+4288265D01*
X+62245Y+4276531D01*
X+49043Y+4264796D01*
X+9439Y+4264796D01*
X-3763Y+4276531D01*
X+22640Y+4300000D02*
X+49043Y+4300000D01*
D22*
X-2048900Y-4028900D02*
X-855100Y-4028900D01*
X-855100Y-3851100D01*
X-2048900Y-3851100D01*
X-2048900Y-4028900D01*
D46*
X-1960000Y-3940000D02*
X-1960000Y-3940000D01*
D48*
X-1548188Y-3975204D02*
X-1548188Y-3904796D01*
X-1482181Y-3904796D01*
X-1468979Y-3916531D01*
X-1468979Y-3928265D01*
X-1482181Y-3940000D01*
X-1548188Y-3940000D01*
X-1482181Y-3940000D02*
X-1468979Y-3951735D01*
X-1468979Y-3975204D01*
X-1416173Y-3928265D02*
X-1389770Y-3904796D01*
X-1389770Y-3975204D01*
X-1257755Y-3951735D02*
X-1336964Y-3951735D01*
X-1284158Y-3904796D01*
X-1284158Y-3975204D01*
M02*
