G04 PROTEUS GERBER X2 FILE*
%TF.GenerationSoftware,Labcenter,Proteus,8.17-SP2-Build37159*%
%TF.CreationDate,2024-06-19T13:44:36+00:00*%
%TF.FileFunction,Soldermask,Top*%
%TF.FilePolarity,Negative*%
%TF.Part,Single*%
%TF.SameCoordinates,{1d89ed81-d2fc-43df-ac84-501309ecc539}*%
%FSLAX45Y45*%
%MOMM*%
G01*
%TA.AperFunction,Material*%
%ADD26C,1.016000*%
%AMPPAD019*
4,1,36,
-0.580530,-0.529830,
-0.580530,0.529830,
-0.579500,0.540040,
-0.576540,0.549560,
-0.571870,0.558170,
-0.565680,0.565680,
-0.558170,0.571870,
-0.549560,0.576540,
-0.540040,0.579500,
-0.529830,0.580530,
0.529830,0.580530,
0.540040,0.579500,
0.549560,0.576540,
0.558170,0.571870,
0.565680,0.565680,
0.571870,0.558170,
0.576540,0.549560,
0.579500,0.540040,
0.580530,0.529830,
0.580530,-0.529830,
0.579500,-0.540040,
0.576540,-0.549560,
0.571870,-0.558170,
0.565680,-0.565680,
0.558170,-0.571870,
0.549560,-0.576540,
0.540040,-0.579500,
0.529830,-0.580530,
-0.529830,-0.580530,
-0.540040,-0.579500,
-0.549560,-0.576540,
-0.558170,-0.571870,
-0.565680,-0.565680,
-0.571870,-0.558170,
-0.576540,-0.549560,
-0.579500,-0.540040,
-0.580530,-0.529830,
0*%
%TA.AperFunction,Material*%
%ADD27PPAD019*%
%ADD28C,1.600000*%
%AMPPAD021*
4,1,36,
-0.474260,-0.424260,
-0.474260,0.424260,
-0.473240,0.434340,
-0.470330,0.443720,
-0.465720,0.452210,
-0.459610,0.459610,
-0.452210,0.465720,
-0.443720,0.470330,
-0.434340,0.473240,
-0.424260,0.474260,
0.424260,0.474260,
0.434340,0.473240,
0.443720,0.470330,
0.452210,0.465720,
0.459610,0.459610,
0.465720,0.452210,
0.470330,0.443720,
0.473240,0.434340,
0.474260,0.424260,
0.474260,-0.424260,
0.473240,-0.434340,
0.470330,-0.443720,
0.465720,-0.452210,
0.459610,-0.459610,
0.452210,-0.465720,
0.443720,-0.470330,
0.434340,-0.473240,
0.424260,-0.474260,
-0.424260,-0.474260,
-0.434340,-0.473240,
-0.443720,-0.470330,
-0.452210,-0.465720,
-0.459610,-0.459610,
-0.465720,-0.452210,
-0.470330,-0.443720,
-0.473240,-0.434340,
-0.474260,-0.424260,
0*%
%TA.AperFunction,Material*%
%ADD29PPAD021*%
%ADD72C,1.300000*%
%AMPPAD023*
4,1,36,
1.016000,-1.143000,
-1.016000,-1.143000,
-1.041590,-1.140420,
-1.065430,-1.133020,
-1.087000,-1.121310,
-1.105800,-1.105800,
-1.121310,-1.087000,
-1.133020,-1.065430,
-1.140420,-1.041590,
-1.143000,-1.016000,
-1.143000,1.016000,
-1.140420,1.041590,
-1.133020,1.065430,
-1.121310,1.087000,
-1.105800,1.105800,
-1.087000,1.121310,
-1.065430,1.133020,
-1.041590,1.140420,
-1.016000,1.143000,
1.016000,1.143000,
1.041590,1.140420,
1.065430,1.133020,
1.087000,1.121310,
1.105800,1.105800,
1.121310,1.087000,
1.133020,1.065430,
1.140420,1.041590,
1.143000,1.016000,
1.143000,-1.016000,
1.140420,-1.041590,
1.133020,-1.065430,
1.121310,-1.087000,
1.105800,-1.105800,
1.087000,-1.121310,
1.065430,-1.133020,
1.041590,-1.140420,
1.016000,-1.143000,
0*%
%TA.AperFunction,Material*%
%ADD73PPAD023*%
%ADD30C,1.651000*%
%TA.AperFunction,Material*%
%ADD31C,1.778000*%
%TA.AperFunction,Material*%
%ADD32C,2.032000*%
%TA.AperFunction,Profile*%
%ADD71C,0.101600*%
%TD.AperFunction*%
D26*
X-1960024Y-3724696D03*
X-1953444Y-3296976D03*
X-884145Y-2148713D03*
X-1367796Y-2145423D03*
X-880623Y+3594622D03*
X-2145805Y+369535D03*
X-1913656Y-794631D03*
D27*
X-724000Y-392000D03*
D28*
X-470000Y-392000D03*
X-216000Y-392000D03*
X+38000Y-392000D03*
X+292000Y-392000D03*
X+546000Y-392000D03*
X+800000Y-392000D03*
X+800000Y+370000D03*
X+546000Y+370000D03*
X+292000Y+370000D03*
X+38000Y+370000D03*
X-216000Y+370000D03*
X-470000Y+370000D03*
X-724000Y+370000D03*
D29*
X-2944000Y-1830000D03*
D72*
X-2690000Y-1830000D03*
X-2436000Y-1830000D03*
X-2436000Y-950000D03*
X-2690000Y-950000D03*
X-2944000Y-950000D03*
D73*
X-1612000Y+90000D03*
X-1866000Y+90000D03*
X-2820000Y+260000D03*
X-2566000Y+260000D03*
X+310000Y+5420000D03*
X+564000Y+5420000D03*
X+1230000Y+5320000D03*
X+1484000Y+5320000D03*
X+2036000Y+5080000D03*
X+2290000Y+5080000D03*
X+2826000Y+4610000D03*
X+3080000Y+4610000D03*
X+3470000Y+4110000D03*
X+3724000Y+4110000D03*
X+4016000Y+3450000D03*
X+4270000Y+3450000D03*
X+4626000Y+2620000D03*
X+4880000Y+2620000D03*
X+5190000Y+1540000D03*
X+5444000Y+1540000D03*
X+5400000Y+680000D03*
X+5654000Y+680000D03*
X+5404000Y-410000D03*
X+5658000Y-410000D03*
X+5200000Y-1280000D03*
X+5454000Y-1280000D03*
X+4700000Y-2270000D03*
X+4954000Y-2270000D03*
X+3996000Y-3290000D03*
X+4250000Y-3290000D03*
X+3176000Y-4160000D03*
X+3430000Y-4160000D03*
X+2450000Y-4720000D03*
X+2704000Y-4720000D03*
X+1450000Y-5240000D03*
X+1704000Y-5240000D03*
X+450000Y-5430000D03*
X+704000Y-5430000D03*
X-640000Y-5510000D03*
X-386000Y-5510000D03*
X-1720000Y-5250000D03*
X-1466000Y-5250000D03*
X-2760000Y-4770000D03*
X-2506000Y-4770000D03*
X-3590000Y-4220000D03*
X-3336000Y-4220000D03*
X-4264000Y-3530000D03*
X-4010000Y-3530000D03*
X-4840000Y-2740000D03*
X-4586000Y-2740000D03*
X-5330000Y-1740000D03*
X-5076000Y-1740000D03*
X-5630000Y-950000D03*
X-5376000Y-950000D03*
X-5790000Y-90000D03*
X-5536000Y-90000D03*
X-5724000Y+690000D03*
X-5470000Y+690000D03*
X-5530000Y+1400000D03*
X-5276000Y+1400000D03*
X-5360000Y+2040000D03*
X-5106000Y+2040000D03*
X-4940000Y+2610000D03*
X-4686000Y+2610000D03*
X-4544000Y+3230000D03*
X-4290000Y+3230000D03*
X-4110000Y+3800000D03*
X-3856000Y+3800000D03*
X-3500000Y+4290000D03*
X-3246000Y+4290000D03*
X-2780000Y+4760000D03*
X-2526000Y+4760000D03*
X-2100000Y+5160000D03*
X-1846000Y+5160000D03*
X-1240000Y+5400000D03*
X-986000Y+5400000D03*
X-390000Y+5450000D03*
X-136000Y+5450000D03*
D30*
X+1850000Y-1640000D03*
X+2050000Y-1640000D03*
D31*
X-1197000Y-2610000D03*
X-1070000Y-2483000D03*
X-943000Y-2610000D03*
D32*
X+2120000Y-830000D03*
X+1866000Y-830000D03*
X+160000Y-1360000D03*
X+160000Y-2376000D03*
X+1050000Y+3850000D03*
X+2066000Y+3850000D03*
X+2660000Y+2270000D03*
X+3676000Y+2270000D03*
X+3660000Y+540000D03*
X+4676000Y+540000D03*
X+3280000Y-1470000D03*
X+4296000Y-1470000D03*
X+1730000Y-3340000D03*
X+2746000Y-3340000D03*
X+130000Y-4260000D03*
X+1146000Y-4260000D03*
X-3370000Y-3000000D03*
X-2354000Y-3000000D03*
X-4560000Y-960000D03*
X-3544000Y-960000D03*
X-4170000Y+720000D03*
X-3154000Y+720000D03*
X-3590000Y+2290000D03*
X-2574000Y+2290000D03*
X-2590000Y+3890000D03*
X-1574000Y+3890000D03*
X-640000Y+4300000D03*
X+376000Y+4300000D03*
X-1960000Y-3940000D03*
X-944000Y-3940000D03*
D71*
X+6517204Y-40000D02*
X+6510628Y+252247D01*
X+6457778Y+836742D01*
X+6350754Y+1421237D01*
X+6186737Y+2005732D01*
X+5961007Y+2590227D01*
X+5666169Y+3174722D01*
X+5290637Y+3759217D01*
X+4815490Y+4343712D01*
X+4240227Y+4899974D01*
X+3655732Y+5344711D01*
X+3071237Y+5696167D01*
X+2486742Y+5970727D01*
X+1902247Y+6178586D01*
X+1317752Y+6326278D01*
X+733257Y+6417935D01*
X+148762Y+6455928D01*
X+20000Y+6457204D01*
X-6477204Y-40000D02*
X-6470628Y+252247D01*
X-6417778Y+836742D01*
X-6310754Y+1421237D01*
X-6146737Y+2005732D01*
X-5921007Y+2590227D01*
X-5626169Y+3174722D01*
X-5250637Y+3759217D01*
X-4775490Y+4343712D01*
X-4200227Y+4899974D01*
X-3615732Y+5344711D01*
X-3031237Y+5696167D01*
X-2446742Y+5970727D01*
X-1862247Y+6178586D01*
X-1277752Y+6326278D01*
X-693257Y+6417935D01*
X-108762Y+6455928D01*
X+20000Y+6457204D01*
X-6477204Y-40000D02*
X-6470628Y-332247D01*
X-6417778Y-916742D01*
X-6310754Y-1501237D01*
X-6146737Y-2085732D01*
X-5921007Y-2670227D01*
X-5626169Y-3254722D01*
X-5250637Y-3839217D01*
X-4775490Y-4423712D01*
X-4200227Y-4979974D01*
X-3615732Y-5424711D01*
X-3031237Y-5776167D01*
X-2446742Y-6050727D01*
X-1862247Y-6258586D01*
X-1277752Y-6406278D01*
X-693257Y-6497935D01*
X-108762Y-6535928D01*
X+20000Y-6537204D01*
X+6517204Y-40000D02*
X+6510628Y-332247D01*
X+6457778Y-916742D01*
X+6350754Y-1501237D01*
X+6186737Y-2085732D01*
X+5961007Y-2670227D01*
X+5666169Y-3254722D01*
X+5290637Y-3839217D01*
X+4815490Y-4423712D01*
X+4240227Y-4979974D01*
X+3655732Y-5424711D01*
X+3071237Y-5776167D01*
X+2486742Y-6050727D01*
X+1902247Y-6258586D01*
X+1317752Y-6406278D01*
X+733257Y-6497935D01*
X+148762Y-6535928D01*
X+20000Y-6537204D01*
M02*
