G04 PROTEUS GERBER X2 FILE*
%TF.GenerationSoftware,Labcenter,Proteus,8.17-SP2-Build37159*%
%TF.CreationDate,2024-06-19T13:44:36+00:00*%
%TF.FileFunction,Plated,1,2,PTH*%
%TF.FilePolarity,Positive*%
%TF.Part,Single*%
%TF.SameCoordinates,{1d89ed81-d2fc-43df-ac84-501309ecc539}*%
%FSLAX45Y45*%
%MOMM*%
G01*
%TA.AperFunction,ViaDrill*%
%ADD49C,0.381000*%
%TA.AperFunction,ComponentDrill*%
%ADD50C,0.990600*%
%TA.AperFunction,ComponentDrill*%
%ADD51C,0.787400*%
%TA.AperFunction,ComponentDrill*%
%ADD52C,1.016000*%
%ADD53C,0.812800*%
%TA.AperFunction,ComponentDrill*%
%ADD54C,0.762000*%
%TD.AperFunction*%
D49*
X-1960024Y-3724696D03*
X-1953444Y-3296976D03*
X-884145Y-2148713D03*
X-1367796Y-2145423D03*
X-880623Y+3594622D03*
X-2145805Y+369535D03*
X-1913656Y-794631D03*
D50*
X-724000Y-392000D03*
X-470000Y-392000D03*
X-216000Y-392000D03*
X+38000Y-392000D03*
X+292000Y-392000D03*
X+546000Y-392000D03*
X+800000Y-392000D03*
X+800000Y+370000D03*
X+546000Y+370000D03*
X+292000Y+370000D03*
X+38000Y+370000D03*
X-216000Y+370000D03*
X-470000Y+370000D03*
X-724000Y+370000D03*
D51*
X-2944000Y-1830000D03*
X-2690000Y-1830000D03*
X-2436000Y-1830000D03*
X-2436000Y-950000D03*
X-2690000Y-950000D03*
X-2944000Y-950000D03*
D52*
X-1612000Y+90000D03*
X-1866000Y+90000D03*
X-2820000Y+260000D03*
X-2566000Y+260000D03*
X+310000Y+5420000D03*
X+564000Y+5420000D03*
X+1230000Y+5320000D03*
X+1484000Y+5320000D03*
X+2036000Y+5080000D03*
X+2290000Y+5080000D03*
X+2826000Y+4610000D03*
X+3080000Y+4610000D03*
X+3470000Y+4110000D03*
X+3724000Y+4110000D03*
X+4016000Y+3450000D03*
X+4270000Y+3450000D03*
X+4626000Y+2620000D03*
X+4880000Y+2620000D03*
X+5190000Y+1540000D03*
X+5444000Y+1540000D03*
X+5400000Y+680000D03*
X+5654000Y+680000D03*
X+5404000Y-410000D03*
X+5658000Y-410000D03*
X+5200000Y-1280000D03*
X+5454000Y-1280000D03*
X+4700000Y-2270000D03*
X+4954000Y-2270000D03*
X+3996000Y-3290000D03*
X+4250000Y-3290000D03*
X+3176000Y-4160000D03*
X+3430000Y-4160000D03*
X+2450000Y-4720000D03*
X+2704000Y-4720000D03*
X+1450000Y-5240000D03*
X+1704000Y-5240000D03*
X+450000Y-5430000D03*
X+704000Y-5430000D03*
X-640000Y-5510000D03*
X-386000Y-5510000D03*
X-1720000Y-5250000D03*
X-1466000Y-5250000D03*
X-2760000Y-4770000D03*
X-2506000Y-4770000D03*
X-3590000Y-4220000D03*
X-3336000Y-4220000D03*
X-4264000Y-3530000D03*
X-4010000Y-3530000D03*
X-4840000Y-2740000D03*
X-4586000Y-2740000D03*
X-5330000Y-1740000D03*
X-5076000Y-1740000D03*
X-5630000Y-950000D03*
X-5376000Y-950000D03*
X-5790000Y-90000D03*
X-5536000Y-90000D03*
X-5724000Y+690000D03*
X-5470000Y+690000D03*
X-5530000Y+1400000D03*
X-5276000Y+1400000D03*
X-5360000Y+2040000D03*
X-5106000Y+2040000D03*
X-4940000Y+2610000D03*
X-4686000Y+2610000D03*
X-4544000Y+3230000D03*
X-4290000Y+3230000D03*
X-4110000Y+3800000D03*
X-3856000Y+3800000D03*
X-3500000Y+4290000D03*
X-3246000Y+4290000D03*
X-2780000Y+4760000D03*
X-2526000Y+4760000D03*
X-2100000Y+5160000D03*
X-1846000Y+5160000D03*
X-1240000Y+5400000D03*
X-986000Y+5400000D03*
X-390000Y+5450000D03*
X-136000Y+5450000D03*
D53*
X+1850000Y-1640000D03*
X+2050000Y-1640000D03*
D54*
X-1197000Y-2610000D03*
X-1070000Y-2483000D03*
X-943000Y-2610000D03*
X+2120000Y-830000D03*
X+1866000Y-830000D03*
X+160000Y-1360000D03*
X+160000Y-2376000D03*
X+1050000Y+3850000D03*
X+2066000Y+3850000D03*
X+2660000Y+2270000D03*
X+3676000Y+2270000D03*
X+3660000Y+540000D03*
X+4676000Y+540000D03*
X+3280000Y-1470000D03*
X+4296000Y-1470000D03*
X+1730000Y-3340000D03*
X+2746000Y-3340000D03*
X+130000Y-4260000D03*
X+1146000Y-4260000D03*
X-3370000Y-3000000D03*
X-2354000Y-3000000D03*
X-4560000Y-960000D03*
X-3544000Y-960000D03*
X-4170000Y+720000D03*
X-3154000Y+720000D03*
X-3590000Y+2290000D03*
X-2574000Y+2290000D03*
X-2590000Y+3890000D03*
X-1574000Y+3890000D03*
X-640000Y+4300000D03*
X+376000Y+4300000D03*
X-1960000Y-3940000D03*
X-944000Y-3940000D03*
M02*
