G04 PROTEUS GERBER X2 FILE*
%TF.GenerationSoftware,Labcenter,Proteus,8.17-SP2-Build37159*%
%TF.CreationDate,2024-06-19T13:44:36+00:00*%
%TF.FileFunction,NonPlated,1,2,NPTH*%
%TF.FilePolarity,Positive*%
%TF.Part,Single*%
%TF.SameCoordinates,{1d89ed81-d2fc-43df-ac84-501309ecc539}*%
%FSLAX45Y45*%
%MOMM*%
G01*
%TA.AperFunction,Profile*%
%ADD71C,0.101600*%
%TD.AperFunction*%
D71*
X+6517204Y-40000D02*
X+6510628Y+252247D01*
X+6457778Y+836742D01*
X+6350754Y+1421237D01*
X+6186737Y+2005732D01*
X+5961007Y+2590227D01*
X+5666169Y+3174722D01*
X+5290637Y+3759217D01*
X+4815490Y+4343712D01*
X+4240227Y+4899974D01*
X+3655732Y+5344711D01*
X+3071237Y+5696167D01*
X+2486742Y+5970727D01*
X+1902247Y+6178586D01*
X+1317752Y+6326278D01*
X+733257Y+6417935D01*
X+148762Y+6455928D01*
X+20000Y+6457204D01*
X-6477204Y-40000D02*
X-6470628Y+252247D01*
X-6417778Y+836742D01*
X-6310754Y+1421237D01*
X-6146737Y+2005732D01*
X-5921007Y+2590227D01*
X-5626169Y+3174722D01*
X-5250637Y+3759217D01*
X-4775490Y+4343712D01*
X-4200227Y+4899974D01*
X-3615732Y+5344711D01*
X-3031237Y+5696167D01*
X-2446742Y+5970727D01*
X-1862247Y+6178586D01*
X-1277752Y+6326278D01*
X-693257Y+6417935D01*
X-108762Y+6455928D01*
X+20000Y+6457204D01*
X-6477204Y-40000D02*
X-6470628Y-332247D01*
X-6417778Y-916742D01*
X-6310754Y-1501237D01*
X-6146737Y-2085732D01*
X-5921007Y-2670227D01*
X-5626169Y-3254722D01*
X-5250637Y-3839217D01*
X-4775490Y-4423712D01*
X-4200227Y-4979974D01*
X-3615732Y-5424711D01*
X-3031237Y-5776167D01*
X-2446742Y-6050727D01*
X-1862247Y-6258586D01*
X-1277752Y-6406278D01*
X-693257Y-6497935D01*
X-108762Y-6535928D01*
X+20000Y-6537204D01*
X+6517204Y-40000D02*
X+6510628Y-332247D01*
X+6457778Y-916742D01*
X+6350754Y-1501237D01*
X+6186737Y-2085732D01*
X+5961007Y-2670227D01*
X+5666169Y-3254722D01*
X+5290637Y-3839217D01*
X+4815490Y-4423712D01*
X+4240227Y-4979974D01*
X+3655732Y-5424711D01*
X+3071237Y-5776167D01*
X+2486742Y-6050727D01*
X+1902247Y-6258586D01*
X+1317752Y-6406278D01*
X+733257Y-6497935D01*
X+148762Y-6535928D01*
X+20000Y-6537204D01*
M02*
